<svg xmlns="http://www.w3.org/2000/svg">
<defs>
<font id="PTSans-Italic" horiz-adv-x="520" >
  <font-face 
    font-family="PT Sans"
    font-weight="400"
    font-style="italic"
    font-stretch="normal"
    units-per-em="1000"
    panose-1="2 11 5 3 2 2 3 9 2 4"
    ascent="770"
    descent="-230"
    x-height="500"
    cap-height="700"
    bbox="-222 -245.003 1150 984.003"
    underline-thickness="50"
    underline-position="-50"
    slope="-12"
    unicode-range="U+0020-U+FB02"
  />
<missing-glyph horiz-adv-x="750" 
d="M50 700h650v-700h-650v700zM570 620l-195 -217l-195 217l-50 -50l197 -220l-197 -220l50 -50l195 217l195 -217l50 50l-198 220l198 220zM129 27h8v12h4c4 0 7.66699 0.833008 11 2.5s5 4.83398 5 9.50098c0 5.33301 -1.83301 8.66602 -5.5 9.99902s-7.5 2 -11.5 2h-11
v-36zM141 57c5.33301 0 8.00098 -1.66797 8.00098 -5.00098s-0.833008 -5.16602 -2.5 -5.49902s-3.83398 -0.5 -6.50098 -0.5h-3v11h4zM189.001 62.999h-31v-6h12v-30h7v30h12v6zM222.001 36.999c0 -2.66699 -2.33301 -4.00098 -7 -4.00098s-7.66699 0.666992 -9 2l-3 -7
c1.33301 0 3 -0.333008 5 -1s4.66699 -1 8 -1c9.33301 0 14 4 14 12c0 6 -3 9.33301 -9 10s-9 2.66699 -9 6c0 2 2 3 6 3c3.33301 0 6.33301 -0.666992 9 -2l2 7c-4 1.33301 -7.66699 2 -11 2c-9.33301 0 -14 -3.66699 -14 -11c0 -3.33301 1 -5.66602 3 -6.99902
s4 -2.5 6 -3.5s4 -1.83301 6 -2.5s3 -1.66699 3 -3zM237.001 46.998c2.66699 1.33301 5.66699 2.00195 9 2.00195s5 -1.33301 5 -4v-2c-0.666992 0 -1.33398 0.166992 -2.00098 0.5s-1.66699 0.5 -3 0.5c-8 0 -12 -3.33301 -12 -10c0 -5.33301 2.66699 -8 8 -8
c4 0 7 1.66699 9 5l2 -4h6c-0.666992 1.33301 -1 3.66602 -1 6.99902v11c0 6.66699 -3.33301 10 -10 10c-2.66699 0 -5.16699 -0.333008 -7.5 -1s-4.16602 -1.33398 -5.49902 -2.00098zM245.001 32c-2.66699 0 -4.00098 1.33301 -4.00098 4s1.66699 4 5 4
c1.33301 0 2.33301 -0.166992 3 -0.5s1.33398 -0.5 2.00098 -0.5v-3c-1.33301 -2.66699 -3.33301 -4 -6 -4zM292 27v16c0 8 -3 12 -9 12c-4.66699 0 -8 -1.66699 -10 -5l-2 4h-5v-27h7v17c1.33301 2.66699 3.33301 4 6 4c3.33301 0 5 -2 5 -6v-15h8zM297 28

<glyph glyph-name="fi" unicode="fi" horiz-adv-x="513" 
d="M147 0c-6 -36.667 -12.999 -67.998 -20.999 -93.998s-18 -47.5 -30 -64.5s-26.667 -29.5 -44 -37.5s-38.333 -12 -63 -12c-20 0 -38.5 1.5 -55.5 4.5s-32.833 8.16699 -47.5 15.5l22 56c13.333 -4.66699 25.5 -7.83398 36.5 -9.50098s24.5 -2.5 40.5 -2.5
c25.333 0 44.333 13.167 57 39.5s22.667 61.166 30 104.499l72 436h-74l13 64h74c8 40 18.5 73.333 31.5 100s28.667 48 47 64s39.166 27.167 62.499 33.5s49 9.5 77 9.5c38 0 70.5 -4 97.5 -12s47.5 -17 61.5 -27l-32 -57c-15.333 11.333 -35 19.5 -59 24.5
s-49.333 7.5 -76 7.5c-23.333 0 -42.5 -3.33301 -57.5 -10s-27.5 -16.167 -37.5 -28.5s-18 -27.333 -24 -45s-11.333 -37.5 -16 -59.5h250l-84 -500h-75l72 436h-176z" />
    <glyph glyph-name="fl" unicode="fl" horiz-adv-x="546" 
d="M136 436h-74.0059l13 64h74c7.33301 39.333 17 72.5 29 99.5s26.667 48.833 44 65.5s37.5 28.667 60.5 36s49.5 11 79.5 11c12.667 0 26.834 -0.5 42.501 -1.5s31.334 -2.33301 47.001 -4s30.334 -3.5 44.001 -5.5s24.834 -4.33301 33.501 -7l-93 -572
c-2 -11.333 -3 -20.666 -3 -27.999c0 -26 11 -39 33 -39c8.66699 0 17.834 0.833008 27.501 2.5s21.167 4.5 34.5 8.5l-4 -56c-6 -2.66699 -13 -5.16699 -21 -7.5s-16.333 -4.33301 -25 -6s-17.167 -3 -25.5 -4s-15.5 -1.5 -21.5 -1.5c-24 0 -43 5.33301 -57 16
s-21 29 -21 55c0 2.66699 0.166992 5.83398 0.5 9.50098s1.33301 11.5 3 23.5s4.33398 29.833 8.00098 53.5l15.5 98.5l25 158.5l37 233.5c-9.33301 2 -22.666 4 -39.999 6s-34.666 3 -51.999 3c-21.333 0 -39 -3.5 -53 -10.5s-25.667 -17 -35 -30
s-16.833 -28.667 -22.5 -47s-10.834 -38.5 -15.501 -60.5h99l-13 -64h-99l-64 -436c-5.33301 -36.667 -11.833 -68 -19.5 -94s-17.667 -47.5 -30 -64.5s-27.333 -29.5 -45 -37.5s-38.834 -12 -63.501 -12c-20 0 -38.5 1.5 -55.5 4.5s-32.833 8.16699 -47.5 15.5l22 56
c13.333 -4.66699 25.5 -7.83398 36.5 -9.50098s24.5 -2.5 40.5 -2.5c25.333 0 44.333 13.167 57 39.5s22.667 61.166 30 104.499z" />
    <glyph glyph-name=".notdef" horiz-adv-x="750" 
d="M50 700h650v-700h-650v700zM570 620l-195 -217l-195 217l-50 -50l197 -220l-197 -220l50 -50l195 217l195 -217l50 50l-198 220l198 220zM129 27h8v12h4c4 0 7.66699 0.833008 11 2.5s5 4.83398 5 9.50098c0 5.33301 -1.83301 8.66602 -5.5 9.99902s-7.5 2 -11.5 2h-11
v-36zM141 57c5.33301 0 8.00098 -1.66797 8.00098 -5.00098s-0.833008 -5.16602 -2.5 -5.49902s-3.83398 -0.5 -6.50098 -0.5h-3v11h4zM189.001 62.999h-31v-6h12v-30h7v30h12v6zM222.001 36.999c0 -2.66699 -2.33301 -4.00098 -7 -4.00098s-7.66699 0.666992 -9 2l-3 -7
c1.33301 0 3 -0.333008 5 -1s4.66699 -1 8 -1c9.33301 0 14 4 14 12c0 6 -3 9.33301 -9 10s-9 2.66699 -9 6c0 2 2 3 6 3c3.33301 0 6.33301 -0.666992 9 -2l2 7c-4 1.33301 -7.66699 2 -11 2c-9.33301 0 -14 -3.66699 -14 -11c0 -3.33301 1 -5.66602 3 -6.99902
s4 -2.5 6 -3.5s4 -1.83301 6 -2.5s3 -1.66699 3 -3zM237.001 46.998c2.66699 1.33301 5.66699 2.00195 9 2.00195s5 -1.33301 5 -4v-2c-0.666992 0 -1.33398 0.166992 -2.00098 0.5s-1.66699 0.5 -3 0.5c-8 0 -12 -3.33301 -12 -10c0 -5.33301 2.66699 -8 8 -8
c4 0 7 1.66699 9 5l2 -4h6c-0.666992 1.33301 -1 3.66602 -1 6.99902v11c0 6.66699 -3.33301 10 -10 10c-2.66699 0 -5.16699 -0.333008 -7.5 -1s-4.16602 -1.33398 -5.49902 -2.00098zM245.001 32c-2.66699 0 -4.00098 1.33301 -4.00098 4s1.66699 4 5 4
c1.33301 0 2.33301 -0.166992 3 -0.5s1.33398 -0.5 2.00098 -0.5v-3c-1.33301 -2.66699 -3.33301 -4 -6 -4zM292 27v16c0 8 -3 12 -9 12c-4.66699 0 -8 -1.66699 -10 -5l-2 4h-5v-27h7v17c1.33301 2.66699 3.33301 4 6 4c3.33301 0 5 -2 5 -6v-15h8zM297 28
c2.66699 -1.33301 5.99902 -2 9.99902 -2c7.33301 0 11 3 11 9c0 3.33301 -0.833008 5.33301 -2.5 6s-3.5 1.66699 -5.5 3c-3.33301 1.33301 -5 2.33301 -5 3c0 1.33301 1 2 3 2c2.66699 0 5.33398 -0.666992 8.00098 -2l2 6c-2.66699 1.33301 -6 2 -10 2
c-6.66699 0 -10 -3 -10 -9c0 -3.33301 1 -5.5 3 -6.5l5 -2.5c3.33301 0 5 -1 5 -3c0 -1.33301 -1 -2 -3 -2c-3.33301 0 -6.33301 0.666992 -9 2zM337.999 42c0 -14 6.66699 -21 20 -21s20 7 20 21c0 13.333 -6.66699 20 -20 20c-5.33301 0 -10 -1.83301 -14 -5.5
s-6 -8.5 -6 -14.5zM343.999 42c0 10 4.66699 15 14 15s14 -5 14 -15s-4.66699 -15 -14 -15s-14 5 -14 15zM363.999 38c-1.33301 -0.666992 -2.66602 -1 -3.99902 -1c-2.66699 0 -4 1.66699 -4 5c0 2.66699 1.33301 4 4 4h3l2 4c-2.66699 1.33301 -5 2 -7 2
c-6 0 -9 -3.33301 -9 -10c0 -7.33301 3 -11 9 -11c3.33301 0 5.66602 0.666992 6.99902 2zM398.999 27h8v12h4c4 0 7.66699 0.833008 11 2.5s5 4.83398 5 9.50098c0 5.33301 -1.83301 8.66602 -5.5 9.99902s-7.5 2 -11.5 2h-11v-36zM410.999 57
c5.33301 0 8.00098 -1.66797 8.00098 -5.00098s-0.833008 -5.16602 -2.5 -5.49902s-3.83398 -0.5 -6.50098 -0.5h-3v11h4zM432 46.999c2.66699 1.33301 5.66699 2.00195 9 2.00195s5 -1.33301 5 -4v-2c-0.666992 0 -1.33398 0.166992 -2.00098 0.5s-1.66699 0.5 -3 0.5
c-8.66699 0 -13 -3.33301 -13 -10c0 -5.33301 3 -8 9 -8c4 0 7 1.66699 9 5l2 -4h6c-0.666992 1.33301 -1 3.66602 -1 6.99902v11c0 6.66699 -3.33301 10 -10 10c-2.66699 0 -5.16699 -0.333008 -7.5 -1s-4.16602 -1.33398 -5.49902 -2.00098zM440 32.001
c-2.66699 0 -4.00098 1.33301 -4.00098 4s1.66699 4 5 4c1.33301 0 2.33301 -0.166992 3 -0.5s1.33398 -0.5 2.00098 -0.5v-3c-1.33301 -2.66699 -3.33301 -4 -6 -4zM477.999 54.001c-0.666992 0.666992 -2 1 -4 1c-2.66699 0 -4.66699 -1.66699 -6 -5h-1l-1 4h-6v-27h8v17
c0 2.66699 2 4 6 4h1c0.666992 0 1 -0.166992 1 -0.5s0.333008 -0.5 1 -0.5zM482.999 47.001c4 1.33301 7.00098 2.00195 9.00098 2.00195c3.33301 0 5 -1.33301 5 -4v-2c-0.666992 0 -1.33398 0.166992 -2.00098 0.5s-1.66699 0.5 -3 0.5c-8.66699 0 -13 -3.33301 -13 -10
c0 -5.33301 3 -8 9 -8c4.66699 0 7.66699 1.66699 9 5h1l1 -4h6c-0.666992 1.33301 -1 3.66602 -1 6.99902v11c0 6.66699 -3.33301 10 -10 10c-2.66699 0 -5 -0.333008 -7 -1s-3.66699 -1.33398 -5 -2.00098zM491 32.0029c-2.66699 0 -4.00098 1.33301 -4.00098 4
s1.66699 4 5 4c1.33301 0 2.33301 -0.166992 3 -0.5s1.33398 -0.5 2.00098 -0.5v-3c-1.33301 -2.66699 -3.33301 -4 -6 -4zM532.999 63.0029h-31v-6h11v-30h8v30h12v6zM540.999 54.0029h-7.99805l12 -27c-0.666992 -3.33301 -2.33398 -5 -5.00098 -5l-1 1l-2 -6
c1.33301 -0.666992 3 -1 5 -1c3.33301 0 6.66602 4.33301 9.99902 13l10 25h-8l-5 -15v-5h-1l-1 5zM565.001 16.0029h7.99902v12c0.666992 -1.33301 2.33398 -2 5.00098 -2c9.33301 0 14 5 14 15c0 9.33301 -3.66699 14 -11 14c-3.33301 0 -6.33301 -1.33301 -9 -4h-1l-1 3
h-5v-38zM579 49.0029c3.33301 0 4.99902 -2.66699 4.99902 -8c0 -6 -2.33301 -9 -7 -9c-1.33301 0 -2.66602 0.666992 -3.99902 2v10c0 3.33301 2 5 6 5zM617.999 34.0029c-1.33301 -1.33301 -3.66699 -2.00098 -7 -2.00098c-4.66699 0 -7.33398 2 -8.00098 6h19v6
c0 4 -1.16699 6.83301 -3.5 8.5s-5.16602 2.5 -8.49902 2.5c-9.33301 0 -14 -5 -14 -15c0 -9.33301 4.66699 -14 14 -14c2 0 4 0.333008 6 1s3.66699 1.33398 5 2.00098zM609.998 49.002c4 0 5.66699 -2 5 -6h-11c0 4 2 6 6 6z" />
    <glyph glyph-name="space" unicode=" " horiz-adv-x="267" 
 />
    <glyph glyph-name="exclam" unicode="!" horiz-adv-x="273" 
d="M237 700h80l-73 -347l-54 -176h-46l20 176zM87 46c0 18 5.33301 32.167 16 42.5s24.667 15.5 42 15.5s31.333 -5.16699 42 -15.5s16 -24.5 16 -42.5c0 -17.333 -5.33301 -31.333 -16 -42s-24.667 -16 -42 -16s-31.333 5.33301 -42 16s-16 24.667 -16 42z" />
    <glyph glyph-name="quotedbl" unicode="&#x22;" horiz-adv-x="303" 
d="M231 700h74l-70 -193h-45zM120 700h74l-70 -193h-45z" />
    <glyph glyph-name="numbersign" unicode="#" 
d="M316 225h-106l-39 -167h-68l39 167h-78l14 64h80l31 131h-75l14 64h76l38 158h68l-38 -158h106l38 158h68l-38 -158h77l-16 -64h-76l-31 -131h73l-16 -64h-73l-39 -167h-68zM226 289h106l31 131h-106z" />
    <glyph glyph-name="dollar" unicode="$" 
d="M198 -9c-32 4.66699 -60.002 13.3301 -84.002 25.9971s-41.667 24 -53 34l35 61c10.667 -7.33301 26.167 -16.666 46.5 -27.999s43.833 -19.333 70.5 -24l60 281c-14.667 10.667 -29.167 22 -43.5 34s-27 25 -38 39s-20 29.833 -27 47.5s-10.5 37.834 -10.5 60.501
c0 29.333 4.83301 55.166 14.5 77.499s23.334 41.333 41.001 57s38.5 28 62.5 37s50.333 14.5 79 16.5l20 90h64l-19 -89c28.667 -2.66699 53.167 -7.66699 73.5 -15s37.5 -14.666 51.5 -21.999l-34 -63c-11.333 5.33301 -26 10.833 -44 16.5s-38.667 9.83398 -62 12.501
l-54 -251c15.333 -11.333 30.5 -23.333 45.5 -36s28.333 -27 40 -43s21.167 -34.167 28.5 -54.5s11 -43.833 11 -70.5c0 -27.333 -4.66699 -52.5 -14 -75.5s-23 -43 -41 -60s-40.167 -30.833 -66.5 -41.5s-56.166 -17 -89.499 -19c0 -0.666992 -1 -5.5 -3 -14.5
s-4 -19.167 -6 -30.5l-9 -44h-64zM389.998 177.996c0 30 -7.33203 55.168 -21.999 75.501s-32.334 39.166 -53.001 56.499l-54 -252c40 2.66699 71.5 14.667 94.5 36s34.5 49.333 34.5 84zM235.999 533.997c0 -25.333 6.66797 -46.832 20.001 -64.499
s29.666 -34.167 48.999 -49.5l47 221c-38 -2.66699 -66.833 -13.834 -86.5 -33.501s-29.5 -44.167 -29.5 -73.5z" />
    <glyph glyph-name="percent" unicode="%" horiz-adv-x="736" 
d="M60 490c0 38.667 5.83301 72.001 17.5 100.001s26.5 51 44.5 69s38 31.333 60 40s43.667 13 65 13c38 0 66.833 -10.333 86.5 -31s29.5 -50 29.5 -88c0 -36 -5 -67.667 -15 -95s-23.5 -50.333 -40.5 -69s-37 -32.834 -60 -42.501s-47.167 -14.5 -72.5 -14.5
c-34 0 -61.667 10.333 -83 31s-32 49.667 -32 87zM129 498.001c0 -21.333 4.83398 -38.002 14.501 -50.002s24.167 -18 43.5 -18c14 0 27.5 3.66699 40.5 11s24.5 17.833 34.5 31.5s17.833 30.334 23.5 50.001s8.5 41.834 8.5 66.501c0 23.333 -5.16699 40 -15.5 50
s-24.833 15 -43.5 15c-14 0 -27.5 -4.16699 -40.5 -12.5s-24.333 -19.5 -34 -33.5s-17.334 -30.5 -23.001 -49.5s-8.5 -39.167 -8.5 -60.5zM386.001 118.999c0 38.667 5.83301 72.001 17.5 100.001s26.5 51 44.5 69s38 31.333 60 40s43.667 13 65 13
c38 0 66.833 -10.333 86.5 -31s29.5 -50 29.5 -88c0 -36 -5 -67.667 -15 -95s-23.5 -50.333 -40.5 -69s-37 -32.834 -60 -42.501s-47.167 -14.5 -72.5 -14.5c-34 0 -61.667 10.333 -83 31s-32 49.667 -32 87zM455.001 127c0 -21.333 4.83398 -38.002 14.501 -50.002
s24.167 -18 43.5 -18c14 0 27.5 3.66699 40.5 11s24.5 17.833 34.5 31.5s17.833 30.334 23.5 50.001s8.5 41.834 8.5 66.501c0 23.333 -5.16699 40 -15.5 50s-24.833 15 -43.5 15c-14 0 -27.5 -4.16699 -40.5 -12.5s-24.333 -19.5 -34 -33.5s-17.334 -30.5 -23.001 -49.5
s-8.5 -39.167 -8.5 -60.5zM601.002 712.998l50 -39l-513 -686l-50 39z" />
    <glyph glyph-name="ampersand" unicode="&#x26;" horiz-adv-x="772" 
d="M87 148c0 31.333 6.5 61.3281 19.5 89.9951s29.833 55.334 50.5 80.001s44 46.834 70 66.501s52 36.167 78 49.5c-4.66699 12 -8.66699 22.833 -12 32.5s-6.16602 19.334 -8.49902 29.001s-4 19.667 -5 30s-1.5 22.166 -1.5 35.499c0 18 3.33301 36 10 54
s17 34.167 31 48.5s31.5 26 52.5 35s46.167 13.5 75.5 13.5c23.333 0 42.166 -3.16699 56.499 -9.5s25.5 -14.166 33.5 -23.499s13.333 -19.666 16 -30.999s4 -22 4 -32c0 -38 -14.5 -73.167 -43.5 -105.5s-68.5 -62.166 -118.5 -89.499
c6.66699 -19.333 14.5 -39.166 23.5 -59.499s18.833 -40.5 29.5 -60.5s22 -39.833 34 -59.5s24 -37.834 36 -54.501c8.66699 8 17.834 18.167 27.501 30.5s19.167 25.333 28.5 39s18.333 27.834 27 42.501l24 42l53 -29c-6 -11.333 -14.333 -24.833 -25 -40.5l-34 -48
l-36 -47c-12 -15 -22.667 -27.5 -32 -37.5c21.333 -26.667 39.5 -47 54.5 -61s30.833 -26.333 47.5 -37l-58 -56c-15.333 8.66699 -31.666 21.334 -48.999 38.001s-34.333 36 -51 58c-14 -12 -29 -23.5 -45 -34.5s-33.333 -20.833 -52 -29.5s-38.834 -15.667 -60.501 -21
s-44.834 -8 -69.501 -8c-28 0 -53.167 4 -75.5 12s-41.333 19.167 -57 33.5s-27.667 31.166 -36 50.499s-12.5 40.666 -12.5 63.999zM460 130.995c-14 19.333 -27.499 40.3291 -40.499 62.9961s-25.167 45.334 -36.5 68.001s-21.5 44.5 -30.5 65.5s-16.5 39.5 -22.5 55.5
c-24 -15.333 -46 -31.666 -66 -48.999s-37.167 -35.166 -51.5 -53.499s-25.5 -37.166 -33.5 -56.499s-12 -39 -12 -59c0 -36 11 -63 33 -81s53 -27 93 -27c16 0 32 2.16699 48 6.5s31.333 10 46 17s28.167 14.833 40.5 23.5s23.166 17.667 32.499 27zM353.001 562.991
c0 -10 0.332031 -19.001 0.999023 -27.001s1.83398 -15.5 3.50098 -22.5s3.66699 -14.167 6 -21.5s5.5 -16 9.5 -26c38 22.667 66.5 44.334 85.5 65.001s28.5 43.667 28.5 69c0 13.333 -3.83301 24.666 -11.5 33.999s-20.834 14 -39.501 14
c-15.333 0 -28.166 -2.33301 -38.499 -7s-18.833 -11.167 -25.5 -19.5s-11.5 -17.666 -14.5 -27.999s-4.5 -20.5 -4.5 -30.5z" />
    <glyph glyph-name="quotesingle" unicode="'" horiz-adv-x="202" 
d="M143 700h74l-70 -193h-45z" />
    <glyph glyph-name="parenleft" unicode="(" horiz-adv-x="266" 
d="M145 -218c-36 52.667 -60.167 103.499 -72.5 152.499s-18.5 95.833 -18.5 140.5c0 67.333 7.66699 132 23 194s36 120 62 174s56 103.5 90 148.5s69.667 85.167 107 120.5l37 -35c-37.333 -42.667 -70.833 -87.167 -100.5 -133.5s-55.167 -94.5 -76.5 -144.5
s-37.333 -101.5 -48 -154.5s-16 -105.5 -16 -157.5c0 -44 4.5 -88.667 13.5 -134s24.167 -90.666 45.5 -135.999z" />
    <glyph glyph-name="parenright" unicode=")" horiz-adv-x="266" 
d="M137 708c15.333 -20 28.334 -42.335 39.001 -67.002s19.334 -49.667 26.001 -75s11.5 -50.5 14.5 -75.5s4.5 -48.833 4.5 -71.5c0 -66.667 -7.5 -131.167 -22.5 -193.5s-35.333 -120.666 -61 -174.999s-55.334 -104.166 -89.001 -149.499
s-68.834 -85.666 -105.501 -120.999l-38 35c32.667 35.333 63.167 75.666 91.5 120.999s53.5 93.166 75.5 143.499s39.333 102.333 52 156s19 105.5 19 155.5c0 65.333 -4.16699 120.333 -12.5 165s-22.833 84.334 -43.5 119.001z" />
    <glyph glyph-name="asterisk" unicode="*" horiz-adv-x="333" 
d="M161 715l25 -42l18 -56l21 57l24 40l48 -26l-25 -43l-47 -48l68 12h48v-56h-45l-65 12l46 -48l24 -39l-48 -28l-25 42l-24 61l-18 -58l-25 -42l-50 28l26 42l43 42l-59 -12h-50v56h50l63 -12l-45 44l-27 46z" />
    <glyph glyph-name="plus" unicode="+" horiz-adv-x="480" 
d="M55 374h176v181h72v-181h176v-72h-176v-181h-72v181h-176v72z" />
    <glyph glyph-name="comma" unicode="," horiz-adv-x="195" 
d="M17 35c0 17.333 5.66992 32.002 17.0029 44.002s27.666 18 48.999 18c16.667 0 29.5 -5.66699 38.5 -17s13.5 -24.333 13.5 -39c0 -20.667 -3.5 -40.834 -10.5 -60.501s-16.833 -37.834 -29.5 -54.501s-27.5 -31.5 -44.5 -44.5s-35.5 -23.167 -55.5 -30.5l-16 39
c25.333 9.33301 45.666 24 60.999 44s24.666 39.667 27.999 59c-2.66699 -1.33301 -6 -2 -10 -2c-9.33301 0 -18.5 4 -27.5 12s-13.5 18.667 -13.5 32z" />
    <glyph glyph-name="hyphen" unicode="-" horiz-adv-x="342" 
d="M79 322h230l-17 -68h-229z" />
    <glyph glyph-name="period" unicode="." horiz-adv-x="211" 
d="M35 46c0 18 5.33301 32.167 16 42.5s24.667 15.5 42 15.5s31.333 -5.16699 42 -15.5s16 -24.5 16 -42.5c0 -17.333 -5.33301 -31.333 -16 -42s-24.667 -16 -42 -16s-31.333 5.33301 -42 16s-16 24.667 -16 42z" />
    <glyph glyph-name="slash" unicode="/" horiz-adv-x="336" 
d="M428 712l57 -31l-521 -825l-57 32z" />
    <glyph glyph-name="zero" unicode="0" 
d="M57 219c0 70 7.49902 135.166 22.499 195.499s35.667 112.5 62 156.5s57.833 78.5 94.5 103.5s77 37.5 121 37.5c56.667 0 100.334 -18.333 131.001 -55s46 -95 46 -175c0 -60 -6.5 -119.333 -19.5 -178s-32 -111.5 -57 -158.5s-55.833 -85 -92.5 -114
s-79 -43.5 -127 -43.5c-34 0 -62.5 6.5 -85.5 19.5s-41.667 30.333 -56 52s-24.5 46.334 -30.5 74.001s-9 56.167 -9 85.5zM134.999 222.999c0 -34 3.33301 -61.8301 10 -83.4971s15.5 -38.334 26.5 -50.001s23.333 -19.834 37 -24.501s27.5 -7 41.5 -7
c30 0 57.667 11.833 83 35.5s47 55.167 65 94.5s32.167 83.666 42.5 132.999s15.5 99.666 15.5 150.999c0 57.333 -8 100 -24 128s-45 42 -87 42c-26.667 0 -52.5 -10.333 -77.5 -31s-47.333 -49.667 -67 -87s-35.5 -81.666 -47.5 -132.999s-18 -107.333 -18 -168z" />
    <glyph glyph-name="one" unicode="1" 
d="M78 74h133l104 484l22 59l-49 -47l-120 -79l-28 51l247 170h34l-136 -638h130l-15 -74h-337z" />
    <glyph glyph-name="two" unicode="2" 
d="M515 571c0 -34.667 -9.66602 -72.335 -28.999 -113.002s-43.833 -81.5 -73.5 -122.5s-62.167 -81 -97.5 -120s-69.333 -74.167 -102 -105.5l-55 -43v-4l62 11h205l-14 -74h-379l6 29l64.5 62.5l84 83l89.5 95.5c30 33.333 57.167 66.833 81.5 100.5
s43.666 66.167 57.999 97.5s21.5 60.333 21.5 87c0 12.667 -1.33301 24.334 -4 35.001s-7 19.834 -13 27.501s-14.667 13.667 -26 18s-26 6.5 -44 6.5c-24 0 -47.333 -4.83301 -70 -14.5s-46.667 -22.834 -72 -39.501l-21 60c32 23.333 62.667 39.833 92 49.5
s61.333 14.5 96 14.5c46.667 0 81.667 -13.167 105 -39.5s35 -60.166 35 -101.499z" />
    <glyph glyph-name="three" unicode="3" 
d="M192 58c31.333 0 58.8301 4.99805 82.4971 14.998s43 23.167 58 39.5s26.5 35 34.5 56s12 42.5 12 64.5c0 34.667 -8.66699 61.334 -26 80.001s-49.666 28 -96.999 28h-72l6 29l182 222l52 44l-63 -10h-185l14 74h340l-6 -29l-201 -242l-39 -29v-2l33 7
c18.667 0 36.334 -3.16699 53.001 -9.5s31.5 -16 44.5 -29s23.333 -29.5 31 -49.5s11.5 -44 11.5 -72c0 -36 -5.83301 -69.5 -17.5 -100.5s-29 -58.167 -52 -81.5s-51.833 -41.666 -86.5 -54.999s-75 -20 -121 -20c-28.667 0 -54.5 2.33301 -77.5 7s-42.833 10.667 -59.5 18
l36 71c13.333 -7.33301 29.333 -13.5 48 -18.5s40.334 -7.5 65.001 -7.5z" />
    <glyph glyph-name="four" unicode="4" 
d="M514 215h-113l-45 -215h-73l45 215h-294l7 33l415 463h51l-91 -428h112zM390 503l27 82h-4l-47 -68l-173 -191l-55 -50l67 7h138z" />
    <glyph glyph-name="five" unicode="5" 
d="M186 58c30 0 56.8311 4.83203 80.498 14.499s43.834 23 60.501 40s29.334 36.833 38.001 59.5s12.667 47.667 12 75c0.666992 38 -9.5 66.333 -30.5 85s-55.5 28 -103.5 28l-80 -5l73 345h296l-16 -74h-225l-43 -200h7c4 0 8.66699 0.333008 14 1
c6 0 12.333 0.333008 19 1c31.333 0 57.666 -4.83301 78.999 -14.5s38.5 -22.167 51.5 -37.5s22.333 -33.166 28 -53.499s8.5 -40.833 8.5 -61.5c0 -51.333 -8.33301 -94.5 -25 -129.5s-38.5 -63.167 -65.5 -84.5s-57.333 -36.5 -91 -45.5s-67.834 -13.5 -102.501 -13.5
c-26.667 0 -50.167 2 -70.5 6s-38.166 9.66699 -53.499 17l34 69c14 -6 28.833 -11.167 44.5 -15.5s35.834 -6.5 60.501 -6.5z" />
    <glyph glyph-name="six" unicode="6" 
d="M483 244c0 -37.333 -5.49707 -71.5 -16.4971 -102.5s-27 -58 -48 -81s-46.333 -40.833 -76 -53.5s-62.834 -19 -99.501 -19c-22 0 -43.667 3.83301 -65 11.5s-40.5 20 -57.5 37s-30.833 39.167 -41.5 66.5s-16 61 -16 101c0 66.667 12.667 129.667 38 189
s58.333 111.5 99 156.5s86.667 81.833 138 110.5s103 46 155 52l4 -64c-36.667 -6 -73 -18.167 -109 -36.5s-69.167 -41 -99.5 -68s-57.166 -57.333 -80.499 -91s-41 -68.834 -53 -105.501c6.66699 8.66699 15.667 17.167 27 25.5s24.166 15.833 38.499 22.5
s29.666 11.834 45.999 15.501s33.166 5.5 50.499 5.5c48 0 87.667 -14.5 119 -43.5s47 -71.833 47 -128.5zM405.003 234c-1.33301 33.333 -10.332 60.667 -26.999 82s-44 32 -82 32c-15.333 0 -30.5 -2.16699 -45.5 -6.5s-29.333 -10.166 -43 -17.499s-26 -15.833 -37 -25.5
s-19.833 -19.834 -26.5 -30.501c-1.33301 -8.66699 -2.66602 -18.167 -3.99902 -28.5s-2 -19.5 -2 -27.5c0 -22 2.16699 -42.5 6.5 -61.5s11.166 -35.5 20.499 -49.5s21 -25 35 -33s31 -12 51 -12c26.667 0 49.667 5.16699 69 15.5s35.166 23.833 47.499 40.5
s21.333 35.667 27 57s9.16699 43 10.5 65z" />
    <glyph glyph-name="seven" unicode="7" 
d="M69 0l362 586l52 49l-58 -9h-265l15 74h397l-5 -27l-416 -673h-82z" />
    <glyph glyph-name="eight" unicode="8" 
d="M61 146c0 46 15.1699 88.4961 45.5029 127.496s73.166 70.167 128.499 93.5c-10.667 8.66699 -20.834 17.5 -30.501 26.5s-18.334 19.333 -26.001 31s-13.834 25.167 -18.501 40.5s-7 34 -7 56c0 30.667 5.83301 57.834 17.5 81.501s27.334 43.667 47.001 60
s42.5 28.666 68.5 36.999s53 12.5 81 12.5c22 0 42.667 -3.16699 62 -9.5s36 -15.666 50 -27.999s25 -27.666 33 -45.999s12 -39.5 12 -63.5c0 -20 -3.83301 -39.833 -11.5 -59.5s-18.334 -38.167 -32.001 -55.5s-29.667 -33.5 -48 -48.5s-38.5 -28.5 -60.5 -40.5
c12 -10 23.5 -20.5 34.5 -31.5s20.5 -23 28.5 -36s14.5 -27.333 19.5 -43s7.5 -33.167 7.5 -52.5c0 -28 -4.5 -54.667 -13.5 -80s-23 -47.666 -42 -66.999s-43.333 -34.666 -73 -45.999s-65.5 -17 -107.5 -17c-27.333 0 -51.166 4.16699 -71.499 12.5s-37.5 19.5 -51.5 33.5
s-24.5 30.667 -31.5 50s-10.5 40 -10.5 62zM384.003 182.996c0 18.667 -2.49902 35.165 -7.49902 49.498s-11.5 27.333 -19.5 39s-18.333 22.5 -31 32.5s-26.334 19.667 -41.001 29c-44 -20.667 -79.333 -46 -106 -76s-40 -64 -40 -102c0 -12 1.66699 -24 5 -36
s8.83301 -22.5 16.5 -31.5s18.334 -16.167 32.001 -21.5s30.5 -8 50.5 -8c18.667 0 36.5 2.5 53.5 7.5s32.167 12.833 45.5 23.5s23.666 23.834 30.999 39.501s11 33.834 11 54.501zM231.004 524.994c0 -32 7.99805 -57.832 23.998 -77.499s38 -38.167 66 -55.5
c16.667 10.667 32.667 22.5 48 35.5s28.5 26.333 39.5 40s20 27.5 27 41.5s10.5 28 10.5 42c0 31.333 -7.66699 54.333 -23 69s-37 22 -65 22c-17.333 0 -33.666 -2.5 -48.999 -7.5s-28.666 -12.5 -39.999 -22.5s-20.5 -22.333 -27.5 -37s-10.5 -31.334 -10.5 -50.001z" />
    <glyph glyph-name="nine" unicode="9" 
d="M106 467c0 38.667 5.99707 73.167 17.9971 103.5s28.833 56 50.5 77s47 37 76 48s60.5 16.5 94.5 16.5c24.667 0 48 -4.5 70 -13.5s41.333 -22.5 58 -40.5s29.667 -40.167 39 -66.5s14 -56.833 14 -91.5c0 -76.667 -13.5 -145.5 -40.5 -206.5s-61.5 -113.333 -103.5 -157
s-88.333 -78.167 -139 -103.5s-99.334 -40.333 -146.001 -45l-4 64c42 9.33301 80.833 23 116.5 41s67.834 39.5 96.501 64.5s53.334 53 74.001 84s37 64.167 49 99.5c-21.333 -18.667 -44.666 -32.834 -69.999 -42.501s-57.333 -14.5 -96 -14.5
c-18 0 -36.167 3.33301 -54.5 10s-35.166 17.334 -50.499 32.001s-27.833 33.667 -37.5 57s-14.5 51.333 -14.5 84zM183.997 476c0 -24 3.66699 -44 11 -60s16.166 -28.667 26.499 -38s21.666 -16 33.999 -20s24.5 -6 36.5 -6c30.667 0 59.834 6 87.501 18
s48.834 26.667 63.501 44c0.666992 4 1.5 9.66699 2.5 17l3 22c1 7.33301 1.66699 14.5 2 21.5s0.5 12.167 0.5 15.5c0 46.667 -10 84 -30 112s-49.667 42 -89 42c-19.333 0 -37.833 -3.33301 -55.5 -10s-33.167 -17 -46.5 -31s-24.333 -31.5 -33 -52.5
s-13 -45.833 -13 -74.5z" />
    <glyph glyph-name="colon" unicode=":" horiz-adv-x="267" 
d="M173 449c0 18 5.33301 32.167 16 42.5s24.667 15.5 42 15.5s31.333 -5.16699 42 -15.5s16 -24.5 16 -42.5c0 -17.333 -5.33301 -31.333 -16 -42s-24.667 -16 -42 -16s-31.333 5.33301 -42 16s-16 24.667 -16 42zM89 46c0 18 5.33301 32.167 16 42.5s24.667 15.5 42 15.5
s31.333 -5.16699 42 -15.5s16 -24.5 16 -42.5c0 -17.333 -5.33301 -31.333 -16 -42s-24.667 -16 -42 -16s-31.333 5.33301 -42 16s-16 24.667 -16 42z" />
    <glyph glyph-name="semicolon" unicode=";" horiz-adv-x="273" 
d="M92 35c0 17.333 5.66992 32.002 17.0029 44.002s27.666 18 48.999 18c16.667 0 29.5 -5.66699 38.5 -17s13.5 -24.333 13.5 -39c0 -20.667 -3.5 -40.834 -10.5 -60.501s-16.833 -37.834 -29.5 -54.501s-27.5 -31.5 -44.5 -44.5s-35.5 -23.167 -55.5 -30.5l-16 39
c25.333 9.33301 45.666 24 60.999 44s24.666 39.667 27.999 59c-2.66699 -1.33301 -6 -2 -10 -2c-9.33301 0 -18.5 4 -27.5 12s-13.5 18.667 -13.5 32zM179.003 449.002c0 18 5.33301 32.167 16 42.5s24.667 15.5 42 15.5s31.333 -5.16699 42 -15.5s16 -24.5 16 -42.5
c0 -17.333 -5.33301 -31.333 -16 -42s-24.667 -16 -42 -16s-31.333 5.33301 -42 16s-16 24.667 -16 42z" />
    <glyph glyph-name="less" unicode="&#x3c;" horiz-adv-x="480" 
d="M54 305v29l379 231l38 -62l-237 -145l-91 -38l90 -32l243 -144l-38 -60z" />
    <glyph glyph-name="equal" unicode="=" horiz-adv-x="480" 
d="M55 457h424v-72h-424v72zM55 291h424v-72h-424v72z" />
    <glyph glyph-name="greater" unicode="&#x3e;" horiz-adv-x="480" 
d="M478 344v-29l-379 -231l-38 61l237 145l91 38l-90 32l-243 144l38 61z" />
    <glyph glyph-name="question" unicode="?" horiz-adv-x="414" 
d="M123 177c3.33301 33.333 11.6699 62.5029 25.0029 87.5029s28.833 47.667 46.5 68s36.5 39.333 56.5 57s38.167 35.334 54.5 53.001s30 36.667 41 57s16.5 43.5 16.5 69.5c0 25.333 -6.83301 44.833 -20.5 58.5s-37.5 20.5 -71.5 20.5c-23.333 0 -46.5 -4.5 -69.5 -13.5
s-44.167 -19.167 -63.5 -30.5l-19 58c13.333 8 26.166 15 38.499 21s25.5 11.167 39.5 15.5s29.167 7.66602 45.5 9.99902s35.166 3.5 56.499 3.5c49.333 0 85.666 -11.333 108.999 -34s35 -52 35 -88s-5.66699 -67.167 -17 -93.5s-25.666 -49.833 -42.999 -70.5
s-36.5 -39.834 -57.5 -57.501s-41 -35.834 -60 -54.501s-35.833 -38.834 -50.5 -60.501s-24.334 -47.167 -29.001 -76.5h-63zM80.0039 46.0029c0 18 5.33301 32.167 16 42.5s24.667 15.5 42 15.5s31.333 -5.16699 42 -15.5s16 -24.5 16 -42.5
c0 -17.333 -5.33301 -31.333 -16 -42s-24.667 -16 -42 -16s-31.333 5.33301 -42 16s-16 24.667 -16 42z" />
    <glyph glyph-name="at" unicode="@" horiz-adv-x="1064" 
d="M736 491l33.9941 0.00390625l-51 -287c-3.33301 -17.333 -5.83301 -32.833 -7.5 -46.5s-2.5 -25.834 -2.5 -36.501c0 -16.667 2.83301 -29 8.5 -37s15.834 -12 30.501 -12c22.667 0 45 6 67 18s41.833 29 59.5 51s32 48.667 43 80s16.5 66.333 16.5 105
c0 51.333 -8.66699 96.666 -26 135.999s-41.666 72.5 -72.999 99.5s-68.666 47.5 -111.999 61.5s-91 21 -143 21c-54.667 0 -105.667 -10 -153 -30s-88.666 -47.667 -123.999 -83s-63.166 -77.666 -83.499 -126.999s-30.5 -103 -30.5 -161
c0 -59.333 9.16699 -112.333 27.5 -159s44.5 -86 78.5 -118s74.667 -56.333 122 -73s100 -25 158 -25c19.333 0 41.333 2.33301 66 7s47 11.667 67 21l20 -64c-29.333 -12.667 -56.833 -21.167 -82.5 -25.5s-53.167 -6.5 -82.5 -6.5c-62 0 -120 9.33301 -174 28
s-101.333 46.334 -142 83.001s-72.667 82.167 -96 136.5s-35 117.166 -35 188.499c0 72.667 12.5 138.334 37.5 197.001s58.833 108.667 101.5 150s92.334 73.166 149.001 95.499s116.667 33.5 180 33.5c60 0 115.667 -8.83301 167 -26.5s96 -43 134 -76
s67.667 -73.333 89 -121s32 -101.834 32 -162.501c0 -42.667 -7.33301 -83.5 -22 -122.5s-34.5 -73.167 -59.5 -102.5s-54.167 -52.833 -87.5 -70.5s-68.666 -26.5 -105.999 -26.5c-28 0 -50.167 6 -66.5 18s-24.5 34.333 -24.5 67c0 6 0.333008 12.5 1 19.5
s1.66699 14.5 3 22.5h-4c-10 -15.333 -21.333 -30.5 -34 -45.5s-26.834 -28.5 -42.501 -40.5s-32.334 -21.833 -50.001 -29.5s-36.167 -11.5 -55.5 -11.5c-16 0 -31.167 3.5 -45.5 10.5s-26.833 17.167 -37.5 30.5s-19.167 29.166 -25.5 47.499s-9.5 39.166 -9.5 62.499
c0 42.667 7 84.667 21 126s32.833 78 56.5 110s51.334 57.833 83.001 77.5s65.167 29.5 100.5 29.5c24 0 43.5 -3.66699 58.5 -11s29.5 -16.333 43.5 -27zM679.994 393.004c-11.333 13.333 -22.832 22.833 -34.499 28.5s-26.167 8.5 -43.5 8.5c-26 0 -50.333 -8 -73 -24
s-42.167 -36.5 -58.5 -61.5s-29.333 -53.167 -39 -84.5s-14.5 -62 -14.5 -92c0 -26 5.33301 -48.5 16 -67.5s30 -28.5 58 -28.5c13.333 0 27.166 4.66699 41.499 14s28.5 21.5 42.5 36.5s27.5 31.833 40.5 50.5s24.5 37.667 34.5 57z" />
    <glyph glyph-name="A" unicode="A" horiz-adv-x="557" 
d="M404 194h-244l-108 -194h-85l404 711h37l101 -711h-77zM199 266h197l-29 213l-2 106h-1l-45 -108z" />
    <glyph glyph-name="B" unicode="B" horiz-adv-x="556" 
d="M561 551c0 -26 -4.00098 -49.667 -12.001 -71s-19.333 -40 -34 -56s-31.834 -28.833 -51.501 -38.5s-40.834 -16.167 -63.501 -19.5v-4c14.667 -3.33301 28.667 -8.83301 42 -16.5s25 -17.167 35 -28.5s18 -24.5 24 -39.5s9 -31.5 9 -49.5
c0 -46.667 -9.16699 -85.167 -27.5 -115.5s-41.666 -54.5 -69.999 -72.5s-60 -30.5 -95 -37.5s-69.5 -10.5 -103.5 -10.5h-38.5c-15 0 -34.167 0.666992 -57.5 2c-40 4 -66 7.66699 -78 11l146 689c25.333 4 53.833 7.33301 85.5 10s65.834 4 102.501 4
c24.667 0 48.334 -3.16699 71.001 -9.5s42.5 -15.833 59.5 -28.5s30.667 -29 41 -49s15.5 -43.333 15.5 -70zM235.999 64c23.333 0 46.333 2.83301 69 8.5s43 14.5 61 26.5s32.5 27.667 43.5 47s16.5 43 16.5 71c0 20.667 -5 37.834 -15 51.501s-23 24.5 -39 32.5
s-34.167 13.5 -54.5 16.5s-40.833 4.5 -61.5 4.5h-70l-53 -251c4 -1.33301 10.167 -2.33301 18.5 -3s17.333 -1.33398 27 -2.00098s19.667 -1.16699 30 -1.5s19.5 -0.5 27.5 -0.5zM252.999 390c11.333 0 24.6689 0.167969 40.002 0.500977s28.333 1.16602 39 2.49902
c15.333 3.33301 31.666 8 48.999 14s33.166 14.5 47.499 25.5s26 25 35 42s13.5 38.167 13.5 63.5c0 18.667 -2.83301 34.167 -8.5 46.5s-14 22.333 -25 30s-24.167 13.167 -39.5 16.5s-32.333 5 -51 5c-21.333 0 -41.333 -0.5 -60 -1.5s-32.667 -2.5 -42 -4.5l-51 -240h53z
" />
    <glyph glyph-name="C" unicode="C" horiz-adv-x="544" 
d="M480 29c-22.667 -15.333 -46.6709 -26.002 -72.0039 -32.002s-54.666 -9 -87.999 -9c-39.333 0 -74.333 7.16699 -105 21.5s-56.667 34.333 -78 60s-37.666 55.834 -48.999 90.501s-17 72.667 -17 114c0 75.333 11 140.5 33 195.5s51 100.5 87 136.5
s76.5 62.667 121.5 80s90.5 26 136.5 26c38 0 69 -2.66699 93 -8s43.667 -11.666 59 -18.999l-36 -73c-13.333 7.33301 -30.833 13.5 -52.5 18.5s-46.5 7.5 -74.5 7.5c-37.333 0 -73.166 -8.16699 -107.499 -24.5s-64.5 -39.833 -90.5 -70.5s-46.667 -68 -62 -112
s-23 -93.333 -23 -148c0 -32 4.16699 -61.5 12.5 -88.5s20.333 -50.333 36 -70s35 -35 58 -46s49.167 -16.5 78.5 -16.5c31.333 0 57.333 3.5 78 10.5s39.334 15.167 56.001 24.5z" />
    <glyph glyph-name="D" unicode="D" horiz-adv-x="622" 
d="M189 700c25.333 3.33301 54.001 5.49609 86.001 6.49609s61 1.5 87 1.5c39.333 0 75 -5.16699 107 -15.5s59.167 -26.166 81.5 -47.499s39.5 -48.333 51.5 -81s18 -71 18 -115c0 -29.333 -2.66699 -61.166 -8 -95.499s-14.166 -68.333 -26.499 -102
s-28.833 -66.167 -49.5 -97.5s-46.334 -59.166 -77.001 -83.499s-66.667 -43.666 -108 -57.999s-89 -21.5 -143 -21.5c-10 0 -23.167 0.166992 -39.5 0.5s-32.5 0.833008 -48.5 1.5c-46.667 2.66699 -73.334 4.66699 -80.001 6zM356.001 633.996
c-8 0 -16.9971 -0.166992 -26.9971 -0.5l-29 -1c-9.33301 -0.333008 -18.333 -0.833008 -27 -1.5s-15.334 -1.33398 -20.001 -2.00098l-118 -560c2.66699 -0.666992 8 -1.16699 16 -1.5s16.5 -0.666016 25.5 -0.999023l26 -1c8.33301 -0.333008 14.166 -0.5 17.499 -0.5
c58 0 107 12 147 36s72.5 54.333 97.5 91s43.167 77 54.5 121s17 85.667 17 125c0 30 -3.33301 57 -10 81s-17.167 44.5 -31.5 61.5s-32.833 30.167 -55.5 39.5s-50.334 14 -83.001 14z" />
    <glyph glyph-name="E" unicode="E" horiz-adv-x="510" 
d="M189 700h361l-15 -74h-283l-49 -229h259l-15 -74h-259l-53 -249h288l-16 -74h-288h-79z" />
    <glyph glyph-name="F" unicode="F" horiz-adv-x="492" 
d="M189 700h361l-15 -74h-283l-51 -239h264l-15 -74h-264l-66 -313h-80z" />
    <glyph glyph-name="G" unicode="G" horiz-adv-x="583" 
d="M375 349l116.002 0.00195312h68l-65 -308c-47.333 -35.333 -106 -53 -176 -53c-33.333 0 -64.833 6 -94.5 18s-55.834 29.833 -78.501 53.5s-40.667 53.167 -54 88.5s-20 76.666 -20 123.999c0 82 12 151 36 207s54.833 101.167 92.5 135.5s79.167 59.166 124.5 74.499
s89.333 23 132 23c38 0 69.5 -2.5 94.5 -7.5s45.167 -11.167 60.5 -18.5l-35 -73c-13.333 7.33301 -31.166 13.333 -53.499 18s-47.5 7 -75.5 7c-38.667 0 -75.5 -7.5 -110.5 -22.5s-66 -37.5 -93 -67.5s-48.5 -67.167 -64.5 -111.5s-24 -95.833 -24 -154.5
c0 -30 3.66699 -58.333 11 -85s18.5 -50 33.5 -70s33.667 -35.833 56 -47.5s48.833 -17.5 79.5 -17.5c21.333 0 39.666 2.16699 54.999 6.5s30.666 10.5 45.999 18.5l41 195l-112 20z" />
    <glyph glyph-name="H" unicode="H" horiz-adv-x="639" 
d="M505 321h-318l-67 -321h-80l148 700h80l-64 -305h317l64 305h80l-148 -700h-80z" />
    <glyph glyph-name="I" unicode="I" horiz-adv-x="277" 
d="M210 700h80l-148 -700h-80z" />
    <glyph glyph-name="J" unicode="J" horiz-adv-x="278" 
d="M222 700l80.001 0.000976562l-116 -546c-6 -26.667 -13.167 -50.167 -21.5 -70.5s-19 -37.5 -32 -51.5s-29 -24.5 -48 -31.5s-41.833 -10.5 -68.5 -10.5c-5.33301 0 -11.5 0.333008 -18.5 1s-14.167 1.66699 -21.5 3s-14.333 3 -21 5s-12 4.33301 -16 7l30 71
c12.667 -8.66699 30.667 -13 54 -13c14 0 25.667 2.5 35 7.5s17.333 12.333 24 22s12.167 21.167 16.5 34.5s8.16602 28.666 11.499 45.999z" />
    <glyph glyph-name="K" unicode="K" horiz-adv-x="576" 
d="M239 324h-51l-68 -324h-80l148 700h80l-70 -326l40 14l287 312h99l-286 -304l-46 -31l39 -40l175 -325h-91z" />
    <glyph glyph-name="L" unicode="L" horiz-adv-x="492" 
d="M434 0h-316h-78l148 700h80l-133 -626h314z" />
    <glyph glyph-name="M" unicode="M" horiz-adv-x="754" 
d="M651 470l31 105h-4l-56 -96l-240 -316h-24l-115 316l-15 96h-4l-8 -104l-100 -471h-76l149 700h55l130 -358l15 -78h1l46 80l273 356h71l-149 -700h-80z" />
    <glyph glyph-name="N" unicode="N" horiz-adv-x="642" 
d="M261 458l-34 103h-3l-12 -103l-97 -458h-75l151 711h40l218 -468l33 -98h4l9 98l98 457h75l-151 -711h-37z" />
    <glyph glyph-name="O" unicode="O" horiz-adv-x="651" 
d="M71 256c0 61.333 8.33301 119.668 25 175.001s40.5 103.833 71.5 145.5s68.333 74.667 112 99s92.167 36.5 145.5 36.5c32 0 61.667 -4.83301 89 -14.5s50.833 -25 70.5 -46s35 -48.167 46 -81.5s16.5 -74 16.5 -122c0 -62.667 -8.33301 -121.834 -25 -177.501
s-40 -104.5 -70 -146.5s-65.833 -75.167 -107.5 -99.5s-87.5 -36.5 -137.5 -36.5c-78.667 0 -137.667 22.833 -177 68.5s-59 112.167 -59 199.5zM155 257.002c0 -62.667 12.998 -111.167 38.998 -145.5s64.333 -51.5 115 -51.5c37.333 0 71.5 10.333 102.5 31
s57.833 48.667 80.5 84s40.167 76.333 52.5 123s18.5 96 18.5 148c0 38.667 -4.33301 70.667 -13 96s-20.167 45.166 -34.5 59.499s-30.666 24.333 -48.999 30s-36.833 8.5 -55.5 8.5c-38 0 -72.667 -10.5 -104 -31.5s-58.166 -49.167 -80.499 -84.5
s-39.833 -76.166 -52.5 -122.499s-19 -94.5 -19 -144.5z" />
    <glyph glyph-name="P" unicode="P" horiz-adv-x="532" 
d="M187 693c25.333 6 52 10 80 12s55.667 3 83 3c30.667 0 59.167 -3.33301 85.5 -10s49.166 -17.334 68.499 -32.001s34.5 -33.5 45.5 -56.5s16.5 -50.5 16.5 -82.5c0 -50.667 -9.16699 -93 -27.5 -127s-42.333 -61.167 -72 -81.5s-63.167 -34.833 -100.5 -43.5
s-75 -13 -113 -13h-15.5c-7 0 -14.5 0.166992 -22.5 0.5s-15.667 0.833008 -23 1.5s-12.666 1.33398 -15.999 2.00098l-56 -266h-80zM333 636c-15.333 0 -30.168 -0.498047 -44.501 -1.49805s-26.166 -2.5 -35.499 -4.5l-61 -291
c2.66699 -1.33301 7.16699 -2.16602 13.5 -2.49902s13 -0.833008 20 -1.5s13.833 -1 20.5 -1h15c28.667 0 56.334 3 83.001 9s50.167 16.333 70.5 31s36.666 33.667 48.999 57s18.5 52.666 18.5 87.999c0 24 -4 43.667 -12 59s-18.833 27.166 -32.5 35.499
s-29.5 14.166 -47.5 17.499s-37 5 -57 5z" />
    <glyph glyph-name="Q" unicode="Q" horiz-adv-x="651" 
d="M633 -171c-16 -4.66699 -31.5 -7.83301 -46.5 -9.5s-29.833 -2.5 -44.5 -2.5c-32 0 -62.333 3.5 -91 10.5s-56.167 14.5 -82.5 22.5l-76 22.5c-24.333 7 -48.166 10.5 -71.499 10.5c-7.33301 0 -14.833 -0.333008 -22.5 -1s-15.167 -2 -22.5 -4l15 73c18 4 35.667 6 53 6
c26.667 0 52.334 -3.5 77.001 -10.5l75.5 -22.5c25.667 -8 52.167 -15.5 79.5 -22.5s56.666 -10.5 87.999 -10.5c27.333 0 55.666 3.33301 84.999 10zM71 256.001c0 61.333 8.33301 119.668 25 175.001s40.5 103.833 71.5 145.5s68.333 74.667 112 99
s92.167 36.5 145.5 36.5c32 0 61.667 -4.83301 89 -14.5s50.833 -25 70.5 -46s35 -48.167 46 -81.5s16.5 -74 16.5 -122c0 -62.667 -8.33301 -121.834 -25 -177.501s-40 -104.5 -70 -146.5s-65.833 -75.167 -107.5 -99.5s-87.5 -36.5 -137.5 -36.5
c-78.667 0 -137.667 22.833 -177 68.5s-59 112.167 -59 199.5zM155 257.003c0 -62.667 12.998 -111.167 38.998 -145.5s64.333 -51.5 115 -51.5c37.333 0 71.5 10.333 102.5 31s57.833 48.667 80.5 84s40.167 76.333 52.5 123s18.5 96 18.5 148
c0 38.667 -4.33301 70.667 -13 96s-20.167 45.166 -34.5 59.499s-30.666 24.333 -48.999 30s-36.833 8.5 -55.5 8.5c-38 0 -72.667 -10.5 -104 -31.5s-58.166 -49.167 -80.499 -84.5s-39.833 -76.166 -52.5 -122.499s-19 -94.5 -19 -144.5z" />
    <glyph glyph-name="R" unicode="R" horiz-adv-x="568" 
d="M187 693c28 5.33301 54.999 9.16699 80.999 11.5s52 3.5 78 3.5c25.333 0 50 -3.16699 74 -9.5s45.167 -16.333 63.5 -30s33 -31.5 44 -53.5s16.5 -48.667 16.5 -80c0 -58.667 -17.167 -107.5 -51.5 -146.5s-84.166 -64.167 -149.499 -75.5l36 -36l108 -277h-87l-120 302
l-94 15l-66 -317h-80zM340.999 636.001c-16 0 -32.001 -0.498047 -48.001 -1.49805s-29.333 -2.5 -40 -4.5l-55 -258h69c24 0 47.5 2.33301 70.5 7s43.667 13 62 25s33 28.333 44 49s16.5 46.667 16.5 78c0 12 -2.33301 24.167 -7 36.5s-11.667 23.666 -21 33.999
s-21.666 18.666 -36.999 24.999s-33.333 9.5 -54 9.5z" />
    <glyph glyph-name="S" unicode="S" horiz-adv-x="505" 
d="M388 180c0 24 -6.16895 44.334 -18.502 61.001s-27.833 31.834 -46.5 45.501s-38.834 26.834 -60.501 39.501s-41.834 27.334 -60.501 44.001s-34.167 36.334 -46.5 59.001s-18.5 50.667 -18.5 84c0 35.333 6.5 65.666 19.5 90.999s30.667 46 53 62
s48.666 27.667 78.999 35s62.5 11 96.5 11c38.667 0 73.334 -3 104.001 -9s54.667 -13.667 72 -23l-40 -71c-13.333 7.33301 -33.166 14.333 -59.499 21s-56.833 10 -91.5 10c-44 0 -79.833 -10 -107.5 -30s-41.5 -49 -41.5 -87c0 -24.667 6.16699 -45.5 18.5 -62.5
s27.833 -32.333 46.5 -46s38.834 -26.834 60.501 -39.501s41.834 -27.167 60.501 -43.5s34.167 -35.833 46.5 -58.5s18.5 -50.334 18.5 -83.001c0 -64.667 -23.333 -114.5 -70 -149.5s-113.667 -52.5 -201 -52.5c-44.667 0 -82.5 3.83301 -113.5 11.5
s-54.5 16.167 -70.5 25.5l41 73c15.333 -8.66699 36.166 -17.167 62.499 -25.5s57.5 -12.5 93.5 -12.5c20.667 0 41.334 1.83301 62.001 5.5s39.334 10.167 56.001 19.5s30.167 21.666 40.5 36.999s15.5 34.666 15.5 57.999z" />
    <glyph glyph-name="T" unicode="T" horiz-adv-x="528" 
d="M602 626h-207l-132 -626h-80l132 626h-205l15 74h492z" />
    <glyph glyph-name="U" unicode="U" horiz-adv-x="618" 
d="M573 700l76 0.000976562l-98 -467c-9.33301 -42.667 -21 -79.334 -35 -110.001s-31.5 -55.667 -52.5 -75s-46.167 -33.666 -75.5 -42.999s-63.333 -14 -102 -14c-36.667 0 -67.667 4.16699 -93 12.5s-45.833 20 -61.5 35s-27 33.333 -34 55s-10.5 45.5 -10.5 71.5
c0 27.333 3.66699 58.333 11 93l93 442h80l-93 -443c-7.33301 -29.333 -11 -56 -11 -80c0 -42 11 -71.167 33 -87.5s54.667 -24.5 98 -24.5c26 0 48.833 3.66699 68.5 11s36.667 18.666 51 33.999s26.333 35 36 59s18.167 53 25.5 87z" />
    <glyph glyph-name="V" unicode="V" horiz-adv-x="541" 
d="M253 221v-107h2l45 109l265 477h86l-402 -711h-37l-108 711h82z" />
    <glyph glyph-name="W" unicode="W" horiz-adv-x="788" 
d="M214 233l-9 -116h1l39 118l235 465h43l37 -467l-9 -116h1l40 118l213 465h82l-336 -711h-44l-38 469l6 106h-4l-40 -107l-234 -468h-44l-39 711h82z" />
    <glyph glyph-name="X" unicode="X" horiz-adv-x="588" 
d="M289 358l-130 342h87l86 -237l12 -57l34 57l191 237h97l-279 -339l142 -361h-87l-96 251l-14 60l-38 -60l-204 -251h-97z" />
    <glyph glyph-name="Y" unicode="Y" horiz-adv-x="531" 
d="M241 278l-133 422h87l89 -306l3 -61h1l30 63l217 304h90l-304 -421l-59 -279h-80z" />
    <glyph glyph-name="Z" unicode="Z" 
d="M14 75l435 511l49 40h-366l15 74h447l-15 -75l-438 -514l-47 -37h367l-15 -74h-447z" />
    <glyph glyph-name="bracketleft" unicode="[" horiz-adv-x="291" 
d="M213 700h76h97l-15 -70h-97l-168 -790h98l-15 -70h-98h-75z" />
    <glyph glyph-name="backslash" unicode="\" horiz-adv-x="380" 
d="M449 -111l-66 -29l-342 824l69 28z" />
    <glyph glyph-name="bracketright" unicode="]" horiz-adv-x="291" 
d="M109 -230h-75h-97l15 70h96l167 790h-97l15 70h99h74z" />
    <glyph glyph-name="asciicircum" unicode="^" horiz-adv-x="500" 
d="M288 711h29l169 -276h-83l-79 135l-23 69l-31 -70l-93 -134h-75z" />
    <glyph glyph-name="underscore" unicode="_" horiz-adv-x="408" 
d="M-44 -137h408v-68h-408v68z" />
    <glyph glyph-name="grave" unicode="`" horiz-adv-x="238" 
d="M297 571h-43l-81 128l4 21h91z" />
    <glyph glyph-name="a" unicode="a" horiz-adv-x="487" 
d="M414 197c-5.33301 -24.667 -8.99902 -49.668 -10.999 -75.001s-3 -49 -3 -71v-28.5c0 -9 0.666992 -17.167 2 -24.5h-56l-14 87h-4c-8 -11.333 -17.833 -22.833 -29.5 -34.5s-24.5 -22.167 -38.5 -31.5s-29 -16.833 -45 -22.5s-33 -8.5 -51 -8.5
c-79.333 0 -119 51.667 -119 155c0 42.667 5.5 86 16.5 130s28 83.667 51 119s52.667 64.333 89 87s80.166 34 131.499 34c18.667 0 41.5 -2.16699 68.5 -6.5s52.167 -10.166 75.5 -17.499zM187.001 51.999c16 0 31.333 3.83398 46 11.501s28.5 17.167 41.5 28.5
s24.5 23.5 34.5 36.5s18 25.167 24 36.5l56 270c-20 9.33301 -45.333 14 -76 14s-57.667 -9 -81 -27s-43 -41.5 -59 -70.5s-28 -61.833 -36 -98.5s-12 -73.334 -12 -110.001c0 -25.333 5 -46.833 15 -64.5s25.667 -26.5 47 -26.5z" />
    <glyph glyph-name="b" unicode="b" horiz-adv-x="521" 
d="M185 700h74.999l-61 -286h4c9.33301 12 20 23.833 32 35.5s25.333 22.167 40 31.5s30.334 16.833 47.001 22.5s34.667 8.5 54 8.5c39.333 0 68 -13.833 86 -41.5s27 -62.5 27 -104.5c0 -60 -8.33301 -113.167 -25 -159.5s-38.667 -85.5 -66 -117.5
s-58.5 -56.333 -93.5 -73s-70.833 -25 -107.5 -25c-36 0 -67.5 4 -94.5 12s-46.833 17.333 -59.5 28zM351.999 448c-16.667 0 -33.665 -4.16992 -50.998 -12.5029s-33.833 -19.166 -49.5 -32.499s-30 -28.166 -43 -44.499s-23.5 -32.166 -31.5 -47.499l-50 -235
c20 -14 48.333 -21 85 -21c21.333 0 43.666 6.5 66.999 19.5s44.666 32 63.999 57s35.166 55.667 47.499 92s18.5 77.833 18.5 124.5c0 34 -5.16699 59.167 -15.5 75.5s-24.166 24.5 -41.499 24.5z" />
    <glyph glyph-name="c" unicode="c" horiz-adv-x="420" 
d="M365 43c-10 -8.66699 -21.4951 -16.333 -34.4951 -23s-26.333 -12.334 -40 -17.001s-27.167 -8.33398 -40.5 -11.001s-26 -4 -38 -4c-32.667 0 -59.5 5.16699 -80.5 15.5s-37.5 23.5 -49.5 39.5s-20.333 33.333 -25 52s-7 36.334 -7 53.001
c0 56.667 7.66699 107.5 23 152.5s35.833 83.167 61.5 114.5s55.167 55.333 88.5 72s67.666 25 102.999 25c25.333 0 46.166 -2.33301 62.499 -7s31.166 -10 44.499 -16l-28 -62c-11.333 6.66699 -25.333 11.834 -42 15.501s-34.667 5.5 -54 5.5
c-22.667 0 -44.834 -7.66699 -66.501 -23s-40.834 -35.5 -57.501 -60.5s-30 -53.667 -40 -86s-15 -65.5 -15 -99.5c0 -43.333 9 -75.333 27 -96s42.333 -31 73 -31c20 0 41 4.5 63 13.5s39.667 18.167 53 27.5z" />
    <glyph glyph-name="d" unicode="d" horiz-adv-x="509" 
d="M419 172c-5.33301 -26 -9.33496 -50.334 -12.002 -73.001s-4 -43.667 -4 -63c0 -7.33301 0.166992 -14 0.5 -20s0.833008 -12 1.5 -18h-50l-14 87h-4c-8 -11.333 -18 -22.833 -30 -34.5s-25.333 -22.167 -40 -31.5s-30.167 -16.833 -46.5 -22.5
s-33.166 -8.5 -50.499 -8.5c-36.667 0 -65.834 13.5 -87.501 40.5s-32.5 69.833 -32.5 128.5c0 39.333 5.66699 79.833 17 121.5s28 79.5 50 113.5s49.5 62 82.5 84s71.167 33 114.5 33c12 0 22.333 -0.333008 31 -1s16.834 -1.66699 24.501 -3
s14.834 -3.16602 21.501 -5.49902l21 -7.5l44 208h75zM197.998 51.999c14 0 28.3311 3.83008 42.998 11.4971s28.5 17.167 41.5 28.5s24.667 23.5 35 36.5s18.5 25.167 24.5 36.5l56 260c-11.333 7.33301 -24.166 12.5 -38.499 15.5s-33.166 4.5 -56.499 4.5
c-26.667 0 -50.667 -8.16699 -72 -24.5s-39.5 -38.166 -54.5 -65.499s-26.5 -58.666 -34.5 -93.999s-12 -71.666 -12 -108.999c0 -27.333 5.33301 -50.833 16 -70.5s28 -29.5 52 -29.5z" />
    <glyph glyph-name="e" unicode="e" horiz-adv-x="463" 
d="M389 49c-23.333 -20 -50.8301 -35.1689 -82.4971 -45.502s-63.5 -15.5 -95.5 -15.5c-53.333 0 -93.5 15.333 -120.5 46s-40.5 73.334 -40.5 128.001s7.66699 103.667 23 147s35.5 80 60.5 110s53.333 53 85 69s64.167 24 97.5 24c24 0 44.833 -3.33301 62.5 -10
s32.167 -15.5 43.5 -26.5s19.666 -23.667 24.999 -38s8 -29.5 8 -45.5c0 -47.333 -23 -84.5 -69 -111.5s-113 -40.5 -201 -40.5c-8 0 -16.333 0.166992 -25 0.5s-17.667 0.833008 -27 1.5c-2.66699 -12.667 -4.66699 -24.667 -6 -36s-2 -21.333 -2 -30
c0 -36.667 8.33301 -66.5 25 -89.5s42.667 -34.5 78 -34.5c29.333 0 56.166 4.83301 80.499 14.5s43.166 19.834 56.499 30.501zM304.003 447.998c-36.667 0 -68.498 -12.501 -95.498 -37.501s-47.5 -62.5 -61.5 -112.5c25.333 0 51.666 0.666992 78.999 2
s52.166 4.83301 74.499 10.5s40.833 14.667 55.5 27s22 29.5 22 51.5c0 6.66699 -1.16699 13.5 -3.5 20.5s-6.16602 13.333 -11.499 19s-12.833 10.334 -22.5 14.001s-21.834 5.5 -36.501 5.5z" />
    <glyph glyph-name="f" unicode="f" horiz-adv-x="278" 
d="M219 436l-80.0029 -470c-4 -24.667 -9.5 -47.5 -16.5 -68.5s-16.167 -39.333 -27.5 -55s-25.666 -28 -42.999 -37s-38.333 -13.5 -63 -13.5c-20 0 -38.5 1.5 -55.5 4.5s-32.833 8.16699 -47.5 15.5l22 56c13.333 -4.66699 25.5 -7.83398 36.5 -9.50098
s24.5 -2.5 40.5 -2.5c25.333 0 44.333 12.167 57 36.5s23.334 62.833 32.001 115.5l70 428h-77l13 64h73l13 67c4.66699 24.667 10.334 46 17.001 64s15.5 33 26.5 45s24.667 21 41 27s36.166 9 59.499 9c22 0 43.333 -2.16699 64 -6.5s39.334 -10.166 56.001 -17.499
l-22 -59c-32.667 12.667 -63.667 19 -93 19c-24.667 0 -42.667 -8.5 -54 -25.5s-20 -44.167 -26 -81.5l-7 -41h101l-12 -64h-98z" />
    <glyph glyph-name="g" unicode="g" horiz-adv-x="505" 
d="M385 -23c-14 -65.333 -38.167 -113.167 -72.5 -143.5s-79.833 -45.5 -136.5 -45.5c-43.333 0 -79 5.5 -107 16.5s-49.333 20.5 -64 28.5l33 56c5.33301 -2.66699 11.833 -6.16699 19.5 -10.5s17 -8.5 28 -12.5s24.333 -7.33301 40 -10s34.167 -4 55.5 -4
c33.333 0 61.333 12 84 36s39.667 61.667 51 113l18 84h-4c-9.33301 -12.667 -19.5 -24.667 -30.5 -36s-23.167 -21.5 -36.5 -30.5s-27.833 -16.167 -43.5 -21.5s-32.834 -8 -51.501 -8c-36 0 -65 13 -87 39s-33 63 -33 111c0 44.667 6.16699 89 18.5 133
s30.666 83.5 54.999 118.5s54.333 63.5 90 85.5s76.834 33 123.501 33c36 0 66.333 -3 91 -9s46.334 -13.333 65.001 -22zM196 52.999c16.667 0 33.166 4.33301 49.499 13s31.333 19.834 45 33.501s26 28.5 37 44.5s20.167 31 27.5 45l51 241c-10.667 6 -23.667 10 -39 12
s-31 3 -47 3c-27.333 0 -52.666 -8 -75.999 -24s-43.5 -37.5 -60.5 -64.5s-30.5 -58.167 -40.5 -93.5s-15 -72.333 -15 -111c0 -30.667 6.16699 -54.834 18.5 -72.501s28.833 -26.5 49.5 -26.5z" />
    <glyph glyph-name="h" unicode="h" horiz-adv-x="529" 
d="M341 0l59.999 285c4 20 7.33301 37.833 10 53.5s4 29.5 4 41.5c0 24.667 -5 42.167 -15 52.5s-25.667 15.5 -47 15.5c-17.333 0 -35 -4.5 -53 -13.5s-35.333 -20.5 -52 -34.5s-31.5 -29.667 -44.5 -47s-22.833 -34 -29.5 -50l-63 -303h-75l148 700h75l-62 -286h4
c8.66699 10.667 19.167 21.667 31.5 33s26.5 21.833 42.5 31.5s33.333 17.667 52 24s39 9.5 61 9.5c32.667 0 58.334 -7.83301 77.001 -23.5s28 -44.167 28 -85.5c0 -28 -4.33301 -61.667 -13 -101l-64 -302h-75z" />
    <glyph glyph-name="i" unicode="i" horiz-adv-x="259" 
d="M160 500h75l-106 -500h-75zM176 653c0 15.333 5.16699 28.333 15.5 39s23.166 16 38.499 16s28.333 -5.33301 39 -16s16 -23.667 16 -39s-5.33301 -28.166 -16 -38.499s-23.667 -15.5 -39 -15.5s-28.166 5.16699 -38.499 15.5s-15.5 23.166 -15.5 38.499z" />
    <glyph glyph-name="j" unicode="j" horiz-adv-x="249" 
d="M148 500h75.001l-112 -527c-13.333 -62 -34 -107.667 -62 -137s-66 -44 -114 -44c-5.33301 0 -10.5 0.166992 -15.5 0.5s-10.167 0.833008 -15.5 1.5l15 65c20 0 36.5 2.83301 49.5 8.5s24 14.5 33 26.5s16.667 27 23 45s12.166 39.333 17.499 64zM164.001 653
c0 15.333 5.16699 28.333 15.5 39s23.166 16 38.499 16s28.333 -5.33301 39 -16s16 -23.667 16 -39s-5.33301 -28.166 -16 -38.499s-23.667 -15.5 -39 -15.5s-28.166 5.16699 -38.499 15.5s-15.5 23.166 -15.5 38.499z" />
    <glyph glyph-name="k" unicode="k" horiz-adv-x="449" 
d="M212 225h-54l-47 -225h-75l148 700h75l-91 -426l43 11l180 215h92l-178 -203l-47 -33l38 -39l112 -225h-83z" />
    <glyph glyph-name="l" unicode="l" horiz-adv-x="270" 
d="M133 119c-2 -11.333 -3 -20.6689 -3 -28.002c0 -12.667 2.16699 -21.834 6.5 -27.501s10.166 -8.5 17.499 -8.5c13.333 0 24.5 0.833008 33.5 2.5s19.833 4.83398 32.5 9.50098v-57c-6 -3.33301 -13 -6.16602 -21 -8.49902s-16.167 -4.16602 -24.5 -5.49902
s-16.666 -2.5 -24.999 -3.5s-15.833 -1.5 -22.5 -1.5c-23.333 0 -42 5.33301 -56 16s-21 30.334 -21 59.001c0 13.333 2 29.666 6 48.999l124 585h75z" />
    <glyph glyph-name="m" unicode="m" horiz-adv-x="763" 
d="M305 0l60.0039 283c5.33301 23.333 9.33301 44 12 62s4 33.667 4 47c0 18 -3.33301 31.833 -10 41.5s-18 14.5 -34 14.5c-16.667 0 -33 -4.33301 -49 -13s-31 -19.5 -45 -32.5s-26.833 -26.833 -38.5 -41.5s-20.834 -28 -27.501 -40l-66 -321h-75l106 500h53l-6 -86h4
l34.5 33.5c12.333 11.667 26 22.167 41 31.5s31.333 17.166 49 23.499s37.167 9.5 58.5 9.5c30 0 50.167 -9.33301 60.5 -28s15.5 -44.667 15.5 -78c10 12.667 21.667 25.334 35 38.001s27.833 24 43.5 34s32.167 18.167 49.5 24.5s34.666 9.5 51.999 9.5
c30.667 0 54.167 -7.16699 70.5 -21.5s24.5 -40.833 24.5 -79.5c0 -28 -5 -65 -15 -111l-63 -300h-75l63 301c4 19.333 7.16699 36.666 9.5 51.999s3.5 28.666 3.5 39.999c0 18 -3.66699 31.667 -11 41s-19.666 14 -36.999 14c-14 0 -28.833 -4.5 -44.5 -13.5
s-30.834 -20.167 -45.501 -33.5s-27.834 -27.666 -39.501 -42.999s-20.834 -29.666 -27.501 -42.999l-65 -315h-75z" />
    <glyph glyph-name="n" unicode="n" horiz-adv-x="522" 
d="M331 0l67.002 316c2.66699 12 5 23.833 7 35.5s3 22.167 3 31.5c0 19.333 -4.5 35 -13.5 47s-25.833 18 -50.5 18c-17.333 0 -34.333 -4 -51 -12s-32.334 -18.167 -47.001 -30.5s-27.834 -26 -39.501 -41s-21.5 -29.833 -29.5 -44.5l-66 -320h-75l106 500h52l-4 -86h4
c8.66699 10.667 19 21.834 31 33.501s25.5 22.167 40.5 31.5s31.833 17.166 50.5 23.499s39.334 9.5 62.001 9.5c33.333 0 59.666 -8 78.999 -24s29 -44 29 -84c0 -20 -3 -44 -9 -72l-71 -332h-75z" />
    <glyph glyph-name="o" unicode="o" horiz-adv-x="498" 
d="M50 156c0 52.667 6.83398 100.834 20.501 144.501s32.5 81.167 56.5 112.5s51.833 55.666 83.5 72.999s65.5 26 101.5 26c28 0 51.833 -4.5 71.5 -13.5s35.667 -21.333 48 -37s21.166 -33.667 26.499 -54s8 -41.5 8 -63.5c0 -50 -6.5 -96.667 -19.5 -140
s-31 -81 -54 -113s-49.833 -57.167 -80.5 -75.5s-64 -27.5 -100 -27.5c-30 0 -55.167 4.83301 -75.5 14.5s-37 22.5 -50 38.5s-22.333 34 -28 54s-8.5 40.333 -8.5 61zM130.001 174c0 -39.333 7.33301 -69.5 22 -90.5s38 -31.5 70 -31.5c22 0 42.833 7.83301 62.5 23.5
s37 36.834 52 63.501s27 57.167 36 91.5s13.5 70.166 13.5 107.499c0 34 -6.16699 60.833 -18.5 80.5s-35.833 29.5 -70.5 29.5c-22 0 -43 -7.5 -63 -22.5s-37.833 -35.167 -53.5 -60.5s-28 -54.5 -37 -87.5s-13.5 -67.5 -13.5 -103.5z" />
    <glyph glyph-name="p" unicode="p" horiz-adv-x="508" 
d="M144 500h52l-5 -86h4c9.33301 12 19.833 23.833 31.5 35.5s24.5 22.167 38.5 31.5s29.333 16.833 46 22.5s34.667 8.5 54 8.5c16 0 31 -2.5 45 -7.5s26.333 -13.333 37 -25s19.167 -27.167 25.5 -46.5s9.5 -43 9.5 -71c0 -58.667 -8 -111.167 -24 -157.5
s-37 -85.5 -63 -117.5s-55.167 -56.5 -87.5 -73.5s-64.5 -25.5 -96.5 -25.5c-23.333 0 -43.833 2.16699 -61.5 6.5s-29.5 8.83301 -35.5 13.5l-44 -208h-75zM337 448c-18 0 -35.166 -4.66602 -51.499 -13.999s-31.333 -20.833 -45 -34.5s-25.834 -28.334 -36.501 -44.001
s-19.334 -30.167 -26.001 -43.5l-49 -237c11.333 -8.66699 23 -14.667 35 -18s25 -5 39 -5c26 0 50.833 7.16699 74.5 21.5s44.834 34.833 63.501 61.5s33.5 58.667 44.5 96s16.5 79 16.5 125c0 26.667 -5.5 48.667 -16.5 66s-27.167 26 -48.5 26z" />
    <glyph glyph-name="q" unicode="q" horiz-adv-x="503" 
d="M340 -200l-75.0039 -0.00390625l61 284h-4c-8 -10.667 -17.167 -21.667 -27.5 -33s-22 -21.666 -35 -30.999s-27.5 -17 -43.5 -23s-33 -9 -51 -9c-21.333 0 -39.666 3.83301 -54.999 11.5s-27.666 18.334 -36.999 32.001s-16.166 29.834 -20.499 48.501s-6.5 39 -6.5 61
c0 44.667 7.33301 89 22 133s35 83.333 61 118s57 62.834 93 84.501s75.667 32.5 119 32.5c14 0 28.167 -1 42.5 -3s27.833 -4.5 40.5 -7.5s24.334 -6.33301 35.001 -10s19 -7.5 25 -11.5zM185.996 51.9961c16.667 0 33.501 5.00195 50.501 15.002s32.833 22.5 47.5 37.5
s27.667 31 39 48s20.333 32.5 27 46.5l50 231c-10.667 6 -23.5 10 -38.5 12s-28.167 3 -39.5 3c-26 0 -50.833 -8.33301 -74.5 -25s-44.5 -38.834 -62.5 -66.501s-32.333 -59.334 -43 -95.001s-16 -72.5 -16 -110.5c0 -32 5.16699 -56 15.5 -72s25.166 -24 44.499 -24z" />
    <glyph glyph-name="r" unicode="r" horiz-adv-x="327" 
d="M362 434c-6 1.33301 -12.166 2.33301 -18.499 3s-12.166 1 -17.499 1c-34 0 -63.333 -10.667 -88 -32s-44 -47.333 -58 -78l-69 -328h-75l106 500h52v-86h4c8 12.667 16.667 24.5 26 35.5s19.666 20.833 30.999 29.5s23.666 15.5 36.999 20.5s28 7.5 44 7.5
c14.667 0 30 -2.33301 46 -7z" />
    <glyph glyph-name="s" unicode="s" horiz-adv-x="398" 
d="M259 141c0 17.333 -4.33301 32.001 -13 44.001s-19.667 22.833 -33 32.5s-27.666 19.167 -42.999 28.5s-29.666 19.833 -42.999 31.5s-24.333 25.334 -33 41.001s-13 35.167 -13 58.5c0 18.667 4.5 36.167 13.5 52.5s21.333 30.666 37 42.999s34.334 22 56.001 29
s45.167 10.5 70.5 10.5c35.333 0 62.666 -2.33301 81.999 -7s36.666 -11.334 51.999 -20.001l-25 -60c-26.667 15.333 -63 23 -109 23c-28 0 -51.167 -5.83301 -69.5 -17.5s-27.5 -29.5 -27.5 -53.5c0 -14 4.33301 -26.167 13 -36.5s19.667 -20.166 33 -29.499
s27.666 -18.833 42.999 -28.5s29.666 -20.667 42.999 -33s24.333 -26.833 33 -43.5s13 -36.334 13 -59.001c0 -52 -17.5 -91.5 -52.5 -118.5s-81.833 -40.5 -140.5 -40.5c-30 0 -57.5 3 -82.5 9s-45.167 13.667 -60.5 23l28 63c13.333 -8.66699 30.833 -16 52.5 -22
s44.167 -9 67.5 -9c32.667 0 58.834 7.16699 78.501 21.5s29.5 36.833 29.5 67.5z" />
    <glyph glyph-name="t" unicode="t" horiz-adv-x="313" 
d="M71 500h74.001l21 99l80 23l-26 -122h131l-15 -64h-130l-63 -302c-1.33301 -8 -2.5 -15.333 -3.5 -22s-1.5 -12.667 -1.5 -18c0 -16 3.66699 -27 11 -33s18.333 -9 33 -9c16 0 30.667 2 44 6s26.666 10 39.999 18v-61c-14 -8 -32 -14.5 -54 -19.5s-43 -7.5 -63 -7.5
c-60.667 0 -91 27.667 -91 83c0 11.333 1.66699 25.333 5 42l68 323h-75z" />
    <glyph glyph-name="u" unicode="u" horiz-adv-x="511" 
d="M213 500l-70.001 -332.999c-4 -18 -6 -34.667 -6 -50c0 -18.667 3.66699 -34.167 11 -46.5s20.666 -18.5 39.999 -18.5c16 0 32.167 4 48.5 12s32 18.333 47 31s28.667 26.667 41 42s22.5 30.333 30.5 45l67 318h75l-63 -297
c-2.66699 -11.333 -5.33398 -25.166 -8.00098 -41.499s-5.16699 -33.5 -7.5 -51.5s-4.16602 -35.5 -5.49902 -52.5s-2 -31.833 -2 -44.5v-13h-59v95h-4c-10 -13.333 -21.5 -26.333 -34.5 -39s-27.333 -24 -43 -34s-32.5 -18.167 -50.5 -24.5s-37 -9.5 -57 -9.5
c-14.667 0 -28.167 1.66699 -40.5 5s-23.166 9.16602 -32.499 17.499s-16.666 19.333 -21.999 33s-8 31.167 -8 52.5c0 23.333 3.33301 49.666 10 78.999l68 325h75z" />
    <glyph glyph-name="v" unicode="v" horiz-adv-x="447" 
d="M192 207l9 -95h2l43 97l169 291h86l-312 -511h-32l-97 511h80z" />
    <glyph glyph-name="w" unicode="w" horiz-adv-x="685" 
d="M427 500l47 -292l4 -96h1l39 98l147 290h76l-269 -511h-38l-53 330l-1 82h-2l-37 -83l-190 -329h-36l-58 511h76l31 -291l-2 -97h4l40 99l165 289h56z" />
    <glyph glyph-name="x" unicode="x" horiz-adv-x="484" 
d="M203 256l-107 244h85l59 -138l18 -57l41 57l121 138h91l-212 -240l119 -260h-85l-68 152l-20 60l-42 -60l-134 -152h-91z" />
    <glyph glyph-name="y" unicode="y" horiz-adv-x="439" 
d="M194 176l5 -95.999h5l38 97l166 323h80l-236 -446l-51.5 -95.5c-17 -31 -34.5 -58.667 -52.5 -83s-36.667 -43.833 -56 -58.5s-39.333 -22 -60 -22c-11.333 0 -21.166 0.666992 -29.499 2s-15.833 3.66602 -22.5 6.99902l24 69c7.33301 -2.66699 15.333 -4 24 -4
c19.333 0 38.666 10 57.999 30s41 53.667 65 101l-86 500h80z" />
    <glyph glyph-name="z" unicode="z" horiz-adv-x="429" 
d="M11 69l281 319l55 43h-258l15 69h337l-15 -69l-284 -322l-54 -40h261l-14 -69h-337z" />
    <glyph glyph-name="braceleft" unicode="{" horiz-adv-x="331" 
d="M231 -230l-80.998 -0.00195312c-23.333 0 -41.333 6.5 -54 19.5s-18.667 31.5 -18 55.5c0 9.33301 1.33301 19 4 29l50 238c2.66699 12 4 22.667 4 32c1.33301 21.333 -3.5 36.166 -14.5 44.499s-26.5 12.5 -46.5 12.5l15 68c49.333 0 80.333 28.333 93 85l52 242
c6.66699 31.333 19.5 56.666 38.5 75.999s43.5 29 73.5 29h81l-15 -70h-48c-17.333 0 -30.833 -4.5 -40.5 -13.5s-16.834 -24.167 -21.501 -45.5l-49 -237c-6 -29.333 -17.333 -51.666 -34 -66.999s-34 -24.666 -52 -27.999l-1 -6c13.333 -2 24.833 -9.66699 34.5 -23
s14.167 -30.666 13.5 -51.999c0 -3.33301 -0.5 -7.33301 -1.5 -12s-3 -15.167 -6 -31.5s-8.16699 -41.333 -15.5 -75l-31 -141.5c-0.666992 -4 -1.33398 -7.66699 -2.00098 -11s-1 -6.66602 -1 -9.99902c-0.666992 -25.333 13.333 -38 42 -38h47z" />
    <glyph glyph-name="bar" unicode="|" horiz-adv-x="238" 
d="M115 700h69v-830h-69v830z" />
    <glyph glyph-name="braceright" unicode="}" horiz-adv-x="331" 
d="M232 359c-2.66699 -11.333 -3.99902 -21.3281 -3.99902 -29.9951c-0.666992 -22 4.5 -37.333 15.5 -46s26.5 -13 46.5 -13l-16 -68c-24 0 -44 -7 -60 -21s-27.333 -35.333 -34 -64c0 -0.666992 -0.833008 -4.66699 -2.5 -12s-3.66699 -16.666 -6 -27.999l-8 -39
c-3 -14.667 -5.83301 -29.334 -8.5 -44.001l-25 -119c-6.66699 -31.333 -19.667 -56.666 -39 -75.999s-44 -29 -74 -29h-80l16 70h47c16.667 0 29.834 4.5 39.501 13.5s16.5 24.167 20.5 45.5l50 237c6.66699 29.333 18.167 51.666 34.5 66.999s33.833 24.666 52.5 27.999
l2 6c-14.667 2 -26.834 9.66699 -36.501 23s-14.167 30.666 -13.5 51.999c0 3.33301 0.333008 7.16602 1 11.499l2 12.5l51 236c1.33301 4 2.16602 7.66699 2.49902 11s0.5 6.66602 0.5 9.99902c0.666992 25.333 -13 38 -41 38h-46l14 70h81
c23.333 0 41.5 -6.33301 54.5 -19s18.833 -31.334 17.5 -56.001c0 -9.33301 -1.33301 -19 -4 -29z" />
    <glyph glyph-name="asciitilde" unicode="~" horiz-adv-x="480" 
d="M46 361c28.667 22 54.667 37.334 78 46.001s44.666 13 63.999 13c18.667 0 36 -2.83301 52 -8.5s31.333 -12 46 -19s29 -13.333 43 -19s28.667 -8.5 44 -8.5c12.667 0 25.667 2.66699 39 8s27.666 14.666 42.999 27.999l34 -61
c-25.333 -17.333 -48.166 -29.5 -68.499 -36.5s-38.833 -10.5 -55.5 -10.5c-18 0 -34.5 2.83301 -49.5 8.5s-29.333 12 -43 19s-27.334 13.333 -41.001 19s-28.5 8.5 -44.5 8.5c-15.333 0 -31.666 -3.5 -48.999 -10.5s-36.666 -19.167 -57.999 -36.5z" />
    <glyph glyph-name="uni00A0" unicode="&#xa0;" horiz-adv-x="267" 
 />
    <glyph glyph-name="exclamdown" unicode="&#xa1;" horiz-adv-x="290" 
d="M96 -200h-78l74 347l53 176h47l-22 -176zM131 453c0 18 5.33301 32.167 16 42.5s24.667 15.5 42 15.5s31.333 -5.16699 42 -15.5s16 -24.5 16 -42.5c0 -17.333 -5.33301 -31.333 -16 -42s-24.667 -16 -42 -16s-31.333 5.33301 -42 16s-16 24.667 -16 42z" />
    <glyph glyph-name="cent" unicode="&#xa2;" 
d="M419 43c-16.667 -14 -36.334 -25.3311 -59.001 -33.998s-44.667 -14.667 -66 -18l-19 -91h-66l19 90c-25.333 4 -46.333 11.667 -63 23s-29.667 24.5 -39 39.5s-15.833 30.833 -19.5 47.5s-5.5 32.667 -5.5 48c0 51.333 6.33301 97.833 19 139.5s29.834 78 51.501 109
s46.834 56 75.501 75s59 31.167 91 36.5l20 92h67l-20 -89c17.333 -2 32.5 -5 45.5 -9s25.167 -8.33301 36.5 -13l-28 -62c-8.66699 5.33301 -19.334 9.66602 -32.001 12.999s-26.667 5.66602 -42 6.99902l-83 -393c18 2.66699 36 8 54 16s32.667 15.667 44 23zM181 179.002
c0 -36.667 6.16699 -65.1689 18.5 -85.502s29.5 -33.166 51.5 -38.499l82 389c-20 -5.33301 -39.167 -16.166 -57.5 -32.499s-34.5 -36.5 -48.5 -60.5s-25.167 -50.833 -33.5 -80.5s-12.5 -60.167 -12.5 -91.5z" />
    <glyph glyph-name="sterling" unicode="&#xa3;" 
d="M118 397l64.9971 0.00195312c-2.66699 12 -4.66699 24.833 -6 38.5s-2 29.167 -2 46.5c0 38 6.66699 71.5 20 100.5s31.166 53 53.499 72s48.5 33.333 78.5 43s62 14.5 96 14.5c26.667 0 51.834 -2.83301 75.501 -8.5s43.167 -12.834 58.5 -21.501l-27 -64
c-13.333 7.33301 -30.666 13.333 -51.999 18s-45.333 7 -72 7c-20.667 0 -40.167 -3.5 -58.5 -10.5s-34.333 -17.333 -48 -31s-24.5 -30.334 -32.5 -50.001s-12 -42.167 -12 -67.5c0 -20.667 0.833008 -37.667 2.5 -51s3.83398 -25.333 6.50098 -36h155l-15 -64h-125
c1.33301 -8 2.33301 -17 3 -27s1 -21.667 1 -35c0 -22 -2.16699 -42.333 -6.5 -61s-9.66602 -35.5 -15.999 -50.5s-13.5 -28 -21.5 -39s-15.667 -19.833 -23 -26.5l-45 -34l-1 -5l62 14h244l-15 -69h-424l15 71c20 0 39.167 5 57.5 15s34.5 23.5 48.5 40.5
s25.167 37.167 33.5 60.5s12.5 49 12.5 77c0 13.333 -0.666992 25.5 -2 36.5s-3 21.833 -5 32.5h-94z" />
    <glyph glyph-name="currency" unicode="&#xa4;" 
d="M111 596l78.001 -76.999l21 -35c28 22 62.333 33 103 33c39.333 0 73.666 -11 102.999 -33l22 35l78 77l48 -49l-76 -78l-35 -22c21.333 -28.667 32 -62.667 32 -102c0 -40 -10.667 -74.333 -32 -103l35 -21l76 -78l-48 -48l-78 77l-21 33
c-28.667 -20.667 -63.334 -31 -104.001 -31c-41.333 0 -75.666 10.333 -102.999 31l-21 -33l-78 -77l-49 48l77 78l34 22c-20.667 28 -31 62 -31 102c0 19.333 2.83301 37.666 8.5 54.999s13.167 33.333 22.5 48l-34 21l-77 78zM211.001 345.001c0 -30 9.5 -55 28.5 -75
s43.5 -30 73.5 -30s54.667 10 74 30s29 45 29 75s-9.66699 55.167 -29 75.5s-44 30.5 -74 30.5s-54.5 -10.167 -73.5 -30.5s-28.5 -45.5 -28.5 -75.5z" />
    <glyph glyph-name="yen" unicode="&#xa5;" 
d="M129 328h89l-115 372h87l92 -306l3 -61h1l30 63l213 304h90l-270 -372h90l-13 -60h-115l-13 -63h115l-13 -60h-115l-30 -145h-80l30 145h-115l12 60h116l13 63h-115z" />
    <glyph glyph-name="brokenbar" unicode="&#xa6;" horiz-adv-x="238" 
d="M115 206h69v-336h-69v336zM184 364h-69v336h69v-336z" />
    <glyph glyph-name="section" unicode="&#xa7;" horiz-adv-x="473" 
d="M88 337c0 29.333 7.16602 54.3359 21.499 75.0029s32.833 38.667 55.5 54l46 18c-15.333 12.667 -26.166 26 -32.499 40s-9.5 29.333 -9.5 46c0 20 4.66699 38.667 14 56s22 32.333 38 45s34.833 22.667 56.5 30s45.167 11 70.5 11c34.667 0 62.5 -3 83.5 -9
s39.167 -13.667 54.5 -23l-29 -61c-13.333 7.33301 -29.833 13.333 -49.5 18s-41.167 7 -64.5 7c-28.667 0 -51.834 -7.16699 -69.501 -21.5s-26.5 -32.833 -26.5 -55.5c0 -14 5.33301 -25.333 16 -34s23.334 -16.334 38.001 -23.001s30.834 -13.334 48.501 -20.001
s33.834 -15.167 48.501 -25.5s27 -23.166 37 -38.499s15 -35.333 15 -60c0 -28.667 -7.66699 -54.334 -23 -77.001s-33.666 -40.667 -54.999 -54l-54 -18c15.333 -10.667 27 -23 35 -37s12 -32.667 12 -56c0 -22.667 -4.83301 -42.5 -14.5 -59.5s-22.5 -31.167 -38.5 -42.5
s-34.667 -19.833 -56 -25.5s-44 -8.5 -68 -8.5c-34.667 0 -62.834 3.66699 -84.501 11s-40.167 15.666 -55.5 24.999l32 61c13.333 -7.33301 29.5 -14 48.5 -20s40.5 -9 64.5 -9c26.667 0 49 5.16699 67 15.5s27 27.833 27 52.5c0 14.667 -4.66699 27 -14 37
s-21.333 18.833 -36 26.5s-30.834 15.5 -48.501 23.5s-33.834 17.333 -48.501 28s-27 23.667 -37 39s-15 35 -15 59zM369.999 355.003c0 14.667 -3.00098 26.666 -9.00098 35.999s-14.333 17.5 -25 24.5s-23 13.167 -37 18.5l-45 18c-10 -4 -20.167 -9.16699 -30.5 -15.5
s-19.666 -13.666 -27.999 -21.999s-15 -18 -20 -29s-7.5 -23.5 -7.5 -37.5s3 -26 9 -36s14 -18.667 24 -26s21.833 -13.833 35.5 -19.5l43.5 -17.5c10 4 20.167 9.16699 30.5 15.5s20 13.833 29 22.5s16.333 18.667 22 30s8.5 24 8.5 38z" />
    <glyph glyph-name="dieresis" unicode="&#xa8;" horiz-adv-x="245" 
d="M88 653c0 14.667 4.16699 26.834 12.5 36.501s19.5 14.5 33.5 14.5s25.333 -4.83301 34 -14.5s13 -21.834 13 -36.501c0 -13.333 -4.33301 -24.833 -13 -34.5s-20 -14.5 -34 -14.5s-25.167 4.83301 -33.5 14.5s-12.5 21.167 -12.5 34.5zM271 654
c0 14 4.16699 25.833 12.5 35.5s19.5 14.5 33.5 14.5c14.667 0 26.167 -4.83301 34.5 -14.5s12.5 -21.5 12.5 -35.5s-4.16699 -25.833 -12.5 -35.5s-19.833 -14.5 -34.5 -14.5c-14 0 -25.167 4.83301 -33.5 14.5s-12.5 21.5 -12.5 35.5z" />
    <glyph glyph-name="copyright" unicode="&#xa9;" horiz-adv-x="806" 
d="M77 290c0 55.333 9.33301 104.833 28 148.5s44 80.5 76 110.5s69.333 53 112 69s88 24 136 24s93.333 -8 136 -24s80 -39 112 -69s57.333 -66.833 76 -110.5s28 -93.167 28 -148.5s-9.33301 -104.833 -28 -148.5s-44 -80.5 -76 -110.5s-69.333 -53 -112 -69
s-88 -24 -136 -24c-53.333 0 -101.666 8 -144.999 24s-80.333 39 -111 69s-54.334 66.833 -71.001 110.5s-25 93.167 -25 148.5zM147 290c0 -46 7.33301 -86.833 22 -122.5s34.667 -65.5 60 -89.5s55.166 -42.333 89.499 -55s71.166 -19 110.499 -19
s76.166 6.33301 110.499 19s64.166 31 89.499 55s45.333 53.833 60 89.5s22 76.5 22 122.5s-7.33301 86.833 -22 122.5s-34.667 65.5 -60 89.5s-55.166 42.333 -89.499 55s-71.166 19 -110.499 19s-76.166 -6.33301 -110.499 -19s-64.166 -31 -89.499 -55
s-45.333 -53.833 -60 -89.5s-22 -76.5 -22 -122.5zM545 127c-15.333 -8.66699 -32.501 -15.335 -51.501 -20.002s-41.167 -7 -66.5 -7c-54 0 -95.167 17 -123.5 51s-42.5 80.333 -42.5 139c0 60.667 15.167 107.5 45.5 140.5s70.5 49.5 120.5 49.5
c12 0 22.833 -0.666992 32.5 -2s18.667 -3.16602 27 -5.49902s16.5 -5.16602 24.5 -8.49902l27 -11l-26 -61c-14.667 7.33301 -28.667 12.333 -42 15s-24.666 4 -33.999 4c-28 0 -50.833 -8.66699 -68.5 -26s-26.5 -49 -26.5 -95c0 -38.667 8.66699 -68.5 26 -89.5
s43 -31.833 77 -32.5c31.333 0 58 6 80 18z" />
    <glyph glyph-name="ordfeminine" unicode="&#xaa;" horiz-adv-x="381" 
d="M124 677c17.333 8.66699 37.834 15.998 61.501 21.998s51.5 9 83.5 9c31.333 0 55.166 -7 71.499 -21s24.5 -31.667 24.5 -53c0 -16.667 -2.5 -35.834 -7.5 -57.501s-10.667 -44.167 -17 -67.5s-12 -46.166 -17 -68.499s-7.5 -42.5 -7.5 -60.5h-50l-3 46h-3
c-11.333 -11.333 -25.666 -22.5 -42.999 -33.5s-39.666 -16.5 -66.999 -16.5c-30 0 -52.5 8.5 -67.5 25.5s-22.5 37.167 -22.5 60.5c0 20.667 4.83301 38.334 14.5 53.001s22.5 26.834 38.5 36.501s34.5 16.667 55.5 21s43.167 6.5 66.5 6.5
c9.33301 0 18.666 -0.333008 27.999 -1s18.666 -1.66699 27.999 -3c4 12.667 6 24 6 34c0 28.667 -19 43 -57 43c-25.333 0 -46.833 -2.5 -64.5 -7.5s-33.167 -10.5 -46.5 -16.5zM171.001 431.998c27.333 0 48.8311 6.16699 64.498 18.5s27.5 24.5 35.5 36.5l8 42
c-6.66699 0.666992 -13.167 1 -19.5 1h-20.5c-14 0 -27.5 -0.833008 -40.5 -2.5s-24.667 -4.66699 -35 -9s-18.666 -10.5 -24.999 -18.5s-9.5 -18.333 -9.5 -31c0 -10.667 3.33301 -19.5 10 -26.5s17.334 -10.5 32.001 -10.5z" />
    <glyph glyph-name="guillemotleft" unicode="&#xab;" horiz-adv-x="454" 
d="M212 259l198 228l44 -46l-123 -144l-56 -37l34 -37l67 -141l-54 -42zM38 259l200 230l45 -47l-124 -145l-57 -37l35 -37l67 -142l-54 -43z" />
    <glyph glyph-name="logicalnot" unicode="&#xac;" horiz-adv-x="505" 
d="M67 392h424v-192h-70v120h-354v72z" />
    <glyph glyph-name="uni00AD" unicode="&#xad;" horiz-adv-x="342" 
d="M79 322h230l-17 -68h-229z" />
    <glyph glyph-name="registered" unicode="&#xae;" horiz-adv-x="700" 
d="M137 451c0 42.667 7 80.5 21 113.5s33.167 60.667 57.5 83s52.5 39.333 84.5 51s66 17.5 102 17.5c36.667 0 71.167 -5.83301 103.5 -17.5s60.5 -28.667 84.5 -51s42.833 -50 56.5 -83s20.5 -70.833 20.5 -113.5s-7 -80.5 -21 -113.5s-33.167 -60.667 -57.5 -83
s-52.5 -39.333 -84.5 -51s-66 -17.5 -102 -17.5c-37.333 0 -72 5.83301 -104 17.5s-60 28.667 -84 51s-42.833 50 -56.5 83s-20.5 70.833 -20.5 113.5zM200 451c0 -34.667 5.33105 -64.833 15.998 -90.5s25.167 -47 43.5 -64s39.833 -29.833 64.5 -38.5s50.667 -13 78 -13
c28.667 0 55.334 4.16699 80.001 12.5s46 21 64 38s32.167 38.333 42.5 64s15.5 56.167 15.5 91.5c0 34.667 -5.33301 64.834 -16 90.501s-25.167 47 -43.5 64s-39.666 29.833 -63.999 38.5s-50.5 13 -78.5 13c-29.333 0 -56.333 -4.33301 -81 -13s-46 -21.5 -64 -38.5
s-32 -38.333 -42 -64s-15 -55.834 -15 -90.501zM298.998 581.001c10.667 3.33301 25.668 5.83203 45.001 7.49902s37.666 2.5 54.999 2.5c28 0 52 -5.83301 72 -17.5s30 -31.834 30 -60.501c0 -21.333 -6.83301 -37.666 -20.5 -48.999s-30.5 -17.666 -50.5 -18.999l28 -14
l74 -109h-61l-72 104l-48 15v-119h-52v259zM387.999 546c-7.33301 0 -14.333 -0.166992 -21 -0.5s-12 -1.5 -16 -3.5v-71h34c19.333 0 34.333 3 45 9s16 16.333 16 31c0 23.333 -19.333 35 -58 35z" />
    <glyph glyph-name="macron" unicode="&#xaf;" horiz-adv-x="313" 
d="M134 643h281l-13 -62h-282z" />
    <glyph glyph-name="degree" unicode="&#xb0;" horiz-adv-x="425" 
d="M141 571c0 20.667 3.66699 39.666 11 56.999s17.333 32.166 30 44.499s27.667 22 45 29s35.666 10.5 54.999 10.5s37.666 -3.16699 54.999 -9.5s32.333 -15.666 45 -27.999s22.667 -27.166 30 -44.499s11 -37 11 -59s-3.66699 -41.667 -11 -59
s-17.333 -32.166 -30 -44.499s-27.667 -21.666 -45 -27.999s-35.666 -9.5 -54.999 -9.5s-37.666 3.16699 -54.999 9.5s-32.333 15.666 -45 27.999s-22.667 27.166 -30 44.499s-11 37 -11 59zM205 570.999c0 -25.333 7.66699 -45.166 23 -59.499s33.333 -21.5 54 -21.5
s38.667 7.16699 54 21.5s23 34.166 23 59.499s-7.66699 45.166 -23 59.499s-33.333 21.5 -54 21.5s-38.667 -7.16699 -54 -21.5s-23 -34.166 -23 -59.499z" />
    <glyph glyph-name="plusminus" unicode="&#xb1;" horiz-adv-x="480" 
d="M55 493h176v181h72v-181h176v-72h-176v-120h-72v120h-176v72zM55 250h424v-72h-424v72z" />
    <glyph glyph-name="twosuperior" unicode="&#xb2;" horiz-adv-x="377" 
d="M435 713c0 -21.333 -4.83594 -42.8301 -14.5029 -64.4971s-22.667 -43.334 -39 -65.001s-35.166 -42.667 -56.499 -63s-43.333 -39.833 -66 -58.5l-50 -31v-3l57 16h131l-14 -64h-275l7 33l43.5 32.5c17 13 34.833 27.5 53.5 43.5s37 33 55 51s34.333 36.167 49 54.5
s26.5 36.166 35.5 53.499s13.5 33.666 13.5 48.999c0 30.667 -18.333 46 -55 46c-17.333 0 -34.666 -3.16699 -51.999 -9.5s-32.666 -13.5 -45.999 -21.5l-9 57c18.667 12 39.667 21.333 63 28s46.333 10 69 10c12 0 24 -1.5 36 -4.5s22.667 -8.16699 32 -15.5
s17 -17 23 -29s9 -27 9 -45z" />
    <glyph glyph-name="threesuperior" unicode="&#xb3;" horiz-adv-x="377" 
d="M242 433c37.333 0 64.8369 9.16797 82.5039 27.501s26.5 40.166 26.5 65.499c0 18 -5.33301 31.5 -16 40.5s-32 13.5 -64 13.5h-52l4 23l116 117l38 26l-48 -6h-121l13 60h243l-7 -33l-124 -124l-26 -18l-1 -2l22 3c25.333 0 46.833 -8.16699 64.5 -24.5
s26.5 -38.5 26.5 -66.5c0 -21.333 -3.33301 -41.833 -10 -61.5s-17.334 -37 -32.001 -52s-33.834 -26.833 -57.501 -35.5s-52.834 -13 -87.501 -13c-22.667 0 -41.834 2 -57.501 6s-29.167 8.33301 -40.5 13l26 60c9.33301 -5.33301 21 -9.83301 35 -13.5
s29.667 -5.5 47 -5.5z" />
    <glyph glyph-name="acute" unicode="&#xb4;" horiz-adv-x="238" 
d="M228 720h84l-5 -21l-123 -128h-44z" />
    <glyph glyph-name="mu" unicode="&#xb5;" horiz-adv-x="525" 
d="M209 500l-38.001 -184l-21 -103c-4.66699 -24 -7.5 -40.333 -8.5 -49s-1.5 -15.667 -1.5 -21c0 -57.333 26.667 -86 80 -86c35.333 0 67.333 11 96 33s51.667 50.667 69 86l69 324h75l-72 -337c-5.33301 -27.333 -10 -54.833 -14 -82.5s-6 -54.5 -6 -80.5h-51l-12 74h-4
c-18 -23.333 -41.833 -43.5 -71.5 -60.5s-63.5 -25.5 -101.5 -25.5c-30 0 -52.167 6.83301 -66.5 20.5s-24.166 30.167 -29.499 49.5h-5l-7 -125l-28 -133h-75l148 700h75z" />
    <glyph glyph-name="mu" unicode="&#x3bc;" horiz-adv-x="525" 
d="M209 500l-38.001 -184l-21 -103c-4.66699 -24 -7.5 -40.333 -8.5 -49s-1.5 -15.667 -1.5 -21c0 -57.333 26.667 -86 80 -86c35.333 0 67.333 11 96 33s51.667 50.667 69 86l69 324h75l-72 -337c-5.33301 -27.333 -10 -54.833 -14 -82.5s-6 -54.5 -6 -80.5h-51l-12 74h-4
c-18 -23.333 -41.833 -43.5 -71.5 -60.5s-63.5 -25.5 -101.5 -25.5c-30 0 -52.167 6.83301 -66.5 20.5s-24.166 30.167 -29.499 49.5h-5l-7 -125l-28 -133h-75l148 700h75z" />
    <glyph glyph-name="paragraph" unicode="&#xb6;" horiz-adv-x="495" 
d="M378 700h69v-830h-69v830zM222 310c-21.333 0 -41.001 5.49902 -59.001 16.499s-33.5 25.667 -46.5 44s-23.167 39.333 -30.5 63s-11 47.834 -11 72.501s3.83301 48.667 11.5 72s18.834 44 33.501 62s32.667 32.5 54 43.5s45.333 16.5 72 16.5h45v-830h-69v440z" />
    <glyph glyph-name="periodcentered" unicode="&#xb7;" horiz-adv-x="267" 
d="M98 296c0 18 5.33301 32.167 16 42.5s24.667 15.5 42 15.5s31.333 -5.16699 42 -15.5s16 -24.5 16 -42.5c0 -17.333 -5.33301 -31.333 -16 -42s-24.667 -16 -42 -16s-31.333 5.33301 -42 16s-16 24.667 -16 42z" />
    <glyph glyph-name="cedilla" unicode="&#xb8;" horiz-adv-x="363" 
d="M167 -43c18 -2 32.834 -8.83496 44.501 -20.502s17.5 -28.167 17.5 -49.5c0 -28 -10.5 -51 -31.5 -69s-52.5 -27 -94.5 -27c-8 0 -16.5 0.5 -25.5 1.5s-18.167 2.16699 -27.5 3.5l17 39c3.33301 -0.666992 6.83301 -1 10.5 -1h10.5c14 0 25.667 1.33301 35 4
s16.666 5.83398 21.999 9.50098s9 7.83398 11 12.501s3 9 3 13c0 12.667 -7 22 -21 28s-32.667 9 -56 9l65 90h53z" />
    <glyph glyph-name="onesuperior" unicode="&#xb9;" horiz-adv-x="377" 
d="M149 441h101l54 254l14 36l-31 -28l-81 -45l-21 46l170 103h39l-78 -366h90l-13 -61h-257z" />
    <glyph glyph-name="ordmasculine" unicode="&#xba;" horiz-adv-x="379" 
d="M60 490c0 38.667 5.83301 72.001 17.5 100.001s26.5 51 44.5 69s38 31.333 60 40s43.667 13 65 13c38 0 66.833 -10.333 86.5 -31s29.5 -50 29.5 -88c0 -36 -5 -67.667 -15 -95s-23.5 -50.333 -40.5 -69s-37 -32.834 -60 -42.501s-47.167 -14.5 -72.5 -14.5
c-34 0 -61.667 10.333 -83 31s-32 49.667 -32 87zM129 498.001c0 -21.333 4.83398 -38.002 14.501 -50.002s24.167 -18 43.5 -18c14 0 27.5 3.66699 40.5 11s24.5 17.833 34.5 31.5s17.833 30.334 23.5 50.001s8.5 41.834 8.5 66.501c0 23.333 -5.16699 40 -15.5 50
s-24.833 15 -43.5 15c-14 0 -27.5 -4.16699 -40.5 -12.5s-24.333 -19.5 -34 -33.5s-17.334 -30.5 -23.001 -49.5s-8.5 -39.167 -8.5 -60.5z" />
    <glyph glyph-name="guillemotright" unicode="&#xbb;" horiz-adv-x="454" 
d="M280 268l-198 -228l-44 45l123 144l56 38l-35 43l-68 141l57 36zM454 268l-200 -230l-45 46l124 145l56 38l-35 44l-69 142l58 36z" />
    <glyph glyph-name="onequarter" unicode="&#xbc;" horiz-adv-x="797" 
d="M639 713l52 -36l-487 -689l-52 36zM744 96h-78l-21 -96h-64l21 96h-193l7 37l278 302h43l-59 -280h79zM641 283l17 49h-2l-31 -46l-96 -105l-38 -31l49 5h74zM256 595l15 36l-31 -28l-81 -45l-24 49l173 100h39l-91 -427h-66z" />
    <glyph glyph-name="onehalf" unicode="&#xbd;" horiz-adv-x="809" 
d="M639 713l52 -36l-487 -689l-52 36zM784 333c0 -21.333 -4.83594 -42.8301 -14.5029 -64.4971s-22.667 -43.334 -39 -65.001s-35.166 -42.667 -56.499 -63s-43.333 -39.833 -66 -58.5l-50 -31v-3l57 16h131l-14 -64h-275l7 33l43.5 32.5c17 13 34.833 27.5 53.5 43.5
s37 33 55 51s34.333 36.167 49 54.5s26.5 36.166 35.5 53.499s13.5 33.666 13.5 48.999c0 30.667 -18.333 46 -55 46c-17.333 0 -34.666 -3.16699 -51.999 -9.5s-32.666 -13.5 -45.999 -21.5l-9 57c18.667 12 39.667 21.333 63 28s46.333 10 69 10c12 0 24 -1.5 36 -4.5
s22.667 -8.16699 32 -15.5s17 -17 23 -29s9 -27 9 -45zM255.997 595.003l15 36l-31 -28l-81 -45l-24 49l173 100h39l-91 -427h-66z" />
    <glyph glyph-name="threequarters" unicode="&#xbe;" horiz-adv-x="833" 
d="M675 713l52 -36l-487 -689l-52 36zM780 96h-78l-21 -96h-64l21 96h-193l7 37l278 302h43l-59 -280h79zM677 283l17 49h-2l-31 -46l-96 -105l-38 -31l49 5h74zM209 333c37.333 0 64.8369 9.16797 82.5039 27.501s26.5 40.166 26.5 65.499c0 18 -5.33301 31.5 -16 40.5
s-32 13.5 -64 13.5h-52l4 23l116 117l38 26l-48 -6h-121l13 60h243l-7 -33l-124 -124l-26 -18l-1 -2l22 3c25.333 0 46.833 -8.16699 64.5 -24.5s26.5 -38.5 26.5 -66.5c0 -21.333 -3.33301 -41.833 -10 -61.5s-17.334 -37 -32.001 -52s-33.834 -26.833 -57.501 -35.5
s-52.834 -13 -87.501 -13c-22.667 0 -41.834 2 -57.501 6s-29.167 8.33301 -40.5 13l26 60c9.33301 -5.33301 21 -9.83301 35 -13.5s29.667 -5.5 47 -5.5z" />
    <glyph glyph-name="questiondown" unicode="&#xbf;" horiz-adv-x="413" 
d="M306 323c-3.33301 -33.333 -11.667 -62.5049 -25 -87.5049s-29 -47.667 -47 -68s-36.833 -39.166 -56.5 -56.499s-37.667 -35 -54 -53s-30 -37 -41 -57s-16.5 -43 -16.5 -69s6.83301 -45.833 20.5 -59.5s37.5 -20.5 71.5 -20.5c23.333 0 46.333 4.5 69 13.5
s43.667 19.167 63 30.5l20 -58c-13.333 -8 -26.333 -15 -39 -21s-26 -11.167 -40 -15.5s-29.167 -7.66602 -45.5 -9.99902s-34.833 -3.5 -55.5 -3.5c-49.333 0 -85.666 11.333 -108.999 34s-35 52 -35 88s5.66699 67.167 17 93.5s25.666 49.833 42.999 70.5
s36.5 39.834 57.5 57.501s41 35.834 60 54.501s35.667 38.834 50 60.501s23.833 47.167 28.5 76.5h64zM233.999 453.995c0 18 5.33301 32.167 16 42.5s24.667 15.5 42 15.5s31.333 -5.16699 42 -15.5s16 -24.5 16 -42.5c0 -17.333 -5.33301 -31.333 -16 -42
s-24.667 -16 -42 -16s-31.333 5.33301 -42 16s-16 24.667 -16 42z" />
    <glyph glyph-name="Agrave" unicode="&#xc0;" horiz-adv-x="557" 
d="M404 194h-244l-108 -194h-85l404 711h37l101 -711h-77zM199 266h197l-29 213l-2 106h-1l-45 -108zM456 752h-63l-129 97l4 21h101z" />
    <glyph glyph-name="Aacute" unicode="&#xc1;" horiz-adv-x="557" 
d="M404 194h-244l-108 -194h-85l404 711h37l101 -711h-77zM199 266h197l-29 213l-2 106h-1l-45 -108zM467 870h116l-5 -21l-175 -97h-73z" />
    <glyph glyph-name="Acircumflex" unicode="&#xc2;" horiz-adv-x="557" 
d="M404 194h-244l-108 -194h-85l404 711h37l101 -711h-77zM199 266h197l-29 213l-2 106h-1l-45 -108zM392 870h48l99 -102l-4 -21h-68l-46 49l-10 35l-25 -34l-71 -50h-75l5 22z" />
    <glyph glyph-name="Atilde" unicode="&#xc3;" horiz-adv-x="557" 
d="M404 194h-244l-108 -194h-85l404 711h37l101 -711h-77zM199 266h197l-29 213l-2 106h-1l-45 -108zM256 785c23.333 21.333 44.165 35.832 62.498 43.499s35.166 11.5 50.499 11.5c12 0 23.167 -1.66699 33.5 -5s20.333 -7.16602 30 -11.499s19.167 -8.16602 28.5 -11.499
s19 -5 29 -5c16.667 0 34.334 7 53.001 21l16 -43c-21.333 -17.333 -40.166 -29 -56.499 -35s-31.166 -9 -44.499 -9c-12 0 -23 1.66699 -33 5s-19.833 7.16602 -29.5 11.499s-19.167 8.16602 -28.5 11.499s-19 5 -29 5s-20.5 -2.16699 -31.5 -6.5
s-23.167 -12.166 -36.5 -23.499z" />
    <glyph glyph-name="Adieresis" unicode="&#xc4;" horiz-adv-x="557" 
d="M404 194h-244l-108 -194h-85l404 711h37l101 -711h-77zM199 266h197l-29 213l-2 106h-1l-45 -108zM263 794c0 13.333 4.66699 24.5 14 33.5s21.666 13.5 36.999 13.5s27.5 -4.5 36.5 -13.5s13.5 -20.167 13.5 -33.5s-4.5 -24.333 -13.5 -33s-21.167 -13 -36.5 -13
s-27.666 4.33301 -36.999 13s-14 19.667 -14 33zM446 794c0 13.333 4.5 24.5 13.5 33.5s21.167 13.5 36.5 13.5s27.666 -4.5 36.999 -13.5s14 -20.167 14 -33.5s-4.66699 -24.333 -14 -33s-21.666 -13 -36.999 -13s-27.5 4.33301 -36.5 13s-13.5 19.667 -13.5 33z" />
    <glyph glyph-name="Aring" unicode="&#xc5;" horiz-adv-x="557" 
d="M296 768c0 24.667 8.33203 45 24.999 61s43.334 24 80.001 24c33.333 0 59.333 -7.16699 78 -21.5s28 -35.5 28 -63.5c0 -23.333 -8 -42.5 -24 -57.5s-40 -23.5 -72 -25.5l98 -685h-77l-28 194h-244l-108 -194h-85l392 690c-42 11.333 -63 37.333 -63 78zM198.999 265
h197l-29 214l-2 106h-1l-45 -108zM356.999 768c0 -11.333 3.49805 -20.833 10.498 -28.5s18.167 -11.5 33.5 -11.5c14.667 0 25.834 3.66699 33.501 11s11.5 17 11.5 29c0 12.667 -3.66699 22.834 -11 30.501s-18.666 11.5 -33.999 11.5
c-14.667 0 -25.667 -3.83301 -33 -11.5s-11 -17.834 -11 -30.501z" />
    <glyph glyph-name="AE" unicode="&#xc6;" horiz-adv-x="805" 
d="M459 599l-51 -101l-174 -229h157l71 330h-3zM377 197h-199l-148 -197h-92l541 700h366l-15 -74h-283l-49 -229h259l-16 -74h-258l-54 -249h288l-15 -74h-287h-80z" />
    <glyph glyph-name="Ccedilla" unicode="&#xc7;" horiz-adv-x="544" 
d="M480 29c-21.333 -14.667 -44.1689 -25.002 -68.502 -31.002s-52.166 -9.33301 -83.499 -10l-24 -31c18 -2 32.833 -8.83301 44.5 -20.5s17.5 -28.167 17.5 -49.5c0 -28 -10.5 -51 -31.5 -69s-52.5 -27 -94.5 -27c-8 0 -16.5 0.5 -25.5 1.5s-18.167 2.16699 -27.5 3.5
l17 39c3.33301 -0.666992 6.83301 -1 10.5 -1h10.5c14 0 25.667 1.33301 35 4s16.666 5.83398 21.999 9.50098s9 7.83398 11 12.501s3 9 3 13c0 12.667 -7 22 -21 28s-32.667 9 -56 9l58 81c-32.667 4.66699 -61.667 15.167 -87 31.5s-46.833 36.833 -64.5 61.5
s-31.167 53.167 -40.5 85.5s-14 67.166 -14 104.499c0 75.333 11 140.5 33 195.5s51 100.5 87 136.5s76.5 62.667 121.5 80s90.5 26 136.5 26c38 0 69 -2.66699 93 -8s43.667 -11.666 59 -18.999l-36 -73c-13.333 7.33301 -30.833 13.5 -52.5 18.5s-46.5 7.5 -74.5 7.5
c-37.333 0 -73.166 -8.16699 -107.499 -24.5s-64.5 -39.833 -90.5 -70.5s-46.667 -68 -62 -112s-23 -93.333 -23 -148c0 -32 4.16699 -61.5 12.5 -88.5s20.333 -50.333 36 -70s35 -35 58 -46s49.167 -16.5 78.5 -16.5c31.333 0 57.333 3.5 78 10.5
s39.334 15.167 56.001 24.5z" />
    <glyph glyph-name="Egrave" unicode="&#xc8;" horiz-adv-x="510" 
d="M189 700h361l-15 -74h-283l-49 -229h259l-15 -74h-259l-53 -249h288l-16 -74h-288h-79zM422 752h-63l-129 97l4 21h101z" />
    <glyph glyph-name="Eacute" unicode="&#xc9;" horiz-adv-x="510" 
d="M189 700h361l-15 -74h-283l-49 -229h259l-15 -74h-259l-53 -249h288l-16 -74h-288h-79zM451 870h116l-5 -21l-175 -97h-73z" />
    <glyph glyph-name="Ecircumflex" unicode="&#xca;" horiz-adv-x="510" 
d="M189 700h361l-15 -74h-283l-49 -229h259l-15 -74h-259l-53 -249h288l-16 -74h-288h-79zM381 870h48l99 -102l-4 -21h-68l-46 49l-10 35l-25 -34l-71 -50h-75l5 22z" />
    <glyph glyph-name="Edieresis" unicode="&#xcb;" horiz-adv-x="510" 
d="M189 700h361l-15 -74h-283l-49 -229h259l-15 -74h-259l-53 -249h288l-16 -74h-288h-79zM240 794c0 13.333 4.66699 24.5 14 33.5s21.666 13.5 36.999 13.5s27.5 -4.5 36.5 -13.5s13.5 -20.167 13.5 -33.5s-4.5 -24.333 -13.5 -33s-21.167 -13 -36.5 -13
s-27.666 4.33301 -36.999 13s-14 19.667 -14 33zM423 794c0 13.333 4.5 24.5 13.5 33.5s21.167 13.5 36.5 13.5s27.666 -4.5 36.999 -13.5s14 -20.167 14 -33.5s-4.66699 -24.333 -14 -33s-21.666 -13 -36.999 -13s-27.5 4.33301 -36.5 13s-13.5 19.667 -13.5 33z" />
    <glyph glyph-name="Igrave" unicode="&#xcc;" horiz-adv-x="277" 
d="M210 700h80l-148 -700h-80zM317 752h-63l-129 97l4 21h101z" />
    <glyph glyph-name="Iacute" unicode="&#xcd;" horiz-adv-x="277" 
d="M210 700h80l-148 -700h-80zM326 870h116l-5 -21l-175 -97h-73z" />
    <glyph glyph-name="Icircumflex" unicode="&#xce;" horiz-adv-x="277" 
d="M210 700h80l-148 -700h-80zM263 870h48l99 -102l-4 -21h-68l-46 49l-10 35l-25 -34l-71 -50h-75l5 22z" />
    <glyph glyph-name="Idieresis" unicode="&#xcf;" horiz-adv-x="277" 
d="M210 700h80l-148 -700h-80zM123 794c0 13.333 4.66699 24.5 14 33.5s21.666 13.5 36.999 13.5s27.5 -4.5 36.5 -13.5s13.5 -20.167 13.5 -33.5s-4.5 -24.333 -13.5 -33s-21.167 -13 -36.5 -13s-27.666 4.33301 -36.999 13s-14 19.667 -14 33zM306 794
c0 13.333 4.5 24.5 13.5 33.5s21.167 13.5 36.5 13.5s27.666 -4.5 36.999 -13.5s14 -20.167 14 -33.5s-4.66699 -24.333 -14 -33s-21.666 -13 -36.999 -13s-27.5 4.33301 -36.5 13s-13.5 19.667 -13.5 33z" />
    <glyph glyph-name="Eth" unicode="&#xd0;" horiz-adv-x="626" 
d="M41 392l85.999 -0.00390625l66 308c25.333 3.33301 54 5.5 86 6.5s61 1.5 87 1.5c38.667 0 74 -5.16699 106 -15.5s59.167 -26.166 81.5 -47.499s39.5 -48.333 51.5 -81s18 -71 18 -115c0 -29.333 -2.66699 -61.166 -8 -95.499s-14.166 -68.333 -26.499 -102
s-28.833 -66.167 -49.5 -97.5s-46.334 -59.166 -77.001 -83.499s-66.5 -43.666 -107.5 -57.999s-88.5 -21.5 -142.5 -21.5c-10 0 -23.167 0.166992 -39.5 0.5s-33.166 0.833008 -50.499 1.5c-45.333 2.66699 -71.333 4.66699 -78 6l71 333h-87zM359.999 633.996
c-8 0 -16.998 -0.166992 -26.998 -0.5l-29 -1c-9.33301 -0.333008 -18.333 -0.833008 -27 -1.5s-15.334 -1.33398 -20.001 -2.00098l-50 -237h137l-12 -60h-138l-55 -263c2.66699 -0.666992 8 -1.16699 16 -1.5s16.5 -0.666016 25.5 -0.999023l26 -1
c8.33301 -0.333008 14.166 -0.5 17.499 -0.5c58 0 106.833 12 146.5 36s72 54.333 97 91s43.167 77 54.5 121s17 85.667 17 125c0 30 -3.33301 57 -10 81s-17.167 44.5 -31.5 61.5s-32.833 30.167 -55.5 39.5s-50 14 -82 14z" />
    <glyph glyph-name="Ntilde" unicode="&#xd1;" horiz-adv-x="642" 
d="M261 458l-34 103h-3l-12 -103l-97 -458h-75l151 711h40l218 -468l33 -98h4l9 98l98 457h75l-151 -711h-37zM289 785c23.333 21.333 44.165 35.832 62.498 43.499s35.166 11.5 50.499 11.5c12 0 23.167 -1.66699 33.5 -5s20.333 -7.16602 30 -11.499
s19.167 -8.16602 28.5 -11.499s19 -5 29 -5c16.667 0 34.334 7 53.001 21l16 -43c-21.333 -17.333 -40.166 -29 -56.499 -35s-31.166 -9 -44.499 -9c-12 0 -23 1.66699 -33 5s-19.833 7.16602 -29.5 11.499s-19.167 8.16602 -28.5 11.499s-19 5 -29 5
s-20.5 -2.16699 -31.5 -6.5s-23.167 -12.166 -36.5 -23.499z" />
    <glyph glyph-name="Ograve" unicode="&#xd2;" horiz-adv-x="651" 
d="M71 256c0 61.333 8.33301 119.668 25 175.001s40.5 103.833 71.5 145.5s68.333 74.667 112 99s92.167 36.5 145.5 36.5c32 0 61.667 -4.83301 89 -14.5s50.833 -25 70.5 -46s35 -48.167 46 -81.5s16.5 -74 16.5 -122c0 -62.667 -8.33301 -121.834 -25 -177.501
s-40 -104.5 -70 -146.5s-65.833 -75.167 -107.5 -99.5s-87.5 -36.5 -137.5 -36.5c-78.667 0 -137.667 22.833 -177 68.5s-59 112.167 -59 199.5zM155 257.002c0 -62.667 12.998 -111.167 38.998 -145.5s64.333 -51.5 115 -51.5c37.333 0 71.5 10.333 102.5 31
s57.833 48.667 80.5 84s40.167 76.333 52.5 123s18.5 96 18.5 148c0 38.667 -4.33301 70.667 -13 96s-20.167 45.166 -34.5 59.499s-30.666 24.333 -48.999 30s-36.833 8.5 -55.5 8.5c-38 0 -72.667 -10.5 -104 -31.5s-58.166 -49.167 -80.499 -84.5
s-39.833 -76.166 -52.5 -122.499s-19 -94.5 -19 -144.5zM502.998 752.002h-63l-129 97l4 21h101z" />
    <glyph glyph-name="Oacute" unicode="&#xd3;" horiz-adv-x="651" 
d="M71 256c0 61.333 8.33301 119.668 25 175.001s40.5 103.833 71.5 145.5s68.333 74.667 112 99s92.167 36.5 145.5 36.5c32 0 61.667 -4.83301 89 -14.5s50.833 -25 70.5 -46s35 -48.167 46 -81.5s16.5 -74 16.5 -122c0 -62.667 -8.33301 -121.834 -25 -177.501
s-40 -104.5 -70 -146.5s-65.833 -75.167 -107.5 -99.5s-87.5 -36.5 -137.5 -36.5c-78.667 0 -137.667 22.833 -177 68.5s-59 112.167 -59 199.5zM155 257.002c0 -62.667 12.998 -111.167 38.998 -145.5s64.333 -51.5 115 -51.5c37.333 0 71.5 10.333 102.5 31
s57.833 48.667 80.5 84s40.167 76.333 52.5 123s18.5 96 18.5 148c0 38.667 -4.33301 70.667 -13 96s-20.167 45.166 -34.5 59.499s-30.666 24.333 -48.999 30s-36.833 8.5 -55.5 8.5c-38 0 -72.667 -10.5 -104 -31.5s-58.166 -49.167 -80.499 -84.5
s-39.833 -76.166 -52.5 -122.499s-19 -94.5 -19 -144.5zM531.998 870.002h116l-5 -21l-175 -97h-73z" />
    <glyph glyph-name="Ocircumflex" unicode="&#xd4;" horiz-adv-x="651" 
d="M71 256c0 61.333 8.33301 119.668 25 175.001s40.5 103.833 71.5 145.5s68.333 74.667 112 99s92.167 36.5 145.5 36.5c32 0 61.667 -4.83301 89 -14.5s50.833 -25 70.5 -46s35 -48.167 46 -81.5s16.5 -74 16.5 -122c0 -62.667 -8.33301 -121.834 -25 -177.501
s-40 -104.5 -70 -146.5s-65.833 -75.167 -107.5 -99.5s-87.5 -36.5 -137.5 -36.5c-78.667 0 -137.667 22.833 -177 68.5s-59 112.167 -59 199.5zM155 257.002c0 -62.667 12.998 -111.167 38.998 -145.5s64.333 -51.5 115 -51.5c37.333 0 71.5 10.333 102.5 31
s57.833 48.667 80.5 84s40.167 76.333 52.5 123s18.5 96 18.5 148c0 38.667 -4.33301 70.667 -13 96s-20.167 45.166 -34.5 59.499s-30.666 24.333 -48.999 30s-36.833 8.5 -55.5 8.5c-38 0 -72.667 -10.5 -104 -31.5s-58.166 -49.167 -80.499 -84.5
s-39.833 -76.166 -52.5 -122.499s-19 -94.5 -19 -144.5zM446.998 870.002h48l99 -102l-4 -21h-68l-46 49l-10 35l-25 -34l-71 -50h-75l5 22z" />
    <glyph glyph-name="Otilde" unicode="&#xd5;" horiz-adv-x="651" 
d="M71 256c0 61.333 8.33301 119.668 25 175.001s40.5 103.833 71.5 145.5s68.333 74.667 112 99s92.167 36.5 145.5 36.5c32 0 61.667 -4.83301 89 -14.5s50.833 -25 70.5 -46s35 -48.167 46 -81.5s16.5 -74 16.5 -122c0 -62.667 -8.33301 -121.834 -25 -177.501
s-40 -104.5 -70 -146.5s-65.833 -75.167 -107.5 -99.5s-87.5 -36.5 -137.5 -36.5c-78.667 0 -137.667 22.833 -177 68.5s-59 112.167 -59 199.5zM155 257.002c0 -62.667 12.998 -111.167 38.998 -145.5s64.333 -51.5 115 -51.5c37.333 0 71.5 10.333 102.5 31
s57.833 48.667 80.5 84s40.167 76.333 52.5 123s18.5 96 18.5 148c0 38.667 -4.33301 70.667 -13 96s-20.167 45.166 -34.5 59.499s-30.666 24.333 -48.999 30s-36.833 8.5 -55.5 8.5c-38 0 -72.667 -10.5 -104 -31.5s-58.166 -49.167 -80.499 -84.5
s-39.833 -76.166 -52.5 -122.499s-19 -94.5 -19 -144.5zM297.998 785.002c23.333 21.333 44.165 35.832 62.498 43.499s35.166 11.5 50.499 11.5c12 0 23.167 -1.66699 33.5 -5s20.333 -7.16602 30 -11.499s19.167 -8.16602 28.5 -11.499s19 -5 29 -5
c16.667 0 34.334 7 53.001 21l16 -43c-21.333 -17.333 -40.166 -29 -56.499 -35s-31.166 -9 -44.499 -9c-12 0 -23 1.66699 -33 5s-19.833 7.16602 -29.5 11.499s-19.167 8.16602 -28.5 11.499s-19 5 -29 5s-20.5 -2.16699 -31.5 -6.5s-23.167 -12.166 -36.5 -23.499z" />
    <glyph glyph-name="Odieresis" unicode="&#xd6;" horiz-adv-x="651" 
d="M71 256c0 61.333 8.33301 119.668 25 175.001s40.5 103.833 71.5 145.5s68.333 74.667 112 99s92.167 36.5 145.5 36.5c32 0 61.667 -4.83301 89 -14.5s50.833 -25 70.5 -46s35 -48.167 46 -81.5s16.5 -74 16.5 -122c0 -62.667 -8.33301 -121.834 -25 -177.501
s-40 -104.5 -70 -146.5s-65.833 -75.167 -107.5 -99.5s-87.5 -36.5 -137.5 -36.5c-78.667 0 -137.667 22.833 -177 68.5s-59 112.167 -59 199.5zM155 257.002c0 -62.667 12.998 -111.167 38.998 -145.5s64.333 -51.5 115 -51.5c37.333 0 71.5 10.333 102.5 31
s57.833 48.667 80.5 84s40.167 76.333 52.5 123s18.5 96 18.5 148c0 38.667 -4.33301 70.667 -13 96s-20.167 45.166 -34.5 59.499s-30.666 24.333 -48.999 30s-36.833 8.5 -55.5 8.5c-38 0 -72.667 -10.5 -104 -31.5s-58.166 -49.167 -80.499 -84.5
s-39.833 -76.166 -52.5 -122.499s-19 -94.5 -19 -144.5zM306.998 794.002c0 13.333 4.66699 24.5 14 33.5s21.666 13.5 36.999 13.5s27.5 -4.5 36.5 -13.5s13.5 -20.167 13.5 -33.5s-4.5 -24.333 -13.5 -33s-21.167 -13 -36.5 -13s-27.666 4.33301 -36.999 13
s-14 19.667 -14 33zM489.998 794.002c0 13.333 4.5 24.5 13.5 33.5s21.167 13.5 36.5 13.5s27.666 -4.5 36.999 -13.5s14 -20.167 14 -33.5s-4.66699 -24.333 -14 -33s-21.666 -13 -36.999 -13s-27.5 4.33301 -36.5 13s-13.5 19.667 -13.5 33z" />
    <glyph glyph-name="multiply" unicode="&#xd7;" horiz-adv-x="480" 
d="M138 517l127 -127l127 127l51 -53l-126 -125l126 -127l-51 -52l-127 127l-126 -128l-52 51l127 129l-127 125z" />
    <glyph glyph-name="Oslash" unicode="&#xd8;" horiz-adv-x="651" 
d="M71 256c0 61.333 8.33301 119.667 25 175s40.5 103.833 71.5 145.5s68.333 74.667 112 99s92.167 36.5 145.5 36.5c26 0 50.5 -3.16699 73.5 -9.5s43.5 -16.166 61.5 -29.499l29 39l49 -38l-35 -47c14 -20.667 24.833 -45.667 32.5 -75s11.5 -64 11.5 -104
c0 -62.667 -8.33301 -121.834 -25 -177.501s-40 -104.5 -70 -146.5s-65.833 -75.167 -107.5 -99.5s-87.5 -36.5 -137.5 -36.5c-58.667 0 -107 13.333 -145 40l-29 -39l-50 39l34 46c-30.667 43.333 -46 104 -46 182zM155 257.001c0 -42 5.99902 -78.001 17.999 -108.001
l337 456c-14 12.667 -29.5 21.667 -46.5 27s-34.5 8 -52.5 8c-38 0 -72.667 -10.5 -104 -31.5s-58.166 -49.167 -80.499 -84.5s-39.833 -76.166 -52.5 -122.499s-19 -94.5 -19 -144.5zM562.999 446c0 21.333 -1.33301 40.668 -4 58.001s-6.66699 32.666 -12 45.999
l-337 -456c26 -22.667 59 -34 99 -34c37.333 0 71.5 10.333 102.5 31s57.833 48.667 80.5 84s40.167 76.333 52.5 123s18.5 96 18.5 148z" />
    <glyph glyph-name="Ugrave" unicode="&#xd9;" horiz-adv-x="618" 
d="M573 700l76 0.000976562l-98 -467c-9.33301 -42.667 -21 -79.334 -35 -110.001s-31.5 -55.667 -52.5 -75s-46.167 -33.666 -75.5 -42.999s-63.333 -14 -102 -14c-36.667 0 -67.667 4.16699 -93 12.5s-45.833 20 -61.5 35s-27 33.333 -34 55s-10.5 45.5 -10.5 71.5
c0 27.333 3.66699 58.333 11 93l93 442h80l-93 -443c-7.33301 -29.333 -11 -56 -11 -80c0 -42 11 -71.167 33 -87.5s54.667 -24.5 98 -24.5c26 0 48.833 3.66699 68.5 11s36.667 18.666 51 33.999s26.333 35 36 59s18.167 53 25.5 87zM499 752.001h-63l-129 97l4 21h101z
" />
    <glyph glyph-name="Uacute" unicode="&#xda;" horiz-adv-x="618" 
d="M573 700l76 0.000976562l-98 -467c-9.33301 -42.667 -21 -79.334 -35 -110.001s-31.5 -55.667 -52.5 -75s-46.167 -33.666 -75.5 -42.999s-63.333 -14 -102 -14c-36.667 0 -67.667 4.16699 -93 12.5s-45.833 20 -61.5 35s-27 33.333 -34 55s-10.5 45.5 -10.5 71.5
c0 27.333 3.66699 58.333 11 93l93 442h80l-93 -443c-7.33301 -29.333 -11 -56 -11 -80c0 -42 11 -71.167 33 -87.5s54.667 -24.5 98 -24.5c26 0 48.833 3.66699 68.5 11s36.667 18.666 51 33.999s26.333 35 36 59s18.167 53 25.5 87zM508 870.001h116l-5 -21l-175 -97h-73z
" />
    <glyph glyph-name="Ucircumflex" unicode="&#xdb;" horiz-adv-x="618" 
d="M573 700l76 0.000976562l-98 -467c-9.33301 -42.667 -21 -79.334 -35 -110.001s-31.5 -55.667 -52.5 -75s-46.167 -33.666 -75.5 -42.999s-63.333 -14 -102 -14c-36.667 0 -67.667 4.16699 -93 12.5s-45.833 20 -61.5 35s-27 33.333 -34 55s-10.5 45.5 -10.5 71.5
c0 27.333 3.66699 58.333 11 93l93 442h80l-93 -443c-7.33301 -29.333 -11 -56 -11 -80c0 -42 11 -71.167 33 -87.5s54.667 -24.5 98 -24.5c26 0 48.833 3.66699 68.5 11s36.667 18.666 51 33.999s26.333 35 36 59s18.167 53 25.5 87zM434 870.001h48l99 -102l-4 -21h-68
l-46 49l-10 35l-25 -34l-71 -50h-75l5 22z" />
    <glyph glyph-name="Udieresis" unicode="&#xdc;" horiz-adv-x="618" 
d="M573 700l76 0.000976562l-98 -467c-9.33301 -42.667 -21 -79.334 -35 -110.001s-31.5 -55.667 -52.5 -75s-46.167 -33.666 -75.5 -42.999s-63.333 -14 -102 -14c-36.667 0 -67.667 4.16699 -93 12.5s-45.833 20 -61.5 35s-27 33.333 -34 55s-10.5 45.5 -10.5 71.5
c0 27.333 3.66699 58.333 11 93l93 442h80l-93 -443c-7.33301 -29.333 -11 -56 -11 -80c0 -42 11 -71.167 33 -87.5s54.667 -24.5 98 -24.5c26 0 48.833 3.66699 68.5 11s36.667 18.666 51 33.999s26.333 35 36 59s18.167 53 25.5 87zM296 794.001
c0 13.333 4.66699 24.5 14 33.5s21.666 13.5 36.999 13.5s27.5 -4.5 36.5 -13.5s13.5 -20.167 13.5 -33.5s-4.5 -24.333 -13.5 -33s-21.167 -13 -36.5 -13s-27.666 4.33301 -36.999 13s-14 19.667 -14 33zM479 794.001c0 13.333 4.5 24.5 13.5 33.5s21.167 13.5 36.5 13.5
s27.666 -4.5 36.999 -13.5s14 -20.167 14 -33.5s-4.66699 -24.333 -14 -33s-21.666 -13 -36.999 -13s-27.5 4.33301 -36.5 13s-13.5 19.667 -13.5 33z" />
    <glyph glyph-name="Yacute" unicode="&#xdd;" horiz-adv-x="531" 
d="M241 278l-133 422h87l89 -306l3 -61h1l30 63l217 304h90l-304 -421l-59 -279h-80zM474 870h116l-5 -21l-175 -97h-73z" />
    <glyph glyph-name="Thorn" unicode="&#xde;" horiz-adv-x="532" 
d="M189 700l79 0.000976562l-16 -75c26.667 2 53.667 3 81 3c30.667 0 59 -3.33301 85 -10s48.667 -17.334 68 -32.001s34.666 -33.5 45.999 -56.5s17 -50.5 17 -82.5c0 -50.667 -9 -93 -27 -127s-42 -61.333 -72 -82s-63.667 -35.334 -101 -44.001s-75 -13 -113 -13h-15.5
c-7 0 -14.5 0.166992 -22.5 0.5s-15.667 0.833008 -23 1.5s-12.666 1.33398 -15.999 2.00098l-39 -185h-80zM316 555.001c-15.333 0 -30.1699 -0.5 -44.5029 -1.5s-26.166 -2.5 -35.499 -4.5l-61 -290c2.66699 -1.33301 7.16699 -2.16602 13.5 -2.49902
s13 -0.833008 20 -1.5s13.833 -1 20.5 -1h15c28.667 0 56.334 3 83.001 9s50.334 16.167 71.001 30.5s37 33.333 49 57s18 53.167 18 88.5c0 24 -4 43.5 -12 58.5s-18.833 26.667 -32.5 35s-29.5 14.166 -47.5 17.499s-37 5 -57 5z" />
    <glyph glyph-name="germandbls" unicode="&#xdf;" horiz-adv-x="559" 
d="M174 528c13.333 63.333 38.1631 108.839 74.4961 136.506s82.166 41.5 137.499 41.5c28 0 51.667 -3.33301 71 -10s35 -15.5 47 -26.5s20.833 -23.667 26.5 -38s8.5 -28.833 8.5 -43.5c0 -23.333 -4.16699 -43 -12.5 -59s-18.666 -30 -30.999 -42
s-25.833 -22.5 -40.5 -31.5s-28.167 -18 -40.5 -27s-22.666 -18.5 -30.999 -28.5s-12.5 -22 -12.5 -36c0 -12.667 3.83301 -22.834 11.5 -30.501s17.334 -14.5 29.001 -20.5s24.334 -12.167 38.001 -18.5s26.334 -14.5 38.001 -24.5s21.334 -22.5 29.001 -37.5
s11.5 -34.5 11.5 -58.5c0 -26 -5.83301 -50.333 -17.5 -73s-27.334 -42.334 -47.001 -59.001s-42.667 -29.834 -69 -39.501s-54.166 -14.5 -83.499 -14.5c-23.333 0 -45 2.16699 -65 6.5s-38 11.5 -54 21.5l36 67c26.667 -16.667 57 -25 91 -25c14 0 28.667 2.5 44 7.5
s29.166 12.167 41.499 21.5s22.666 20.833 30.999 34.5s12.5 29.5 12.5 47.5c0 15.333 -3.83301 28 -11.5 38s-17.334 18.667 -29.001 26s-24.167 14.166 -37.5 20.499s-26 14 -38 23s-21.833 20.167 -29.5 33.5s-11.5 30.333 -11.5 51c0 20 4.16699 37 12.5 51
s18.833 26.667 31.5 38s26.334 21.666 41.001 30.999s28.334 18.666 41.001 27.999s22.834 19.333 30.501 30s11.5 23 11.5 37c0 20 -7.33301 35 -22 45s-35.334 15 -62.001 15c-72.667 0.666992 -116.667 -45.333 -132 -138l-96 -498c-6 -36.667 -13 -68 -21 -94
s-18 -47.5 -30 -64.5s-26.667 -29.5 -44 -37.5s-38.333 -12 -63 -12c-20 0 -38.5 1.5 -55.5 4.5s-32.833 8.16699 -47.5 15.5l22 56c13.333 -4.66699 25.5 -7.66699 36.5 -9s24.5 -2 40.5 -2c25.333 0 44.333 13 57 39s22.667 60.667 30 104l82 436h-86l13 64h86l7 28v0z
" />
    <glyph glyph-name="agrave" unicode="&#xe0;" horiz-adv-x="487" 
d="M414 197c-5.33301 -24.667 -8.99902 -49.668 -10.999 -75.001s-3 -49 -3 -71v-28.5c0 -9 0.666992 -17.167 2 -24.5h-56l-14 87h-4c-8 -11.333 -17.833 -22.833 -29.5 -34.5s-24.5 -22.167 -38.5 -31.5s-29 -16.833 -45 -22.5s-33 -8.5 -51 -8.5
c-79.333 0 -119 51.667 -119 155c0 42.667 5.5 86 16.5 130s28 83.667 51 119s52.667 64.333 89 87s80.166 34 131.499 34c18.667 0 41.5 -2.16699 68.5 -6.5s52.167 -10.166 75.5 -17.499zM187.001 51.999c16 0 31.333 3.83398 46 11.501s28.5 17.167 41.5 28.5
s24.5 23.5 34.5 36.5s18 25.167 24 36.5l56 270c-20 9.33301 -45.333 14 -76 14s-57.667 -9 -81 -27s-43 -41.5 -59 -70.5s-28 -61.833 -36 -98.5s-12 -73.334 -12 -110.001c0 -25.333 5 -46.833 15 -64.5s25.667 -26.5 47 -26.5zM359.001 571h-43l-81 128l4 21h91z" />
    <glyph glyph-name="aacute" unicode="&#xe1;" horiz-adv-x="487" 
d="M414 197c-5.33301 -24.667 -8.99902 -49.668 -10.999 -75.001s-3 -49 -3 -71v-28.5c0 -9 0.666992 -17.167 2 -24.5h-56l-14 87h-4c-8 -11.333 -17.833 -22.833 -29.5 -34.5s-24.5 -22.167 -38.5 -31.5s-29 -16.833 -45 -22.5s-33 -8.5 -51 -8.5
c-79.333 0 -119 51.667 -119 155c0 42.667 5.5 86 16.5 130s28 83.667 51 119s52.667 64.333 89 87s80.166 34 131.499 34c18.667 0 41.5 -2.16699 68.5 -6.5s52.167 -10.166 75.5 -17.499zM187.001 51.999c16 0 31.333 3.83398 46 11.501s28.5 17.167 41.5 28.5
s24.5 23.5 34.5 36.5s18 25.167 24 36.5l56 270c-20 9.33301 -45.333 14 -76 14s-57.667 -9 -81 -27s-43 -41.5 -59 -70.5s-28 -61.833 -36 -98.5s-12 -73.334 -12 -110.001c0 -25.333 5 -46.833 15 -64.5s25.667 -26.5 47 -26.5zM392.001 720h84l-5 -21l-123 -128h-44z" />
    <glyph glyph-name="acircumflex" unicode="&#xe2;" horiz-adv-x="487" 
d="M414 197c-5.33301 -24.667 -8.99902 -49.668 -10.999 -75.001s-3 -49 -3 -71v-28.5c0 -9 0.666992 -17.167 2 -24.5h-56l-14 87h-4c-8 -11.333 -17.833 -22.833 -29.5 -34.5s-24.5 -22.167 -38.5 -31.5s-29 -16.833 -45 -22.5s-33 -8.5 -51 -8.5
c-79.333 0 -119 51.667 -119 155c0 42.667 5.5 86 16.5 130s28 83.667 51 119s52.667 64.333 89 87s80.166 34 131.499 34c18.667 0 41.5 -2.16699 68.5 -6.5s52.167 -10.166 75.5 -17.499zM187.001 51.999c16 0 31.333 3.83398 46 11.501s28.5 17.167 41.5 28.5
s24.5 23.5 34.5 36.5s18 25.167 24 36.5l56 270c-20 9.33301 -45.333 14 -76 14s-57.667 -9 -81 -27s-43 -41.5 -59 -70.5s-28 -61.833 -36 -98.5s-12 -73.334 -12 -110.001c0 -25.333 5 -46.833 15 -64.5s25.667 -26.5 47 -26.5zM358.001 732h30l66 -182h-63l-24 66l-6 58
l-34 -58l-57 -66h-68z" />
    <glyph glyph-name="atilde" unicode="&#xe3;" horiz-adv-x="487" 
d="M414 197c-5.33301 -24.667 -8.99902 -49.668 -10.999 -75.001s-3 -49 -3 -71v-28.5c0 -9 0.666992 -17.167 2 -24.5h-56l-14 87h-4c-8 -11.333 -17.833 -22.833 -29.5 -34.5s-24.5 -22.167 -38.5 -31.5s-29 -16.833 -45 -22.5s-33 -8.5 -51 -8.5
c-79.333 0 -119 51.667 -119 155c0 42.667 5.5 86 16.5 130s28 83.667 51 119s52.667 64.333 89 87s80.166 34 131.499 34c18.667 0 41.5 -2.16699 68.5 -6.5s52.167 -10.166 75.5 -17.499zM187.001 51.999c16 0 31.333 3.83398 46 11.501s28.5 17.167 41.5 28.5
s24.5 23.5 34.5 36.5s18 25.167 24 36.5l56 270c-20 9.33301 -45.333 14 -76 14s-57.667 -9 -81 -27s-43 -41.5 -59 -70.5s-28 -61.833 -36 -98.5s-12 -73.334 -12 -110.001c0 -25.333 5 -46.833 15 -64.5s25.667 -26.5 47 -26.5zM217.001 656
c21.333 22 39.832 37.166 55.499 45.499s29.5 12.5 41.5 12.5c10 0 19 -2.16699 27 -6.5s15.833 -9 23.5 -14s15.334 -9.5 23.001 -13.5s16.167 -6 25.5 -6c15.333 0 33.333 8 54 24l15 -43c-19.333 -19.333 -36 -32.666 -50 -39.999s-26.667 -11 -38 -11c-10 0 -19 2 -27 6
s-15.833 8.5 -23.5 13.5s-15.5 9.5 -23.5 13.5s-17 6 -27 6c-8.66699 0 -18 -2.16699 -28 -6.5s-21.667 -11.833 -35 -22.5z" />
    <glyph glyph-name="adieresis" unicode="&#xe4;" horiz-adv-x="487" 
d="M414 197c-5.33301 -24.667 -8.99902 -49.668 -10.999 -75.001s-3 -49 -3 -71v-28.5c0 -9 0.666992 -17.167 2 -24.5h-56l-14 87h-4c-8 -11.333 -17.833 -22.833 -29.5 -34.5s-24.5 -22.167 -38.5 -31.5s-29 -16.833 -45 -22.5s-33 -8.5 -51 -8.5
c-79.333 0 -119 51.667 -119 155c0 42.667 5.5 86 16.5 130s28 83.667 51 119s52.667 64.333 89 87s80.166 34 131.499 34c18.667 0 41.5 -2.16699 68.5 -6.5s52.167 -10.166 75.5 -17.499zM187.001 51.999c16 0 31.333 3.83398 46 11.501s28.5 17.167 41.5 28.5
s24.5 23.5 34.5 36.5s18 25.167 24 36.5l56 270c-20 9.33301 -45.333 14 -76 14s-57.667 -9 -81 -27s-43 -41.5 -59 -70.5s-28 -61.833 -36 -98.5s-12 -73.334 -12 -110.001c0 -25.333 5 -46.833 15 -64.5s25.667 -26.5 47 -26.5zM185.001 653
c0 14.667 4.16699 26.834 12.5 36.501s19.5 14.5 33.5 14.5s25.333 -4.83301 34 -14.5s13 -21.834 13 -36.501c0 -13.333 -4.33301 -24.833 -13 -34.5s-20 -14.5 -34 -14.5s-25.167 4.83301 -33.5 14.5s-12.5 21.167 -12.5 34.5zM368.001 654c0 14 4.16699 25.833 12.5 35.5
s19.5 14.5 33.5 14.5c14.667 0 26.167 -4.83301 34.5 -14.5s12.5 -21.5 12.5 -35.5s-4.16699 -25.833 -12.5 -35.5s-19.833 -14.5 -34.5 -14.5c-14 0 -25.167 4.83301 -33.5 14.5s-12.5 21.5 -12.5 35.5z" />
    <glyph glyph-name="aring" unicode="&#xe5;" horiz-adv-x="487" 
d="M414 197c-5.33301 -24.667 -8.99902 -49.668 -10.999 -75.001s-3 -49 -3 -71v-28.5c0 -9 0.666992 -17.167 2 -24.5h-56l-14 87h-4c-8 -11.333 -17.833 -22.833 -29.5 -34.5s-24.5 -22.167 -38.5 -31.5s-29 -16.833 -45 -22.5s-33 -8.5 -51 -8.5
c-79.333 0 -119 51.667 -119 155c0 42.667 5.5 86 16.5 130s28 83.667 51 119s52.667 64.333 89 87s80.166 34 131.499 34c18.667 0 41.5 -2.16699 68.5 -6.5s52.167 -10.166 75.5 -17.499zM187.001 51.999c16 0 31.333 3.83398 46 11.501s28.5 17.167 41.5 28.5
s24.5 23.5 34.5 36.5s18 25.167 24 36.5l56 270c-20 9.33301 -45.333 14 -76 14s-57.667 -9 -81 -27s-43 -41.5 -59 -70.5s-28 -61.833 -36 -98.5s-12 -73.334 -12 -110.001c0 -25.333 5 -46.833 15 -64.5s25.667 -26.5 47 -26.5zM251.001 643
c0 28 8.83301 50.166 26.5 66.499s41.167 24.5 70.5 24.5c28 0 51.333 -7.33301 70 -22s28 -37.667 28 -69c0 -26 -9.33301 -47.5 -28 -64.5s-42 -25.5 -70 -25.5s-51.167 7.83301 -69.5 23.5s-27.5 37.834 -27.5 66.501zM305.001 642.999
c0 -13.333 4.5 -23.668 13.5 -31.001s18.833 -11 29.5 -11c12.667 0 23.167 3.33301 31.5 10s12.5 17.334 12.5 32.001s-4.5 25.5 -13.5 32.5s-19.167 10.5 -30.5 10.5s-21.333 -3.33301 -30 -10s-13 -17.667 -13 -33z" />
    <glyph glyph-name="ae" unicode="&#xe6;" horiz-adv-x="754" 
d="M176 56c18 0 35.1641 4.33008 51.4971 12.9971s31.166 18.834 44.499 30.501s24.833 23.334 34.5 35.001s16.834 21.167 21.501 28.5l8 68c-7.33301 0.666992 -15 1.16699 -23 1.5s-15.667 0.5 -23 0.5c-25.333 0 -49.166 -2 -71.499 -6s-41.666 -10.333 -57.999 -19
s-29.166 -19.5 -38.499 -32.5s-14 -28.833 -14 -47.5c0 -25.333 5.83301 -43.666 17.5 -54.999s28.5 -17 50.5 -17zM331.997 86.9971c-21.333 -26 -47.8379 -48.334 -79.5049 -67.001s-66.5 -28 -104.5 -28c-20.667 0 -38.5 3.33301 -53.5 10s-27.5 15.5 -37.5 26.5
s-17.333 23.667 -22 38s-7 29.166 -7 44.499c0 34 7.33301 62.5 22 85.5s34.5 41.333 59.5 55s54.167 23.5 87.5 29.5s68.333 9 105 9h22.5c7.66699 0 15.167 -0.333008 22.5 -1c13.333 43.333 20 75.666 20 96.999s-6.33301 36.333 -19 45s-33.667 13 -63 13
c-10.667 0 -22.5 -0.833008 -35.5 -2.5s-26.167 -4.16699 -39.5 -7.5s-26.166 -7.16602 -38.499 -11.499s-23.5 -8.83301 -33.5 -13.5l-12 60c28 15.333 58.5 25.666 91.5 30.999s66.5 8 100.5 8c32 0 58.167 -5.66699 78.5 -17s32.833 -27.666 37.5 -48.999
c21.333 24.667 47.166 42.5 77.499 53.5s59.5 16.5 87.5 16.5c49.333 0 86 -10.833 110 -32.5s36 -48.5 36 -80.5c0 -35.333 -8.16699 -63.666 -24.5 -84.999s-39.166 -38 -68.499 -50s-64.666 -20.167 -105.999 -24.5s-86.666 -6.83301 -135.999 -7.5
c-2 -11.333 -3.66699 -22 -5 -32s-2 -19.667 -2 -29c0 -36.667 9.33301 -65.667 28 -87s50.334 -32 95.001 -32c21.333 0 43.5 4.16699 66.5 12.5s41.5 17.5 55.5 27.5l17 -54c-22.667 -16 -49.5 -28.333 -80.5 -37s-62.5 -13 -94.5 -13
c-38.667 0 -71.167 8.83301 -97.5 26.5s-44.166 41.834 -53.499 72.501h-7zM586.992 447.996c-40.667 0 -74.6689 -13.334 -102.002 -40.001s-48.333 -65 -63 -115c32.667 0 63.834 0.833008 93.501 2.5s55.834 5.66699 78.501 12s40.667 15.833 54 28.5s20 30 20 52
c0 16.667 -5.5 30.834 -16.5 42.501s-32.5 17.5 -64.5 17.5z" />
    <glyph glyph-name="ccedilla" unicode="&#xe7;" horiz-adv-x="420" 
d="M365 43c-17.333 -14.667 -37.8271 -26.834 -61.4941 -36.501s-46.167 -15.834 -67.5 -18.501l-25 -31c18 -2 32.833 -8.83301 44.5 -20.5s17.5 -28.167 17.5 -49.5c0 -28 -10.5 -51 -31.5 -69s-52.5 -27 -94.5 -27c-8 0 -16.5 0.5 -25.5 1.5s-18.167 2.16699 -27.5 3.5
l17 39c3.33301 -0.666992 6.83301 -1 10.5 -1h10.5c14 0 25.667 1.33301 35 4s16.666 5.83398 21.999 9.50098s9 7.83398 11 12.501s3 9 3 13c0 12.667 -7 22 -21 28s-32.667 9 -56 9l57 78c-26.667 2.66699 -48.667 9.66699 -66 21s-31 24.833 -41 40.5
s-16.833 32.167 -20.5 49.5s-5.5 33.666 -5.5 48.999c0 56.667 7.66699 107.5 23 152.5s35.833 83.167 61.5 114.5s55.167 55.333 88.5 72s67.666 25 102.999 25c25.333 0 46.166 -2.33301 62.499 -7s31.166 -10 44.499 -16l-28 -62
c-11.333 6.66699 -25.333 11.834 -42 15.501s-34.667 5.5 -54 5.5c-22.667 0 -44.834 -7.66699 -66.501 -23s-40.834 -35.5 -57.501 -60.5s-30 -53.667 -40 -86s-15 -65.5 -15 -99.5c0 -43.333 9 -75.333 27 -96s42.333 -31 73 -31c20 0 41 4.5 63 13.5
s39.667 18.167 53 27.5z" />
    <glyph glyph-name="egrave" unicode="&#xe8;" horiz-adv-x="463" 
d="M389 49c-23.333 -20 -50.8301 -35.1689 -82.4971 -45.502s-63.5 -15.5 -95.5 -15.5c-53.333 0 -93.5 15.333 -120.5 46s-40.5 73.334 -40.5 128.001s7.66699 103.667 23 147s35.5 80 60.5 110s53.333 53 85 69s64.167 24 97.5 24c24 0 44.833 -3.33301 62.5 -10
s32.167 -15.5 43.5 -26.5s19.666 -23.667 24.999 -38s8 -29.5 8 -45.5c0 -47.333 -23 -84.5 -69 -111.5s-113 -40.5 -201 -40.5c-8 0 -16.333 0.166992 -25 0.5s-17.667 0.833008 -27 1.5c-2.66699 -12.667 -4.66699 -24.667 -6 -36s-2 -21.333 -2 -30
c0 -36.667 8.33301 -66.5 25 -89.5s42.667 -34.5 78 -34.5c29.333 0 56.166 4.83301 80.499 14.5s43.166 19.834 56.499 30.501zM304.003 447.998c-36.667 0 -68.498 -12.501 -95.498 -37.501s-47.5 -62.5 -61.5 -112.5c25.333 0 51.666 0.666992 78.999 2
s52.166 4.83301 74.499 10.5s40.833 14.667 55.5 27s22 29.5 22 51.5c0 6.66699 -1.16699 13.5 -3.5 20.5s-6.16602 13.333 -11.499 19s-12.833 10.334 -22.5 14.001s-21.834 5.5 -36.501 5.5zM343.005 570.997h-43l-81 128l4 21h91z" />
    <glyph glyph-name="eacute" unicode="&#xe9;" horiz-adv-x="463" 
d="M389 49c-23.333 -20 -50.8301 -35.1689 -82.4971 -45.502s-63.5 -15.5 -95.5 -15.5c-53.333 0 -93.5 15.333 -120.5 46s-40.5 73.334 -40.5 128.001s7.66699 103.667 23 147s35.5 80 60.5 110s53.333 53 85 69s64.167 24 97.5 24c24 0 44.833 -3.33301 62.5 -10
s32.167 -15.5 43.5 -26.5s19.666 -23.667 24.999 -38s8 -29.5 8 -45.5c0 -47.333 -23 -84.5 -69 -111.5s-113 -40.5 -201 -40.5c-8 0 -16.333 0.166992 -25 0.5s-17.667 0.833008 -27 1.5c-2.66699 -12.667 -4.66699 -24.667 -6 -36s-2 -21.333 -2 -30
c0 -36.667 8.33301 -66.5 25 -89.5s42.667 -34.5 78 -34.5c29.333 0 56.166 4.83301 80.499 14.5s43.166 19.834 56.499 30.501zM304.003 447.998c-36.667 0 -68.498 -12.501 -95.498 -37.501s-47.5 -62.5 -61.5 -112.5c25.333 0 51.666 0.666992 78.999 2
s52.166 4.83301 74.499 10.5s40.833 14.667 55.5 27s22 29.5 22 51.5c0 6.66699 -1.16699 13.5 -3.5 20.5s-6.16602 13.333 -11.499 19s-12.833 10.334 -22.5 14.001s-21.834 5.5 -36.501 5.5zM374.005 719.997h84l-5 -21l-123 -128h-44z" />
    <glyph glyph-name="ecircumflex" unicode="&#xea;" horiz-adv-x="463" 
d="M389 49c-23.333 -20 -50.8301 -35.1689 -82.4971 -45.502s-63.5 -15.5 -95.5 -15.5c-53.333 0 -93.5 15.333 -120.5 46s-40.5 73.334 -40.5 128.001s7.66699 103.667 23 147s35.5 80 60.5 110s53.333 53 85 69s64.167 24 97.5 24c24 0 44.833 -3.33301 62.5 -10
s32.167 -15.5 43.5 -26.5s19.666 -23.667 24.999 -38s8 -29.5 8 -45.5c0 -47.333 -23 -84.5 -69 -111.5s-113 -40.5 -201 -40.5c-8 0 -16.333 0.166992 -25 0.5s-17.667 0.833008 -27 1.5c-2.66699 -12.667 -4.66699 -24.667 -6 -36s-2 -21.333 -2 -30
c0 -36.667 8.33301 -66.5 25 -89.5s42.667 -34.5 78 -34.5c29.333 0 56.166 4.83301 80.499 14.5s43.166 19.834 56.499 30.501zM304.003 447.998c-36.667 0 -68.498 -12.501 -95.498 -37.501s-47.5 -62.5 -61.5 -112.5c25.333 0 51.666 0.666992 78.999 2
s52.166 4.83301 74.499 10.5s40.833 14.667 55.5 27s22 29.5 22 51.5c0 6.66699 -1.16699 13.5 -3.5 20.5s-6.16602 13.333 -11.499 19s-12.833 10.334 -22.5 14.001s-21.834 5.5 -36.501 5.5zM343.005 731.997h30l66 -182h-63l-24 66l-6 58l-34 -58l-57 -66h-68z" />
    <glyph glyph-name="edieresis" unicode="&#xeb;" horiz-adv-x="463" 
d="M389 49c-23.333 -20 -50.8301 -35.1689 -82.4971 -45.502s-63.5 -15.5 -95.5 -15.5c-53.333 0 -93.5 15.333 -120.5 46s-40.5 73.334 -40.5 128.001s7.66699 103.667 23 147s35.5 80 60.5 110s53.333 53 85 69s64.167 24 97.5 24c24 0 44.833 -3.33301 62.5 -10
s32.167 -15.5 43.5 -26.5s19.666 -23.667 24.999 -38s8 -29.5 8 -45.5c0 -47.333 -23 -84.5 -69 -111.5s-113 -40.5 -201 -40.5c-8 0 -16.333 0.166992 -25 0.5s-17.667 0.833008 -27 1.5c-2.66699 -12.667 -4.66699 -24.667 -6 -36s-2 -21.333 -2 -30
c0 -36.667 8.33301 -66.5 25 -89.5s42.667 -34.5 78 -34.5c29.333 0 56.166 4.83301 80.499 14.5s43.166 19.834 56.499 30.501zM304.003 447.998c-36.667 0 -68.498 -12.501 -95.498 -37.501s-47.5 -62.5 -61.5 -112.5c25.333 0 51.666 0.666992 78.999 2
s52.166 4.83301 74.499 10.5s40.833 14.667 55.5 27s22 29.5 22 51.5c0 6.66699 -1.16699 13.5 -3.5 20.5s-6.16602 13.333 -11.499 19s-12.833 10.334 -22.5 14.001s-21.834 5.5 -36.501 5.5zM195.005 652.997c0 14.667 4.16699 26.834 12.5 36.501s19.5 14.5 33.5 14.5
s25.333 -4.83301 34 -14.5s13 -21.834 13 -36.501c0 -13.333 -4.33301 -24.833 -13 -34.5s-20 -14.5 -34 -14.5s-25.167 4.83301 -33.5 14.5s-12.5 21.167 -12.5 34.5zM378.005 653.997c0 14 4.16699 25.833 12.5 35.5s19.5 14.5 33.5 14.5
c14.667 0 26.167 -4.83301 34.5 -14.5s12.5 -21.5 12.5 -35.5s-4.16699 -25.833 -12.5 -35.5s-19.833 -14.5 -34.5 -14.5c-14 0 -25.167 4.83301 -33.5 14.5s-12.5 21.5 -12.5 35.5z" />
    <glyph glyph-name="igrave" unicode="&#xec;" horiz-adv-x="259" 
d="M160 500h75l-106 -500h-75zM248 571h-43l-81 128l4 21h91z" />
    <glyph glyph-name="iacute" unicode="&#xed;" horiz-adv-x="259" 
d="M160 500h75l-106 -500h-75zM264 720h84l-5 -21l-123 -128h-44z" />
    <glyph glyph-name="icircumflex" unicode="&#xee;" horiz-adv-x="259" 
d="M160 500h75l-106 -500h-75zM234 732h30l66 -182h-63l-24 66l-6 58l-34 -58l-57 -66h-68z" />
    <glyph glyph-name="idieresis" unicode="&#xef;" horiz-adv-x="259" 
d="M160 500h75l-106 -500h-75zM89 653c0 14.667 4.16699 26.834 12.5 36.501s19.5 14.5 33.5 14.5s25.333 -4.83301 34 -14.5s13 -21.834 13 -36.501c0 -13.333 -4.33301 -24.833 -13 -34.5s-20 -14.5 -34 -14.5s-25.167 4.83301 -33.5 14.5s-12.5 21.167 -12.5 34.5z
M272 654c0 14 4.16699 25.833 12.5 35.5s19.5 14.5 33.5 14.5c14.667 0 26.167 -4.83301 34.5 -14.5s12.5 -21.5 12.5 -35.5s-4.16699 -25.833 -12.5 -35.5s-19.833 -14.5 -34.5 -14.5c-14 0 -25.167 4.83301 -33.5 14.5s-12.5 21.5 -12.5 35.5z" />
    <glyph glyph-name="eth" unicode="&#xf0;" horiz-adv-x="496" 
d="M276 595l77.9971 34.002c-10.667 13.333 -22.167 24.5 -34.5 33.5s-25.166 16.5 -38.499 22.5l59 27c30.667 -12.667 56 -31.334 76 -56.001l76 33l20 -41l-71 -31c10.667 -21.333 19 -45.333 25 -72s9 -56.334 9 -89.001c0 -84 -7.83301 -155.5 -23.5 -214.5
s-36.167 -107.333 -61.5 -145s-54 -65.167 -86 -82.5s-64.333 -26 -97 -26c-26 0 -48.833 4.33301 -68.5 13s-36 20.5 -49 35.5s-22.667 32.833 -29 53.5s-9.5 42.667 -9.5 66c0 46 6.16699 90.167 18.5 132.5s29.833 80 52.5 113s49.334 59.333 80.001 79
s64.667 29.5 102 29.5c28.667 0 50 -3.83301 64 -11.5s26 -17.167 36 -28.5c0.666992 46.667 -7.66602 86.667 -24.999 120l-81 -35zM129.997 164.002c0 -36 7.66797 -63.667 23.001 -83s34.666 -29 57.999 -29c35.333 0 64.833 11.833 88.5 35.5s42.667 52.5 57 86.5
s24.333 70 30 108s8.5 71.333 8.5 100c-5.33301 19.333 -16.5 34.666 -33.5 45.999s-37.167 17 -60.5 17c-25.333 0 -48.5 -8.66699 -69.5 -26s-39 -39.666 -54 -66.999s-26.667 -57.5 -35 -90.5s-12.5 -65.5 -12.5 -97.5z" />
    <glyph glyph-name="ntilde" unicode="&#xf1;" horiz-adv-x="522" 
d="M321 0l67.002 316c2.66699 12 5 23.833 7 35.5s3 22.167 3 31.5c0 19.333 -4.5 35 -13.5 47s-25.833 18 -50.5 18c-17.333 0 -34.333 -4 -51 -12s-32.334 -18.167 -47.001 -30.5s-27.834 -26 -39.501 -41s-21.5 -29.833 -29.5 -44.5l-66 -320h-75l106 500h52l-4 -86h4
c8.66699 10.667 19 21.834 31 33.501s25.5 22.167 40.5 31.5s31.833 17.166 50.5 23.499s39.334 9.5 62.001 9.5c33.333 0 59.666 -8 78.999 -24s29 -44 29 -84c0 -20 -3 -44 -9 -72l-71 -332h-75zM220.002 656c21.333 22 39.832 37.166 55.499 45.499s29.5 12.5 41.5 12.5
c10 0 19 -2.16699 27 -6.5s15.833 -9 23.5 -14s15.334 -9.5 23.001 -13.5s16.167 -6 25.5 -6c15.333 0 33.333 8 54 24l15 -43c-19.333 -19.333 -36 -32.666 -50 -39.999s-26.667 -11 -38 -11c-10 0 -19 2 -27 6s-15.833 8.5 -23.5 13.5s-15.5 9.5 -23.5 13.5s-17 6 -27 6
c-8.66699 0 -18 -2.16699 -28 -6.5s-21.667 -11.833 -35 -22.5z" />
    <glyph glyph-name="ograve" unicode="&#xf2;" horiz-adv-x="498" 
d="M50 156c0 52.667 6.83398 100.834 20.501 144.501s32.5 81.167 56.5 112.5s51.833 55.666 83.5 72.999s65.5 26 101.5 26c28 0 51.833 -4.5 71.5 -13.5s35.667 -21.333 48 -37s21.166 -33.667 26.499 -54s8 -41.5 8 -63.5c0 -50 -6.5 -96.667 -19.5 -140
s-31 -81 -54 -113s-49.833 -57.167 -80.5 -75.5s-64 -27.5 -100 -27.5c-30 0 -55.167 4.83301 -75.5 14.5s-37 22.5 -50 38.5s-22.333 34 -28 54s-8.5 40.333 -8.5 61zM130.001 174c0 -39.333 7.33301 -69.5 22 -90.5s38 -31.5 70 -31.5c22 0 42.833 7.83301 62.5 23.5
s37 36.834 52 63.501s27 57.167 36 91.5s13.5 70.166 13.5 107.499c0 34 -6.16699 60.833 -18.5 80.5s-35.833 29.5 -70.5 29.5c-22 0 -43 -7.5 -63 -22.5s-37.833 -35.167 -53.5 -60.5s-28 -54.5 -37 -87.5s-13.5 -67.5 -13.5 -103.5zM355.001 571h-43l-81 128l4 21h91z
" />
    <glyph glyph-name="oacute" unicode="&#xf3;" horiz-adv-x="498" 
d="M50 156c0 52.667 6.83398 100.834 20.501 144.501s32.5 81.167 56.5 112.5s51.833 55.666 83.5 72.999s65.5 26 101.5 26c28 0 51.833 -4.5 71.5 -13.5s35.667 -21.333 48 -37s21.166 -33.667 26.499 -54s8 -41.5 8 -63.5c0 -50 -6.5 -96.667 -19.5 -140
s-31 -81 -54 -113s-49.833 -57.167 -80.5 -75.5s-64 -27.5 -100 -27.5c-30 0 -55.167 4.83301 -75.5 14.5s-37 22.5 -50 38.5s-22.333 34 -28 54s-8.5 40.333 -8.5 61zM130.001 174c0 -39.333 7.33301 -69.5 22 -90.5s38 -31.5 70 -31.5c22 0 42.833 7.83301 62.5 23.5
s37 36.834 52 63.501s27 57.167 36 91.5s13.5 70.166 13.5 107.499c0 34 -6.16699 60.833 -18.5 80.5s-35.833 29.5 -70.5 29.5c-22 0 -43 -7.5 -63 -22.5s-37.833 -35.167 -53.5 -60.5s-28 -54.5 -37 -87.5s-13.5 -67.5 -13.5 -103.5zM376.001 720h84l-5 -21l-123 -128h-44
z" />
    <glyph glyph-name="ocircumflex" unicode="&#xf4;" horiz-adv-x="498" 
d="M50 156c0 52.667 6.83398 100.834 20.501 144.501s32.5 81.167 56.5 112.5s51.833 55.666 83.5 72.999s65.5 26 101.5 26c28 0 51.833 -4.5 71.5 -13.5s35.667 -21.333 48 -37s21.166 -33.667 26.499 -54s8 -41.5 8 -63.5c0 -50 -6.5 -96.667 -19.5 -140
s-31 -81 -54 -113s-49.833 -57.167 -80.5 -75.5s-64 -27.5 -100 -27.5c-30 0 -55.167 4.83301 -75.5 14.5s-37 22.5 -50 38.5s-22.333 34 -28 54s-8.5 40.333 -8.5 61zM130.001 174c0 -39.333 7.33301 -69.5 22 -90.5s38 -31.5 70 -31.5c22 0 42.833 7.83301 62.5 23.5
s37 36.834 52 63.501s27 57.167 36 91.5s13.5 70.166 13.5 107.499c0 34 -6.16699 60.833 -18.5 80.5s-35.833 29.5 -70.5 29.5c-22 0 -43 -7.5 -63 -22.5s-37.833 -35.167 -53.5 -60.5s-28 -54.5 -37 -87.5s-13.5 -67.5 -13.5 -103.5zM343.001 732h30l66 -182h-63l-24 66
l-6 58l-34 -58l-57 -66h-68z" />
    <glyph glyph-name="otilde" unicode="&#xf5;" horiz-adv-x="498" 
d="M50 156c0 52.667 6.83398 100.834 20.501 144.501s32.5 81.167 56.5 112.5s51.833 55.666 83.5 72.999s65.5 26 101.5 26c28 0 51.833 -4.5 71.5 -13.5s35.667 -21.333 48 -37s21.166 -33.667 26.499 -54s8 -41.5 8 -63.5c0 -50 -6.5 -96.667 -19.5 -140
s-31 -81 -54 -113s-49.833 -57.167 -80.5 -75.5s-64 -27.5 -100 -27.5c-30 0 -55.167 4.83301 -75.5 14.5s-37 22.5 -50 38.5s-22.333 34 -28 54s-8.5 40.333 -8.5 61zM130.001 174c0 -39.333 7.33301 -69.5 22 -90.5s38 -31.5 70 -31.5c22 0 42.833 7.83301 62.5 23.5
s37 36.834 52 63.501s27 57.167 36 91.5s13.5 70.166 13.5 107.499c0 34 -6.16699 60.833 -18.5 80.5s-35.833 29.5 -70.5 29.5c-22 0 -43 -7.5 -63 -22.5s-37.833 -35.167 -53.5 -60.5s-28 -54.5 -37 -87.5s-13.5 -67.5 -13.5 -103.5zM195.001 656
c21.333 22 39.832 37.166 55.499 45.499s29.5 12.5 41.5 12.5c10 0 19 -2.16699 27 -6.5s15.833 -9 23.5 -14s15.334 -9.5 23.001 -13.5s16.167 -6 25.5 -6c15.333 0 33.333 8 54 24l15 -43c-19.333 -19.333 -36 -32.666 -50 -39.999s-26.667 -11 -38 -11c-10 0 -19 2 -27 6
s-15.833 8.5 -23.5 13.5s-15.5 9.5 -23.5 13.5s-17 6 -27 6c-8.66699 0 -18 -2.16699 -28 -6.5s-21.667 -11.833 -35 -22.5z" />
    <glyph glyph-name="odieresis" unicode="&#xf6;" horiz-adv-x="498" 
d="M50 156c0 52.667 6.83398 100.834 20.501 144.501s32.5 81.167 56.5 112.5s51.833 55.666 83.5 72.999s65.5 26 101.5 26c28 0 51.833 -4.5 71.5 -13.5s35.667 -21.333 48 -37s21.166 -33.667 26.499 -54s8 -41.5 8 -63.5c0 -50 -6.5 -96.667 -19.5 -140
s-31 -81 -54 -113s-49.833 -57.167 -80.5 -75.5s-64 -27.5 -100 -27.5c-30 0 -55.167 4.83301 -75.5 14.5s-37 22.5 -50 38.5s-22.333 34 -28 54s-8.5 40.333 -8.5 61zM130.001 174c0 -39.333 7.33301 -69.5 22 -90.5s38 -31.5 70 -31.5c22 0 42.833 7.83301 62.5 23.5
s37 36.834 52 63.501s27 57.167 36 91.5s13.5 70.166 13.5 107.499c0 34 -6.16699 60.833 -18.5 80.5s-35.833 29.5 -70.5 29.5c-22 0 -43 -7.5 -63 -22.5s-37.833 -35.167 -53.5 -60.5s-28 -54.5 -37 -87.5s-13.5 -67.5 -13.5 -103.5zM189.001 653
c0 14.667 4.16699 26.834 12.5 36.501s19.5 14.5 33.5 14.5s25.333 -4.83301 34 -14.5s13 -21.834 13 -36.501c0 -13.333 -4.33301 -24.833 -13 -34.5s-20 -14.5 -34 -14.5s-25.167 4.83301 -33.5 14.5s-12.5 21.167 -12.5 34.5zM372.001 654c0 14 4.16699 25.833 12.5 35.5
s19.5 14.5 33.5 14.5c14.667 0 26.167 -4.83301 34.5 -14.5s12.5 -21.5 12.5 -35.5s-4.16699 -25.833 -12.5 -35.5s-19.833 -14.5 -34.5 -14.5c-14 0 -25.167 4.83301 -33.5 14.5s-12.5 21.5 -12.5 35.5z" />
    <glyph glyph-name="divide" unicode="&#xf7;" horiz-adv-x="480" 
d="M55 374h424v-72h-424v72zM210 525c0 18 5.33301 32.167 16 42.5s24.667 15.5 42 15.5s31.333 -5.16699 42 -15.5s16 -24.5 16 -42.5c0 -17.333 -5.33301 -31.333 -16 -42s-24.667 -16 -42 -16s-31.333 5.33301 -42 16s-16 24.667 -16 42zM210 151
c0 18 5.33301 32.167 16 42.5s24.667 15.5 42 15.5s31.333 -5.16699 42 -15.5s16 -24.5 16 -42.5c0 -17.333 -5.33301 -31.333 -16 -42s-24.667 -16 -42 -16s-31.333 5.33301 -42 16s-16 24.667 -16 42z" />
    <glyph glyph-name="oslash" unicode="&#xf8;" horiz-adv-x="498" 
d="M50 156c0 52.667 6.83398 100.834 20.501 144.501s32.5 81.167 56.5 112.5s51.833 55.666 83.5 72.999s65.5 26 101.5 26c23.333 0 43.666 -3.16699 60.999 -9.5s32.333 -15.166 45 -26.499l36 39l40 -37l-44 -50c5.33301 -12.667 9.33301 -26 12 -40s4 -28.667 4 -44
c0 -50 -6.5 -96.667 -19.5 -140s-31 -81 -54 -113s-49.833 -57.167 -80.5 -75.5s-64 -27.5 -100 -27.5c-26.667 0 -49.5 3.83301 -68.5 11.5s-35.167 18.167 -48.5 31.5l-40 -45l-42 38l50 56c-8.66699 23.333 -13 48.666 -13 75.999zM386.001 338l0.000976562 10.001
c0 3.33301 -0.333008 6.66602 -1 9.99902l-239 -266c15.333 -26.667 40.666 -40 75.999 -40c22 0 42.833 7.83301 62.5 23.5s37 36.834 52 63.501s27 57.167 36 91.5s13.5 70.166 13.5 107.499zM130.002 174.001v-12c0 -4 0.333008 -8 1 -12l238 266
c-14 21.333 -38 32 -72 32c-22 0 -43 -7.5 -63 -22.5s-37.833 -35.167 -53.5 -60.5s-28 -54.5 -37 -87.5s-13.5 -67.5 -13.5 -103.5z" />
    <glyph glyph-name="ugrave" unicode="&#xf9;" horiz-adv-x="511" 
d="M213 500l-70.001 -332.999c-4 -18 -6 -34.667 -6 -50c0 -18.667 3.66699 -34.167 11 -46.5s20.666 -18.5 39.999 -18.5c16 0 32.167 4 48.5 12s32 18.333 47 31s28.667 26.667 41 42s22.5 30.333 30.5 45l67 318h75l-63 -297
c-2.66699 -11.333 -5.33398 -25.166 -8.00098 -41.499s-5.16699 -33.5 -7.5 -51.5s-4.16602 -35.5 -5.49902 -52.5s-2 -31.833 -2 -44.5v-13h-59v95h-4c-10 -13.333 -21.5 -26.333 -34.5 -39s-27.333 -24 -43 -34s-32.5 -18.167 -50.5 -24.5s-37 -9.5 -57 -9.5
c-14.667 0 -28.167 1.66699 -40.5 5s-23.166 9.16602 -32.499 17.499s-16.666 19.333 -21.999 33s-8 31.167 -8 52.5c0 23.333 3.33301 49.666 10 78.999l68 325h75zM365.999 571.001h-43l-81 128l4 21h91z" />
    <glyph glyph-name="uacute" unicode="&#xfa;" horiz-adv-x="511" 
d="M213 500l-70.001 -332.999c-4 -18 -6 -34.667 -6 -50c0 -18.667 3.66699 -34.167 11 -46.5s20.666 -18.5 39.999 -18.5c16 0 32.167 4 48.5 12s32 18.333 47 31s28.667 26.667 41 42s22.5 30.333 30.5 45l67 318h75l-63 -297
c-2.66699 -11.333 -5.33398 -25.166 -8.00098 -41.499s-5.16699 -33.5 -7.5 -51.5s-4.16602 -35.5 -5.49902 -52.5s-2 -31.833 -2 -44.5v-13h-59v95h-4c-10 -13.333 -21.5 -26.333 -34.5 -39s-27.333 -24 -43 -34s-32.5 -18.167 -50.5 -24.5s-37 -9.5 -57 -9.5
c-14.667 0 -28.167 1.66699 -40.5 5s-23.166 9.16602 -32.499 17.499s-16.666 19.333 -21.999 33s-8 31.167 -8 52.5c0 23.333 3.33301 49.666 10 78.999l68 325h75zM376.999 720.001h84l-5 -21l-123 -128h-44z" />
    <glyph glyph-name="ucircumflex" unicode="&#xfb;" horiz-adv-x="511" 
d="M213 500l-70.001 -332.999c-4 -18 -6 -34.667 -6 -50c0 -18.667 3.66699 -34.167 11 -46.5s20.666 -18.5 39.999 -18.5c16 0 32.167 4 48.5 12s32 18.333 47 31s28.667 26.667 41 42s22.5 30.333 30.5 45l67 318h75l-63 -297
c-2.66699 -11.333 -5.33398 -25.166 -8.00098 -41.499s-5.16699 -33.5 -7.5 -51.5s-4.16602 -35.5 -5.49902 -52.5s-2 -31.833 -2 -44.5v-13h-59v95h-4c-10 -13.333 -21.5 -26.333 -34.5 -39s-27.333 -24 -43 -34s-32.5 -18.167 -50.5 -24.5s-37 -9.5 -57 -9.5
c-14.667 0 -28.167 1.66699 -40.5 5s-23.166 9.16602 -32.499 17.499s-16.666 19.333 -21.999 33s-8 31.167 -8 52.5c0 23.333 3.33301 49.666 10 78.999l68 325h75zM355.999 732.001h30l66 -182h-63l-24 66l-6 58l-34 -58l-57 -66h-68z" />
    <glyph glyph-name="udieresis" unicode="&#xfc;" horiz-adv-x="511" 
d="M213 500l-70.001 -332.999c-4 -18 -6 -34.667 -6 -50c0 -18.667 3.66699 -34.167 11 -46.5s20.666 -18.5 39.999 -18.5c16 0 32.167 4 48.5 12s32 18.333 47 31s28.667 26.667 41 42s22.5 30.333 30.5 45l67 318h75l-63 -297
c-2.66699 -11.333 -5.33398 -25.166 -8.00098 -41.499s-5.16699 -33.5 -7.5 -51.5s-4.16602 -35.5 -5.49902 -52.5s-2 -31.833 -2 -44.5v-13h-59v95h-4c-10 -13.333 -21.5 -26.333 -34.5 -39s-27.333 -24 -43 -34s-32.5 -18.167 -50.5 -24.5s-37 -9.5 -57 -9.5
c-14.667 0 -28.167 1.66699 -40.5 5s-23.166 9.16602 -32.499 17.499s-16.666 19.333 -21.999 33s-8 31.167 -8 52.5c0 23.333 3.33301 49.666 10 78.999l68 325h75zM209.999 653.001c0 14.667 4.16699 26.834 12.5 36.501s19.5 14.5 33.5 14.5s25.333 -4.83301 34 -14.5
s13 -21.834 13 -36.501c0 -13.333 -4.33301 -24.833 -13 -34.5s-20 -14.5 -34 -14.5s-25.167 4.83301 -33.5 14.5s-12.5 21.167 -12.5 34.5zM392.999 654.001c0 14 4.16699 25.833 12.5 35.5s19.5 14.5 33.5 14.5c14.667 0 26.167 -4.83301 34.5 -14.5
s12.5 -21.5 12.5 -35.5s-4.16699 -25.833 -12.5 -35.5s-19.833 -14.5 -34.5 -14.5c-14 0 -25.167 4.83301 -33.5 14.5s-12.5 21.5 -12.5 35.5z" />
    <glyph glyph-name="yacute" unicode="&#xfd;" horiz-adv-x="439" 
d="M194 176l5 -95.999h5l38 97l166 323h80l-236 -446l-51.5 -95.5c-17 -31 -34.5 -58.667 -52.5 -83s-36.667 -43.833 -56 -58.5s-39.333 -22 -60 -22c-11.333 0 -21.166 0.666992 -29.499 2s-15.833 3.66602 -22.5 6.99902l24 69c7.33301 -2.66699 15.333 -4 24 -4
c19.333 0 38.666 10 57.999 30s41 53.667 65 101l-86 500h80zM337 720.001h84l-5 -21l-123 -128h-44z" />
    <glyph glyph-name="thorn" unicode="&#xfe;" horiz-adv-x="508" 
d="M188 700l74.998 0.000976562l-62 -274h4c9.33301 11.333 19.333 22.166 30 32.499s22.334 19.5 35.001 27.5s26.834 14.333 42.501 19s33.167 7 52.5 7c16 0 31 -2.5 45 -7.5s26.333 -13.333 37 -25s19.167 -27.167 25.5 -46.5s9.5 -43 9.5 -71
c0 -58.667 -8 -111.167 -24 -157.5s-37 -85.5 -63 -117.5s-55.167 -56.5 -87.5 -73.5s-64.5 -25.5 -96.5 -25.5c-23.333 0 -43.833 2.16699 -61.5 6.5s-29.5 8.83301 -35.5 13.5l-44 -208h-75zM336.998 448.001c-18 0 -35.166 -4.66602 -51.499 -13.999
s-31.333 -20.833 -45 -34.5s-25.834 -28.334 -36.501 -44.001s-19.334 -30.167 -26.001 -43.5l-49 -237c11.333 -8.66699 23 -14.667 35 -18s25 -5 39 -5c26 0 50.833 7.16699 74.5 21.5s44.834 34.833 63.501 61.5s33.5 58.667 44.5 96s16.5 79 16.5 125
c0 26.667 -5.5 48.667 -16.5 66s-27.167 26 -48.5 26z" />
    <glyph glyph-name="ydieresis" unicode="&#xff;" horiz-adv-x="439" 
d="M194 176l5 -95.999h5l38 97l166 323h80l-236 -446l-51.5 -95.5c-17 -31 -34.5 -58.667 -52.5 -83s-36.667 -43.833 -56 -58.5s-39.333 -22 -60 -22c-11.333 0 -21.166 0.666992 -29.499 2s-15.833 3.66602 -22.5 6.99902l24 69c7.33301 -2.66699 15.333 -4 24 -4
c19.333 0 38.666 10 57.999 30s41 53.667 65 101l-86 500h80zM150 653.001c0 14.667 4.16699 26.834 12.5 36.501s19.5 14.5 33.5 14.5s25.333 -4.83301 34 -14.5s13 -21.834 13 -36.501c0 -13.333 -4.33301 -24.833 -13 -34.5s-20 -14.5 -34 -14.5
s-25.167 4.83301 -33.5 14.5s-12.5 21.167 -12.5 34.5zM333 654.001c0 14 4.16699 25.833 12.5 35.5s19.5 14.5 33.5 14.5c14.667 0 26.167 -4.83301 34.5 -14.5s12.5 -21.5 12.5 -35.5s-4.16699 -25.833 -12.5 -35.5s-19.833 -14.5 -34.5 -14.5
c-14 0 -25.167 4.83301 -33.5 14.5s-12.5 21.5 -12.5 35.5z" />
    <glyph glyph-name="Amacron" unicode="&#x100;" horiz-adv-x="557" 
d="M404 194h-244l-108 -194h-85l404 711h37l101 -711h-77zM199 266h197l-29 213l-2 106h-1l-45 -108zM260 843h300l-13 -62h-301z" />
    <glyph glyph-name="amacron" unicode="&#x101;" horiz-adv-x="487" 
d="M414 197c-5.33301 -24.667 -8.99902 -49.668 -10.999 -75.001s-3 -49 -3 -71v-28.5c0 -9 0.666992 -17.167 2 -24.5h-56l-14 87h-4c-8 -11.333 -17.833 -22.833 -29.5 -34.5s-24.5 -22.167 -38.5 -31.5s-29 -16.833 -45 -22.5s-33 -8.5 -51 -8.5
c-79.333 0 -119 51.667 -119 155c0 42.667 5.5 86 16.5 130s28 83.667 51 119s52.667 64.333 89 87s80.166 34 131.499 34c18.667 0 41.5 -2.16699 68.5 -6.5s52.167 -10.166 75.5 -17.499zM187.001 51.999c16 0 31.333 3.83398 46 11.501s28.5 17.167 41.5 28.5
s24.5 23.5 34.5 36.5s18 25.167 24 36.5l56 270c-20 9.33301 -45.333 14 -76 14s-57.667 -9 -81 -27s-43 -41.5 -59 -70.5s-28 -61.833 -36 -98.5s-12 -73.334 -12 -110.001c0 -25.333 5 -46.833 15 -64.5s25.667 -26.5 47 -26.5zM207.001 643h281l-13 -62h-282z" />
    <glyph glyph-name="Abreve" unicode="&#x102;" horiz-adv-x="557" 
d="M404 194h-244l-108 -194h-85l404 711h37l101 -711h-77zM199 266h197l-29 213l-2 106h-1l-45 -108zM294 871c7.33301 -23.333 19.3369 -41.166 36.0039 -53.499s38 -18.5 64 -18.5c21.333 0 39.666 2 54.999 6s28.666 9.16699 39.999 15.5s21.333 13.833 30 22.5
s16.667 18 24 28l41 -19c-16.667 -40 -41.334 -70.333 -74.001 -91s-72.334 -31 -119.001 -31c-19.333 0 -37 3.16699 -53 9.5s-29.833 14.833 -41.5 25.5s-21 23.167 -28 37.5s-11.5 29.166 -13.5 44.499z" />
    <glyph glyph-name="abreve" unicode="&#x103;" horiz-adv-x="487" 
d="M414 197c-5.33301 -24.667 -8.99902 -49.668 -10.999 -75.001s-3 -49 -3 -71v-28.5c0 -9 0.666992 -17.167 2 -24.5h-56l-14 87h-4c-8 -11.333 -17.833 -22.833 -29.5 -34.5s-24.5 -22.167 -38.5 -31.5s-29 -16.833 -45 -22.5s-33 -8.5 -51 -8.5
c-79.333 0 -119 51.667 -119 155c0 42.667 5.5 86 16.5 130s28 83.667 51 119s52.667 64.333 89 87s80.166 34 131.499 34c18.667 0 41.5 -2.16699 68.5 -6.5s52.167 -10.166 75.5 -17.499zM187.001 51.999c16 0 31.333 3.83398 46 11.501s28.5 17.167 41.5 28.5
s24.5 23.5 34.5 36.5s18 25.167 24 36.5l56 270c-20 9.33301 -45.333 14 -76 14s-57.667 -9 -81 -27s-43 -41.5 -59 -70.5s-28 -61.833 -36 -98.5s-12 -73.334 -12 -110.001c0 -25.333 5 -46.833 15 -64.5s25.667 -26.5 47 -26.5zM263.001 720
c6 -24 15.167 -42.833 27.5 -56.5s30.166 -20.5 53.499 -20.5c25.333 0 48.833 6.83301 70.5 20.5s40.167 32.5 55.5 56.5l35 -18c-5.33301 -16 -13.5 -31.833 -24.5 -47.5s-24 -29.5 -39 -41.5s-31.667 -21.667 -50 -29s-36.833 -11 -55.5 -11
c-34.667 0 -63.167 11.167 -85.5 33.5s-34.166 52.5 -35.499 90.5z" />
    <glyph glyph-name="Aogonek" unicode="&#x104;" horiz-adv-x="557" 
d="M404 194l-243.999 0.000976562l-108 -194h-85l404 711h37l101 -711h-21c-10 -5.33301 -19.5 -11 -28.5 -17s-17.167 -12.833 -24.5 -20.5s-13 -16.5 -17 -26.5s-6.33301 -20.667 -7 -32c0 -11.333 3.16699 -20.833 9.5 -28.5s16.833 -11.5 31.5 -11.5
c12.667 0 26.667 2.66699 42 8l1 -43c-12.667 -8.66699 -27 -14.834 -43 -18.501s-30.333 -5.5 -43 -5.5c-22.667 0 -41.667 6.16699 -57 18.5s-23 30.833 -23 55.5c1.33301 27.333 11.666 51.5 30.999 72.5s43 37.167 71 48.5zM199.001 265.001l197 0.000976562l-29 215
c-0.666992 12 -1 28.167 -1 48.5s-0.333008 39.166 -1 56.499h-1l-45 -108z" />
    <glyph glyph-name="aogonek" unicode="&#x105;" horiz-adv-x="487" 
d="M414 197c-5.33301 -24.667 -8.99805 -49.666 -10.998 -74.999s-3 -49 -3 -71v-28.5c0 -9 0.666992 -17.167 2 -24.5h-27c-20.667 -10.667 -37.834 -23.667 -51.501 -39s-20.5 -33.666 -20.5 -54.999c0 -11.333 3 -20.833 9 -28.5s16.667 -11.5 32 -11.5
c12.667 0 26.334 2.66699 41.001 8l1 -43c-11.333 -8.66699 -25 -14.834 -41 -18.501s-30.667 -5.5 -44 -5.5c-22.667 -0.666992 -41.667 5.16602 -57 17.499s-23 30.833 -23 55.5c0 14 2.5 27 7.5 39s12.167 23.167 21.5 33.5s21.666 20.666 36.999 30.999
s34.333 18.833 57 25.5l-12 78h-4c-8 -11.333 -17.833 -22.833 -29.5 -34.5s-24.5 -22.167 -38.5 -31.5s-29 -16.833 -45 -22.5s-33 -8.5 -51 -8.5c-79.333 0 -119 51.667 -119 155c0 42.667 5.5 86 16.5 130s28 83.667 51 119s52.667 64.333 89 87s80.166 34 131.499 34
c18.667 0 41.5 -2.16699 68.5 -6.5s52.167 -10.166 75.5 -17.499zM187.002 52.001c16 0 31.333 3.83398 46 11.501s28.5 17.167 41.5 28.5s24.5 23.5 34.5 36.5s18 25.167 24 36.5l56 270c-20 9.33301 -45.333 14 -76 14s-57.667 -9 -81 -27s-43 -41.5 -59 -70.5
s-28 -61.833 -36 -98.5s-12 -73.334 -12 -110.001c0 -25.333 5 -46.833 15 -64.5s25.667 -26.5 47 -26.5z" />
    <glyph glyph-name="Cacute" unicode="&#x106;" horiz-adv-x="544" 
d="M480 29c-22.667 -15.333 -46.6709 -26.002 -72.0039 -32.002s-54.666 -9 -87.999 -9c-39.333 0 -74.333 7.16699 -105 21.5s-56.667 34.333 -78 60s-37.666 55.834 -48.999 90.501s-17 72.667 -17 114c0 75.333 11 140.5 33 195.5s51 100.5 87 136.5
s76.5 62.667 121.5 80s90.5 26 136.5 26c38 0 69 -2.66699 93 -8s43.667 -11.666 59 -18.999l-36 -73c-13.333 7.33301 -30.833 13.5 -52.5 18.5s-46.5 7.5 -74.5 7.5c-37.333 0 -73.166 -8.16699 -107.499 -24.5s-64.5 -39.833 -90.5 -70.5s-46.667 -68 -62 -112
s-23 -93.333 -23 -148c0 -32 4.16699 -61.5 12.5 -88.5s20.333 -50.333 36 -70s35 -35 58 -46s49.167 -16.5 78.5 -16.5c31.333 0 57.333 3.5 78 10.5s39.334 15.167 56.001 24.5zM533.996 869.998h116l-5 -21l-175 -97h-73z" />
    <glyph glyph-name="cacute" unicode="&#x107;" horiz-adv-x="420" 
d="M365 43c-10 -8.66699 -21.4951 -16.333 -34.4951 -23s-26.333 -12.334 -40 -17.001s-27.167 -8.33398 -40.5 -11.001s-26 -4 -38 -4c-32.667 0 -59.5 5.16699 -80.5 15.5s-37.5 23.5 -49.5 39.5s-20.333 33.333 -25 52s-7 36.334 -7 53.001
c0 56.667 7.66699 107.5 23 152.5s35.833 83.167 61.5 114.5s55.167 55.333 88.5 72s67.666 25 102.999 25c25.333 0 46.166 -2.33301 62.499 -7s31.166 -10 44.499 -16l-28 -62c-11.333 6.66699 -25.333 11.834 -42 15.501s-34.667 5.5 -54 5.5
c-22.667 0 -44.834 -7.66699 -66.501 -23s-40.834 -35.5 -57.501 -60.5s-30 -53.667 -40 -86s-15 -65.5 -15 -99.5c0 -43.333 9 -75.333 27 -96s42.333 -31 73 -31c20 0 41 4.5 63 13.5s39.667 18.167 53 27.5zM384.005 720.001h84l-5 -21l-123 -128h-44z" />
    <glyph glyph-name="Ccircumflex" unicode="&#x108;" horiz-adv-x="544" 
d="M480 29c-22.667 -15.333 -46.6709 -26.002 -72.0039 -32.002s-54.666 -9 -87.999 -9c-39.333 0 -74.333 7.16699 -105 21.5s-56.667 34.333 -78 60s-37.666 55.834 -48.999 90.501s-17 72.667 -17 114c0 75.333 11 140.5 33 195.5s51 100.5 87 136.5
s76.5 62.667 121.5 80s90.5 26 136.5 26c38 0 69 -2.66699 93 -8s43.667 -11.666 59 -18.999l-36 -73c-13.333 7.33301 -30.833 13.5 -52.5 18.5s-46.5 7.5 -74.5 7.5c-37.333 0 -73.166 -8.16699 -107.499 -24.5s-64.5 -39.833 -90.5 -70.5s-46.667 -68 -62 -112
s-23 -93.333 -23 -148c0 -32 4.16699 -61.5 12.5 -88.5s20.333 -50.333 36 -70s35 -35 58 -46s49.167 -16.5 78.5 -16.5c31.333 0 57.333 3.5 78 10.5s39.334 15.167 56.001 24.5zM454.996 869.998h48l99 -102l-4 -21h-68l-46 49l-10 35l-25 -34l-71 -50h-75l5 22z" />
    <glyph glyph-name="ccircumflex" unicode="&#x109;" horiz-adv-x="420" 
d="M365 43c-10 -8.66699 -21.4951 -16.333 -34.4951 -23s-26.333 -12.334 -40 -17.001s-27.167 -8.33398 -40.5 -11.001s-26 -4 -38 -4c-32.667 0 -59.5 5.16699 -80.5 15.5s-37.5 23.5 -49.5 39.5s-20.333 33.333 -25 52s-7 36.334 -7 53.001
c0 56.667 7.66699 107.5 23 152.5s35.833 83.167 61.5 114.5s55.167 55.333 88.5 72s67.666 25 102.999 25c25.333 0 46.166 -2.33301 62.499 -7s31.166 -10 44.499 -16l-28 -62c-11.333 6.66699 -25.333 11.834 -42 15.501s-34.667 5.5 -54 5.5
c-22.667 0 -44.834 -7.66699 -66.501 -23s-40.834 -35.5 -57.501 -60.5s-30 -53.667 -40 -86s-15 -65.5 -15 -99.5c0 -43.333 9 -75.333 27 -96s42.333 -31 73 -31c20 0 41 4.5 63 13.5s39.667 18.167 53 27.5zM336.005 732.001h30l66 -182h-63l-24 66l-6 58l-34 -58
l-57 -66h-68z" />
    <glyph glyph-name="Ccaron" unicode="&#x10c;" horiz-adv-x="544" 
d="M480 29c-22.667 -15.333 -46.6709 -26.002 -72.0039 -32.002s-54.666 -9 -87.999 -9c-39.333 0 -74.333 7.16699 -105 21.5s-56.667 34.333 -78 60s-37.666 55.834 -48.999 90.501s-17 72.667 -17 114c0 75.333 11 140.5 33 195.5s51 100.5 87 136.5
s76.5 62.667 121.5 80s90.5 26 136.5 26c38 0 69 -2.66699 93 -8s43.667 -11.666 59 -18.999l-36 -73c-13.333 7.33301 -30.833 13.5 -52.5 18.5s-46.5 7.5 -74.5 7.5c-37.333 0 -73.166 -8.16699 -107.499 -24.5s-64.5 -39.833 -90.5 -70.5s-46.667 -68 -62 -112
s-23 -93.333 -23 -148c0 -32 4.16699 -61.5 12.5 -88.5s20.333 -50.333 36 -70s35 -35 58 -46s49.167 -16.5 78.5 -16.5c31.333 0 57.333 3.5 78 10.5s39.334 15.167 56.001 24.5zM476.996 745.998h-47l-97 103l3 21h67l46 -50l9 -34l24 33l71 51h76l-4 -22z" />
    <glyph glyph-name="ccaron" unicode="&#x10d;" horiz-adv-x="420" 
d="M365 43c-10 -8.66699 -21.4951 -16.333 -34.4951 -23s-26.333 -12.334 -40 -17.001s-27.167 -8.33398 -40.5 -11.001s-26 -4 -38 -4c-32.667 0 -59.5 5.16699 -80.5 15.5s-37.5 23.5 -49.5 39.5s-20.333 33.333 -25 52s-7 36.334 -7 53.001
c0 56.667 7.66699 107.5 23 152.5s35.833 83.167 61.5 114.5s55.167 55.333 88.5 72s67.666 25 102.999 25c25.333 0 46.166 -2.33301 62.499 -7s31.166 -10 44.499 -16l-28 -62c-11.333 6.66699 -25.333 11.834 -42 15.501s-34.667 5.5 -54 5.5
c-22.667 0 -44.834 -7.66699 -66.501 -23s-40.834 -35.5 -57.501 -60.5s-30 -53.667 -40 -86s-15 -65.5 -15 -99.5c0 -43.333 9 -75.333 27 -96s42.333 -31 73 -31c20 0 41 4.5 63 13.5s39.667 18.167 53 27.5zM327.005 550.001h-35l-71 182h72l23 -66l7 -58l34 58l56 66h70
z" />
    <glyph glyph-name="Dcaron" unicode="&#x10e;" horiz-adv-x="622" 
d="M189 700c25.333 3.33301 54.001 5.49609 86.001 6.49609s61 1.5 87 1.5c39.333 0 75 -5.16699 107 -15.5s59.167 -26.166 81.5 -47.499s39.5 -48.333 51.5 -81s18 -71 18 -115c0 -29.333 -2.66699 -61.166 -8 -95.499s-14.166 -68.333 -26.499 -102
s-28.833 -66.167 -49.5 -97.5s-46.334 -59.166 -77.001 -83.499s-66.667 -43.666 -108 -57.999s-89 -21.5 -143 -21.5c-10 0 -23.167 0.166992 -39.5 0.5s-32.5 0.833008 -48.5 1.5c-46.667 2.66699 -73.334 4.66699 -80.001 6zM356.001 633.996
c-8 0 -16.9971 -0.166992 -26.9971 -0.5l-29 -1c-9.33301 -0.333008 -18.333 -0.833008 -27 -1.5s-15.334 -1.33398 -20.001 -2.00098l-118 -560c2.66699 -0.666992 8 -1.16699 16 -1.5s16.5 -0.666016 25.5 -0.999023l26 -1c8.33301 -0.333008 14.166 -0.5 17.499 -0.5
c58 0 107 12 147 36s72.5 54.333 97.5 91s43.167 77 54.5 121s17 85.667 17 125c0 30 -3.33301 57 -10 81s-17.167 44.5 -31.5 61.5s-32.833 30.167 -55.5 39.5s-50.334 14 -83.001 14zM405.004 745.996h-47l-97 103l3 21h67l46 -50l9 -34l24 33l71 51h76l-4 -22z" />
    <glyph glyph-name="dcaron" unicode="&#x10f;" horiz-adv-x="509" 
d="M419 172c-5.33301 -26 -9.33496 -50.334 -12.002 -73.001s-4 -43.667 -4 -63c0 -7.33301 0.166992 -14 0.5 -20s0.833008 -12 1.5 -18h-50l-14 87h-4c-8 -11.333 -18 -22.833 -30 -34.5s-25.333 -22.167 -40 -31.5s-30.167 -16.833 -46.5 -22.5
s-33.166 -8.5 -50.499 -8.5c-36.667 0 -65.834 13.5 -87.501 40.5s-32.5 69.833 -32.5 128.5c0 39.333 5.66699 79.833 17 121.5s28 79.5 50 113.5s49.5 62 82.5 84s71.167 33 114.5 33c12 0 22.333 -0.333008 31 -1s16.834 -1.66699 24.501 -3
s14.834 -3.16602 21.501 -5.49902l21 -7.5l44 208h75zM197.998 51.999c14 0 28.3311 3.83008 42.998 11.4971s28.5 17.167 41.5 28.5s24.667 23.5 35 36.5s18.5 25.167 24.5 36.5l56 260c-11.333 7.33301 -24.166 12.5 -38.499 15.5s-33.166 4.5 -56.499 4.5
c-26.667 0 -50.667 -8.16699 -72 -24.5s-39.5 -38.166 -54.5 -65.499s-26.5 -58.666 -34.5 -93.999s-12 -71.666 -12 -108.999c0 -27.333 5.33301 -50.833 16 -70.5s28 -29.5 52 -29.5zM676.996 699.996c-5.33301 -19.333 -13.168 -39.1689 -23.501 -59.502
s-21.5 -39.166 -33.5 -56.499s-23.5 -32.666 -34.5 -45.999s-19.833 -23 -26.5 -29l-27 18c16 24 29.833 51.167 41.5 81.5s20.834 60.833 27.501 91.5h76z" />
    <glyph glyph-name="Dcroat" unicode="&#x110;" horiz-adv-x="626" 
d="M41 392l85.999 -0.00390625l66 308c25.333 3.33301 54 5.5 86 6.5s61 1.5 87 1.5c38.667 0 74 -5.16699 106 -15.5s59.167 -26.166 81.5 -47.499s39.5 -48.333 51.5 -81s18 -71 18 -115c0 -29.333 -2.66699 -61.166 -8 -95.499s-14.166 -68.333 -26.499 -102
s-28.833 -66.167 -49.5 -97.5s-46.334 -59.166 -77.001 -83.499s-66.5 -43.666 -107.5 -57.999s-88.5 -21.5 -142.5 -21.5c-10 0 -23.167 0.166992 -39.5 0.5s-33.166 0.833008 -50.499 1.5c-45.333 2.66699 -71.333 4.66699 -78 6l71 333h-87zM359.999 633.996
c-8 0 -16.998 -0.166992 -26.998 -0.5l-29 -1c-9.33301 -0.333008 -18.333 -0.833008 -27 -1.5s-15.334 -1.33398 -20.001 -2.00098l-50 -237h137l-12 -60h-138l-55 -263c2.66699 -0.666992 8 -1.16699 16 -1.5s16.5 -0.666016 25.5 -0.999023l26 -1
c8.33301 -0.333008 14.166 -0.5 17.499 -0.5c58 0 106.833 12 146.5 36s72 54.333 97 91s43.167 77 54.5 121s17 85.667 17 125c0 30 -3.33301 57 -10 81s-17.167 44.5 -31.5 61.5s-32.833 30.167 -55.5 39.5s-50 14 -82 14z" />
    <glyph glyph-name="dcroat" unicode="&#x111;" horiz-adv-x="509" 
d="M516 632l86.998 -0.000976562l-12 -60h-87l-85 -400c-5.33301 -26 -9.33301 -50.333 -12 -73s-4 -43.667 -4 -63c0 -7.33301 0.166992 -14 0.5 -20s0.833008 -12 1.5 -18h-50l-14 87h-4c-8 -11.333 -18 -22.833 -30 -34.5s-25.333 -22.167 -40 -31.5
s-30.167 -16.833 -46.5 -22.5s-33.166 -8.5 -50.499 -8.5c-36.667 0 -65.834 13.5 -87.501 40.5s-32.5 69.833 -32.5 128.5c0 39.333 5.66699 79.833 17 121.5s28 79.5 50 113.5s49.5 62 82.5 84s71.167 33 114.5 33c12 0 22.333 -0.333008 31 -1s16.834 -1.66699 24.501 -3
s14.834 -3.16602 21.501 -5.49902l21 -7.5l17 80h-140l12 60h140l15 68h75zM197.998 51.999c14 0 28.3311 3.83008 42.998 11.4971s28.5 17.167 41.5 28.5s24.667 23.5 35 36.5s18.5 25.167 24.5 36.5l56 260c-11.333 7.33301 -24.166 12.5 -38.499 15.5
s-33.166 4.5 -56.499 4.5c-26.667 0 -50.667 -8.16699 -72 -24.5s-39.5 -38.166 -54.5 -65.499s-26.5 -58.666 -34.5 -93.999s-12 -71.666 -12 -108.999c0 -27.333 5.33301 -50.833 16 -70.5s28 -29.5 52 -29.5z" />
    <glyph glyph-name="Emacron" unicode="&#x112;" horiz-adv-x="510" 
d="M189 700h361l-15 -74h-283l-49 -229h259l-15 -74h-259l-53 -249h288l-16 -74h-288h-79zM238 843h300l-13 -62h-301z" />
    <glyph glyph-name="emacron" unicode="&#x113;" horiz-adv-x="463" 
d="M389 49c-23.333 -20 -50.8301 -35.1689 -82.4971 -45.502s-63.5 -15.5 -95.5 -15.5c-53.333 0 -93.5 15.333 -120.5 46s-40.5 73.334 -40.5 128.001s7.66699 103.667 23 147s35.5 80 60.5 110s53.333 53 85 69s64.167 24 97.5 24c24 0 44.833 -3.33301 62.5 -10
s32.167 -15.5 43.5 -26.5s19.666 -23.667 24.999 -38s8 -29.5 8 -45.5c0 -47.333 -23 -84.5 -69 -111.5s-113 -40.5 -201 -40.5c-8 0 -16.333 0.166992 -25 0.5s-17.667 0.833008 -27 1.5c-2.66699 -12.667 -4.66699 -24.667 -6 -36s-2 -21.333 -2 -30
c0 -36.667 8.33301 -66.5 25 -89.5s42.667 -34.5 78 -34.5c29.333 0 56.166 4.83301 80.499 14.5s43.166 19.834 56.499 30.501zM304.003 447.998c-36.667 0 -68.498 -12.501 -95.498 -37.501s-47.5 -62.5 -61.5 -112.5c25.333 0 51.666 0.666992 78.999 2
s52.166 4.83301 74.499 10.5s40.833 14.667 55.5 27s22 29.5 22 51.5c0 6.66699 -1.16699 13.5 -3.5 20.5s-6.16602 13.333 -11.499 19s-12.833 10.334 -22.5 14.001s-21.834 5.5 -36.501 5.5zM192.005 642.997h281l-13 -62h-282z" />
    <glyph glyph-name="Edotaccent" unicode="&#x116;" horiz-adv-x="510" 
d="M189 700h361l-15 -74h-283l-49 -229h259l-15 -74h-259l-53 -249h288l-16 -74h-288h-79zM330 796c0 15.333 5.66699 28 17 38s25.333 15 42 15c17.333 0 31.666 -5 42.999 -15s17 -22.667 17 -38c0 -14.667 -5.66699 -27 -17 -37s-25.666 -15 -42.999 -15
c-16.667 0 -30.667 5 -42 15s-17 22.333 -17 37z" />
    <glyph glyph-name="edotaccent" unicode="&#x117;" horiz-adv-x="463" 
d="M389 49c-23.333 -20 -50.8301 -35.1689 -82.4971 -45.502s-63.5 -15.5 -95.5 -15.5c-53.333 0 -93.5 15.333 -120.5 46s-40.5 73.334 -40.5 128.001s7.66699 103.667 23 147s35.5 80 60.5 110s53.333 53 85 69s64.167 24 97.5 24c24 0 44.833 -3.33301 62.5 -10
s32.167 -15.5 43.5 -26.5s19.666 -23.667 24.999 -38s8 -29.5 8 -45.5c0 -47.333 -23 -84.5 -69 -111.5s-113 -40.5 -201 -40.5c-8 0 -16.333 0.166992 -25 0.5s-17.667 0.833008 -27 1.5c-2.66699 -12.667 -4.66699 -24.667 -6 -36s-2 -21.333 -2 -30
c0 -36.667 8.33301 -66.5 25 -89.5s42.667 -34.5 78 -34.5c29.333 0 56.166 4.83301 80.499 14.5s43.166 19.834 56.499 30.501zM304.003 447.998c-36.667 0 -68.498 -12.501 -95.498 -37.501s-47.5 -62.5 -61.5 -112.5c25.333 0 51.666 0.666992 78.999 2
s52.166 4.83301 74.499 10.5s40.833 14.667 55.5 27s22 29.5 22 51.5c0 6.66699 -1.16699 13.5 -3.5 20.5s-6.16602 13.333 -11.499 19s-12.833 10.334 -22.5 14.001s-21.834 5.5 -36.501 5.5zM289.005 652.997c0 15.333 5.16699 28.333 15.5 39s23.166 16 38.499 16
s28.333 -5.33301 39 -16s16 -23.667 16 -39s-5.33301 -28.166 -16 -38.499s-23.667 -15.5 -39 -15.5s-28.166 5.16699 -38.499 15.5s-15.5 23.166 -15.5 38.499z" />
    <glyph glyph-name="Eogonek" unicode="&#x118;" horiz-adv-x="510" 
d="M189 700l361 0.00195312l-15 -74h-283l-49 -229h259l-15 -74h-259l-53 -249h288l-16 -74h-27c-20.667 -10 -38.667 -22.667 -54 -38s-23 -34.666 -23 -57.999c0 -11.333 3.16699 -20.833 9.5 -28.5s16.833 -11.5 31.5 -11.5c12.667 0 26.667 2.66699 42 8l1 -43
c-12 -8.66699 -26 -14.834 -42 -18.501s-30.667 -5.5 -44 -5.5c-23.333 0 -42.5 6 -57.5 18s-22.5 30.333 -22.5 55c0 29.333 10 54.166 30 74.499s43.667 36.166 71 47.499h-202h-80z" />
    <glyph glyph-name="eogonek" unicode="&#x119;" horiz-adv-x="463" 
d="M389 49c-22.667 -19.333 -49.6631 -34.3369 -80.9961 -45.0039c-20 -11.333 -38 -25.666 -54 -42.999s-24.667 -37.666 -26 -60.999c0 -11.333 3.5 -20.833 10.5 -28.5s15.5 -11.167 25.5 -10.5c14.667 0.666992 29.667 4 45 10l1 -42c-11.333 -8 -25.333 -14 -42 -18
s-31.667 -6 -45 -6c-24.667 0 -43.5 6 -56.5 18s-19.833 28.333 -20.5 49c-0.666992 6.66699 0 14 2 22c3.33301 17.333 12.333 34.5 27 51.5s31.667 31.5 51 43.5l-15 -1c-53.333 0 -93.5 15.333 -120.5 46s-40.5 73.334 -40.5 128.001s7.66699 103.667 23 147
s35.5 80 60.5 110s53.333 53 85 69s64.167 24 97.5 24c24 0 44.833 -3.33301 62.5 -10s32.167 -15.5 43.5 -26.5s19.666 -23.667 24.999 -38s8 -29.5 8 -45.5c0 -47.333 -23 -84.5 -69 -111.5s-113 -40.5 -201 -40.5c-8 0 -16.5 0.166992 -25.5 0.5
s-18.167 0.833008 -27.5 1.5c-2.66699 -12.667 -4.5 -24.667 -5.5 -36s-1.5 -21.333 -1.5 -30c0.666992 -36.667 9.16699 -66.5 25.5 -89.5s42.166 -34.5 77.499 -34.5c29.333 0 56.166 4.83301 80.499 14.5s43.166 19.834 56.499 30.501zM304.004 447.996
c-36.667 0 -68.498 -12.501 -95.498 -37.501s-47.5 -62.5 -61.5 -112.5c25.333 0 51.666 0.666992 78.999 2s52.166 4.83301 74.499 10.5s40.833 14.667 55.5 27s22 29.5 22 51.5c0 6.66699 -1.16699 13.5 -3.5 20.5s-6.16602 13.333 -11.499 19
s-12.833 10.334 -22.5 14.001s-21.834 5.5 -36.501 5.5z" />
    <glyph glyph-name="Ecaron" unicode="&#x11a;" horiz-adv-x="510" 
d="M189 700h361l-15 -74h-283l-49 -229h259l-15 -74h-259l-53 -249h288l-16 -74h-288h-79zM393 746h-47l-97 103l3 21h67l46 -50l9 -34l24 33l71 51h76l-4 -22z" />
    <glyph glyph-name="ecaron" unicode="&#x11b;" horiz-adv-x="463" 
d="M389 49c-23.333 -20 -50.8301 -35.1689 -82.4971 -45.502s-63.5 -15.5 -95.5 -15.5c-53.333 0 -93.5 15.333 -120.5 46s-40.5 73.334 -40.5 128.001s7.66699 103.667 23 147s35.5 80 60.5 110s53.333 53 85 69s64.167 24 97.5 24c24 0 44.833 -3.33301 62.5 -10
s32.167 -15.5 43.5 -26.5s19.666 -23.667 24.999 -38s8 -29.5 8 -45.5c0 -47.333 -23 -84.5 -69 -111.5s-113 -40.5 -201 -40.5c-8 0 -16.333 0.166992 -25 0.5s-17.667 0.833008 -27 1.5c-2.66699 -12.667 -4.66699 -24.667 -6 -36s-2 -21.333 -2 -30
c0 -36.667 8.33301 -66.5 25 -89.5s42.667 -34.5 78 -34.5c29.333 0 56.166 4.83301 80.499 14.5s43.166 19.834 56.499 30.501zM304.003 447.998c-36.667 0 -68.498 -12.501 -95.498 -37.501s-47.5 -62.5 -61.5 -112.5c25.333 0 51.666 0.666992 78.999 2
s52.166 4.83301 74.499 10.5s40.833 14.667 55.5 27s22 29.5 22 51.5c0 6.66699 -1.16699 13.5 -3.5 20.5s-6.16602 13.333 -11.499 19s-12.833 10.334 -22.5 14.001s-21.834 5.5 -36.501 5.5zM335.005 549.997h-35l-71 182h72l23 -66l7 -58l34 58l56 66h70z" />
    <glyph glyph-name="Gcircumflex" unicode="&#x11c;" horiz-adv-x="583" 
d="M375 349l116.002 0.00195312h68l-65 -308c-47.333 -35.333 -106 -53 -176 -53c-33.333 0 -64.833 6 -94.5 18s-55.834 29.833 -78.501 53.5s-40.667 53.167 -54 88.5s-20 76.666 -20 123.999c0 82 12 151 36 207s54.833 101.167 92.5 135.5s79.167 59.166 124.5 74.499
s89.333 23 132 23c38 0 69.5 -2.5 94.5 -7.5s45.167 -11.167 60.5 -18.5l-35 -73c-13.333 7.33301 -31.166 13.333 -53.499 18s-47.5 7 -75.5 7c-38.667 0 -75.5 -7.5 -110.5 -22.5s-66 -37.5 -93 -67.5s-48.5 -67.167 -64.5 -111.5s-24 -95.833 -24 -154.5
c0 -30 3.66699 -58.333 11 -85s18.5 -50 33.5 -70s33.667 -35.833 56 -47.5s48.833 -17.5 79.5 -17.5c21.333 0 39.666 2.16699 54.999 6.5s30.666 10.5 45.999 18.5l41 195l-112 20zM466.002 870.002h48l99 -102l-4 -21h-68l-46 49l-10 35l-25 -34l-71 -50h-75l5 22z" />
    <glyph glyph-name="gcircumflex" unicode="&#x11d;" horiz-adv-x="505" 
d="M385 -23c-14 -65.333 -38.167 -113.167 -72.5 -143.5s-79.833 -45.5 -136.5 -45.5c-43.333 0 -79 5.5 -107 16.5s-49.333 20.5 -64 28.5l33 56c5.33301 -2.66699 11.833 -6.16699 19.5 -10.5s17 -8.5 28 -12.5s24.333 -7.33301 40 -10s34.167 -4 55.5 -4
c33.333 0 61.333 12 84 36s39.667 61.667 51 113l18 84h-4c-9.33301 -12.667 -19.5 -24.667 -30.5 -36s-23.167 -21.5 -36.5 -30.5s-27.833 -16.167 -43.5 -21.5s-32.834 -8 -51.501 -8c-36 0 -65 13 -87 39s-33 63 -33 111c0 44.667 6.16699 89 18.5 133
s30.666 83.5 54.999 118.5s54.333 63.5 90 85.5s76.834 33 123.501 33c36 0 66.333 -3 91 -9s46.334 -13.333 65.001 -22zM196 52.999c16.667 0 33.166 4.33301 49.499 13s31.333 19.834 45 33.501s26 28.5 37 44.5s20.167 31 27.5 45l51 241c-10.667 6 -23.667 10 -39 12
s-31 3 -47 3c-27.333 0 -52.666 -8 -75.999 -24s-43.5 -37.5 -60.5 -64.5s-30.5 -58.167 -40.5 -93.5s-15 -72.333 -15 -111c0 -30.667 6.16699 -54.834 18.5 -72.501s28.833 -26.5 49.5 -26.5zM363.999 731.999h30l66 -182h-63l-24 66l-6 58l-34 -58l-57 -66h-68z" />
    <glyph glyph-name="Gbreve" unicode="&#x11e;" horiz-adv-x="583" 
d="M375 349l116.002 0.00195312h68l-65 -308c-47.333 -35.333 -106 -53 -176 -53c-33.333 0 -64.833 6 -94.5 18s-55.834 29.833 -78.501 53.5s-40.667 53.167 -54 88.5s-20 76.666 -20 123.999c0 82 12 151 36 207s54.833 101.167 92.5 135.5s79.167 59.166 124.5 74.499
s89.333 23 132 23c38 0 69.5 -2.5 94.5 -7.5s45.167 -11.167 60.5 -18.5l-35 -73c-13.333 7.33301 -31.166 13.333 -53.499 18s-47.5 7 -75.5 7c-38.667 0 -75.5 -7.5 -110.5 -22.5s-66 -37.5 -93 -67.5s-48.5 -67.167 -64.5 -111.5s-24 -95.833 -24 -154.5
c0 -30 3.66699 -58.333 11 -85s18.5 -50 33.5 -70s33.667 -35.833 56 -47.5s48.833 -17.5 79.5 -17.5c21.333 0 39.666 2.16699 54.999 6.5s30.666 10.5 45.999 18.5l41 195l-112 20zM362.002 871.002c7.33301 -23.333 19.3369 -41.166 36.0039 -53.499s38 -18.5 64 -18.5
c21.333 0 39.666 2 54.999 6s28.666 9.16699 39.999 15.5s21.333 13.833 30 22.5s16.667 18 24 28l41 -19c-16.667 -40 -41.334 -70.333 -74.001 -91s-72.334 -31 -119.001 -31c-19.333 0 -37 3.16699 -53 9.5s-29.833 14.833 -41.5 25.5s-21 23.167 -28 37.5
s-11.5 29.166 -13.5 44.499z" />
    <glyph glyph-name="gbreve" unicode="&#x11f;" horiz-adv-x="505" 
d="M385 -23c-14 -65.333 -38.167 -113.167 -72.5 -143.5s-79.833 -45.5 -136.5 -45.5c-43.333 0 -79 5.5 -107 16.5s-49.333 20.5 -64 28.5l33 56c5.33301 -2.66699 11.833 -6.16699 19.5 -10.5s17 -8.5 28 -12.5s24.333 -7.33301 40 -10s34.167 -4 55.5 -4
c33.333 0 61.333 12 84 36s39.667 61.667 51 113l18 84h-4c-9.33301 -12.667 -19.5 -24.667 -30.5 -36s-23.167 -21.5 -36.5 -30.5s-27.833 -16.167 -43.5 -21.5s-32.834 -8 -51.501 -8c-36 0 -65 13 -87 39s-33 63 -33 111c0 44.667 6.16699 89 18.5 133
s30.666 83.5 54.999 118.5s54.333 63.5 90 85.5s76.834 33 123.501 33c36 0 66.333 -3 91 -9s46.334 -13.333 65.001 -22zM196 52.999c16.667 0 33.166 4.33301 49.499 13s31.333 19.834 45 33.501s26 28.5 37 44.5s20.167 31 27.5 45l51 241c-10.667 6 -23.667 10 -39 12
s-31 3 -47 3c-27.333 0 -52.666 -8 -75.999 -24s-43.5 -37.5 -60.5 -64.5s-30.5 -58.167 -40.5 -93.5s-15 -72.333 -15 -111c0 -30.667 6.16699 -54.834 18.5 -72.501s28.833 -26.5 49.5 -26.5zM267.999 719.999c6 -24 15.167 -42.833 27.5 -56.5s30.166 -20.5 53.499 -20.5
c25.333 0 48.833 6.83301 70.5 20.5s40.167 32.5 55.5 56.5l35 -18c-5.33301 -16 -13.5 -31.833 -24.5 -47.5s-24 -29.5 -39 -41.5s-31.667 -21.667 -50 -29s-36.833 -11 -55.5 -11c-34.667 0 -63.167 11.167 -85.5 33.5s-34.166 52.5 -35.499 90.5z" />
    <glyph glyph-name="Gcommaaccent" unicode="&#x122;" horiz-adv-x="583" 
d="M375 349l116.002 0.00195312h68l-65 -308c-47.333 -35.333 -106 -53 -176 -53c-33.333 0 -64.833 6 -94.5 18s-55.834 29.833 -78.501 53.5s-40.667 53.167 -54 88.5s-20 76.666 -20 123.999c0 82 12 151 36 207s54.833 101.167 92.5 135.5s79.167 59.166 124.5 74.499
s89.333 23 132 23c38 0 69.5 -2.5 94.5 -7.5s45.167 -11.167 60.5 -18.5l-35 -73c-13.333 7.33301 -31.166 13.333 -53.499 18s-47.5 7 -75.5 7c-38.667 0 -75.5 -7.5 -110.5 -22.5s-66 -37.5 -93 -67.5s-48.5 -67.167 -64.5 -111.5s-24 -95.833 -24 -154.5
c0 -30 3.66699 -58.333 11 -85s18.5 -50 33.5 -70s33.667 -35.833 56 -47.5s48.833 -17.5 79.5 -17.5c21.333 0 39.666 2.16699 54.999 6.5s30.666 10.5 45.999 18.5l41 195l-112 20zM254.002 -104.998c0 15.333 5.99902 27.4971 17.999 36.4971s24.667 13.5 38 13.5
c17.333 0 29.666 -5.33301 36.999 -16s11 -24 11 -40c0 -19.333 -4 -36.666 -12 -51.999s-17.5 -28.666 -28.5 -39.999s-22.167 -20.666 -33.5 -27.999s-20.666 -12 -27.999 -14l-18 32c13.333 7.33301 25.333 16.333 36 27s17.334 24 20.001 40
c-13.333 0 -23.333 3.66699 -30 11s-10 17.333 -10 30z" />
    <glyph glyph-name="gcommaaccent" unicode="&#x123;" horiz-adv-x="505" 
d="M385 -23c-14 -65.333 -38.167 -113.167 -72.5 -143.5s-79.833 -45.5 -136.5 -45.5c-43.333 0 -79 5.5 -107 16.5s-49.333 20.5 -64 28.5l33 56c5.33301 -2.66699 11.833 -6.16699 19.5 -10.5s17 -8.5 28 -12.5s24.333 -7.33301 40 -10s34.167 -4 55.5 -4
c33.333 0 61.333 12 84 36s39.667 61.667 51 113l18 84h-4c-9.33301 -12.667 -19.5 -24.667 -30.5 -36s-23.167 -21.5 -36.5 -30.5s-27.833 -16.167 -43.5 -21.5s-32.834 -8 -51.501 -8c-36 0 -65 13 -87 39s-33 63 -33 111c0 44.667 6.16699 89 18.5 133
s30.666 83.5 54.999 118.5s54.333 63.5 90 85.5s76.834 33 123.501 33c36 0 66.333 -3 91 -9s46.334 -13.333 65.001 -22zM196 52.999c16.667 0 33.166 4.33301 49.499 13s31.333 19.834 45 33.501s26 28.5 37 44.5s20.167 31 27.5 45l51 241c-10.667 6 -23.667 10 -39 12
s-31 3 -47 3c-27.333 0 -52.666 -8 -75.999 -24s-43.5 -37.5 -60.5 -64.5s-30.5 -58.167 -40.5 -93.5s-15 -72.333 -15 -111c0 -30.667 6.16699 -54.834 18.5 -72.501s28.833 -26.5 49.5 -26.5zM422.999 611.992c0 -15.332 -5.99902 -27.498 -17.998 -36.4971
s-24.665 -13.499 -37.998 -13.499c-17.332 0 -29.665 5.33301 -36.998 15.999s-10.999 23.998 -10.999 39.9971c0 19.332 4 36.6641 11.999 51.9971c7.99902 15.332 17.498 28.6641 28.4971 39.9971s22.165 20.666 33.498 27.999s20.666 11.999 27.999 13.999
l17.999 -31.998c-13.332 -7.33301 -25.3311 -16.333 -35.9971 -26.999s-17.332 -23.998 -19.999 -39.9971c13.333 0 23.332 -3.66602 29.998 -10.999s9.99902 -17.333 9.99902 -29.999z" />
    <glyph glyph-name="Hcircumflex" unicode="&#x124;" horiz-adv-x="639" 
d="M505 321h-318l-67 -321h-80l148 700h80l-64 -305h317l64 305h80l-148 -700h-80zM444 870h48l99 -102l-4 -21h-68l-46 49l-10 35l-25 -34l-71 -50h-75l5 22z" />
    <glyph glyph-name="hcircumflex" unicode="&#x125;" horiz-adv-x="529" 
d="M341 0l59.999 285c4 20 7.33301 37.833 10 53.5s4 29.5 4 41.5c0 24.667 -5 42.167 -15 52.5s-25.667 15.5 -47 15.5c-17.333 0 -35 -4.5 -53 -13.5s-35.333 -20.5 -52 -34.5s-31.5 -29.667 -44.5 -47s-22.833 -34 -29.5 -50l-63 -303h-75l148 700h75l-62 -286h4
c8.66699 10.667 19.167 21.667 31.5 33s26.5 21.833 42.5 31.5s33.333 17.667 52 24s39 9.5 61 9.5c32.667 0 58.334 -7.83301 77.001 -23.5s28 -44.167 28 -85.5c0 -28 -4.33301 -61.667 -13 -101l-64 -302h-75zM240.999 870h48l99 -102l-4 -21h-68l-46 49l-10 35l-25 -34
l-71 -50h-75l5 22z" />
    <glyph glyph-name="Hbar" unicode="&#x126;" horiz-adv-x="645" 
d="M94 587h73l24 113h80l-24 -113h317l24 113h80l-24 -113h77l-13 -64h-78l-110 -523h-80l68 321h-318l-67 -321h-80l110 523h-73zM524 395l27 128h-317l-27 -128h317z" />
    <glyph glyph-name="hbar" unicode="&#x127;" horiz-adv-x="530" 
d="M93 632h75.999l15 68h75l-15 -68h152l-12 -60h-153l-34 -158h4c8.66699 10.667 19.167 21.667 31.5 33s26.5 21.833 42.5 31.5s33.333 17.667 52 24s39 9.5 61 9.5c32.667 0 58.334 -7.83301 77.001 -23.5s28 -44.167 28 -85.5c0 -28 -4.33301 -61.667 -13 -101l-64 -302
h-75l60 285c4 20 7.33301 37.833 10 53.5s4 29.5 4 41.5c0 24.667 -5 42.167 -15 52.5s-25.667 15.5 -47 15.5c-17.333 0 -35 -4.5 -53 -13.5s-35.333 -20.5 -52 -34.5s-31.5 -29.667 -44.5 -47s-22.833 -34 -29.5 -50l-63 -303h-75l121 572h-77z" />
    <glyph glyph-name="Imacron" unicode="&#x12a;" horiz-adv-x="277" 
d="M210 700h80l-148 -700h-80zM122 843h300l-13 -62h-301z" />
    <glyph glyph-name="imacron" unicode="&#x12b;" horiz-adv-x="259" 
d="M160 500h75l-106 -500h-75zM89 643h281l-13 -62h-282z" />
    <glyph glyph-name="Iogonek" unicode="&#x12e;" horiz-adv-x="277" 
d="M210 700h80.001l-148 -700h-17c-19.333 -10 -36.666 -22.833 -51.999 -38.5s-23 -35.167 -23 -58.5c0 -11.333 3.16699 -20.833 9.5 -28.5s16.5 -11.5 30.5 -11.5c12.667 0 26.667 2.66699 42 8l1 -43c-12 -8 -26 -13.833 -42 -17.5s-30.667 -5.5 -44 -5.5
c-22.667 0 -41.334 5.83301 -56.001 17.5s-22.334 30.167 -23.001 55.5c0 28 10 52.5 30 73.5s43.333 37.167 70 48.5h-6z" />
    <glyph glyph-name="iogonek" unicode="&#x12f;" horiz-adv-x="260" 
d="M160 500l75.002 -0.000976562l-106 -500h-16c-18 -10.667 -33.833 -23.334 -47.5 -38.001s-22.5 -31.334 -26.5 -50.001l-1 -12c0 -11.333 3.5 -20.666 10.5 -27.999s18.5 -10.666 34.5 -9.99902c11.333 1.33301 23.333 4.33301 36 9l1 -43
c-8.66699 -6.66699 -21.334 -12.167 -38.001 -16.5s-31.667 -6.5 -45 -6.5c-26.667 -0.666992 -46.834 4.83301 -60.501 16.5s-20.5 27.834 -20.5 48.501c0 28.667 10.167 54.5 30.5 77.5s44.833 40.5 73.5 52.5h-6zM177.002 652.999c0 15.333 5.16699 28.333 15.5 39
s23.166 16 38.499 16s28.333 -5.33301 39 -16s16 -23.667 16 -39s-5.33301 -28.166 -16 -38.499s-23.667 -15.5 -39 -15.5s-28.166 5.16699 -38.499 15.5s-15.5 23.166 -15.5 38.499z" />
    <glyph glyph-name="Idotaccent" unicode="&#x130;" horiz-adv-x="277" 
d="M210 700h80l-148 -700h-80zM209 796c0 15.333 5.66699 28 17 38s25.333 15 42 15c17.333 0 31.666 -5 42.999 -15s17 -22.667 17 -38c0 -14.667 -5.66699 -27 -17 -37s-25.666 -15 -42.999 -15c-16.667 0 -30.667 5 -42 15s-17 22.333 -17 37z" />
    <glyph glyph-name="dotlessi" unicode="&#x131;" horiz-adv-x="259" 
d="M160 500h75l-106 -500h-75z" />
    <glyph glyph-name="Jcircumflex" unicode="&#x134;" horiz-adv-x="278" 
d="M222 700l80.001 0.000976562l-116 -546c-6 -26.667 -13.167 -50.167 -21.5 -70.5s-19 -37.5 -32 -51.5s-29 -24.5 -48 -31.5s-41.833 -10.5 -68.5 -10.5c-5.33301 0 -11.5 0.333008 -18.5 1s-14.167 1.66699 -21.5 3s-14.333 3 -21 5s-12 4.33301 -16 7l30 71
c12.667 -8.66699 30.667 -13 54 -13c14 0 25.667 2.5 35 7.5s17.333 12.333 24 22s12.167 21.167 16.5 34.5s8.16602 28.666 11.499 45.999zM269.001 870.001h48l99 -102l-4 -21h-68l-46 49l-10 35l-25 -34l-71 -50h-75l5 22z" />
    <glyph glyph-name="jcircumflex" unicode="&#x135;" horiz-adv-x="249" 
d="M148 500l75.0029 -0.000976562l-107 -501c-14.667 -79.333 -36.834 -133.666 -66.501 -162.999s-67.834 -44 -114.501 -44c-5.33301 0 -10.5 0.166992 -15.5 0.5s-10.167 0.833008 -15.5 1.5l15 65c20 0 36.5 2.83301 49.5 8.5s24 14.5 33 26.5s16.667 27 23 45
s12.166 38.667 17.499 62zM226.003 731.999h30l66 -182h-63l-24 66l-6 58l-34 -58l-57 -66h-68z" />
    <glyph glyph-name="Kcommaaccent" unicode="&#x136;" horiz-adv-x="576" 
d="M239 324h-51l-68 -324h-80l148 700h80l-70 -326l40 14l287 312h99l-286 -304l-46 -31l39 -40l175 -325h-91zM166 -105c0 15.333 5.99902 27.4971 17.999 36.4971s24.667 13.5 38 13.5c17.333 0 29.666 -5.33301 36.999 -16s11 -24 11 -40
c0 -19.333 -4 -36.666 -12 -51.999s-17.5 -28.666 -28.5 -39.999s-22.167 -20.666 -33.5 -27.999s-20.666 -12 -27.999 -14l-18 32c13.333 7.33301 25.333 16.333 36 27s17.334 24 20.001 40c-13.333 0 -23.333 3.66699 -30 11s-10 17.333 -10 30z" />
    <glyph glyph-name="kcommaaccent" unicode="&#x137;" horiz-adv-x="449" 
d="M212 225h-54l-47 -225h-75l148 700h75l-91 -426l43 11l180 215h92l-178 -203l-47 -33l38 -39l112 -225h-83zM114 -105c0 15.333 5.99902 27.4971 17.999 36.4971s24.667 13.5 38 13.5c17.333 0 29.666 -5.33301 36.999 -16s11 -24 11 -40
c0 -19.333 -4 -36.666 -12 -51.999s-17.5 -28.666 -28.5 -39.999s-22.167 -20.666 -33.5 -27.999s-20.666 -12 -27.999 -14l-18 32c13.333 7.33301 25.333 16.333 36 27s17.334 24 20.001 40c-13.333 0 -23.333 3.66699 -30 11s-10 17.333 -10 30z" />
    <glyph glyph-name="Lacute" unicode="&#x139;" horiz-adv-x="492" 
d="M434 0h-316h-78l148 700h80l-133 -626h314zM351 870h116l-5 -21l-175 -97h-73z" />
    <glyph glyph-name="lacute" unicode="&#x13a;" horiz-adv-x="270" 
d="M133 119c-2 -11.333 -3 -20.6689 -3 -28.002c0 -12.667 2.16699 -21.834 6.5 -27.501s10.166 -8.5 17.499 -8.5c13.333 0 24.5 0.833008 33.5 2.5s19.833 4.83398 32.5 9.50098v-57c-6 -3.33301 -13 -6.16602 -21 -8.49902s-16.167 -4.16602 -24.5 -5.49902
s-16.666 -2.5 -24.999 -3.5s-15.833 -1.5 -22.5 -1.5c-23.333 0 -42 5.33301 -56 16s-21 30.334 -21 59.001c0 13.333 2 29.666 6 48.999l124 585h75zM326 869.997h116l-5 -21l-175 -97h-73z" />
    <glyph glyph-name="Lcommaaccent" unicode="&#x13b;" horiz-adv-x="492" 
d="M434 0h-316h-78l148 700h80l-133 -626h314zM154 -105c0 15.333 5.99902 27.4971 17.999 36.4971s24.667 13.5 38 13.5c17.333 0 29.666 -5.33301 36.999 -16s11 -24 11 -40c0 -19.333 -4 -36.666 -12 -51.999s-17.5 -28.666 -28.5 -39.999s-22.167 -20.666 -33.5 -27.999
s-20.666 -12 -27.999 -14l-18 32c13.333 7.33301 25.333 16.333 36 27s17.334 24 20.001 40c-13.333 0 -23.333 3.66699 -30 11s-10 17.333 -10 30z" />
    <glyph glyph-name="lcommaaccent" unicode="&#x13c;" horiz-adv-x="270" 
d="M133 119c-2 -11.333 -3 -20.6689 -3 -28.002c0 -12.667 2.16699 -21.834 6.5 -27.501s10.166 -8.5 17.499 -8.5c13.333 0 24.5 0.833008 33.5 2.5s19.833 4.83398 32.5 9.50098v-57c-6 -3.33301 -13 -6.16602 -21 -8.49902s-16.167 -4.16602 -24.5 -5.49902
s-16.666 -2.5 -24.999 -3.5s-15.833 -1.5 -22.5 -1.5c-23.333 0 -42 5.33301 -56 16s-21 30.334 -21 59.001c0 13.333 2 29.666 6 48.999l124 585h75zM41 -105.003c0 15.333 5.99902 27.4971 17.999 36.4971s24.667 13.5 38 13.5c17.333 0 29.666 -5.33301 36.999 -16
s11 -24 11 -40c0 -19.333 -4 -36.666 -12 -51.999s-17.5 -28.666 -28.5 -39.999s-22.167 -20.666 -33.5 -27.999s-20.666 -12 -27.999 -14l-18 32c13.333 7.33301 25.333 16.333 36 27s17.334 24 20.001 40c-13.333 0 -23.333 3.66699 -30 11s-10 17.333 -10 30z" />
    <glyph glyph-name="Lcaron" unicode="&#x13d;" horiz-adv-x="492" 
d="M434 0h-316h-78l148 700h80l-133 -626h314zM516 700c-5.33301 -19.333 -13.168 -39.1689 -23.501 -59.502s-21.5 -39.166 -33.5 -56.499s-23.5 -32.666 -34.5 -45.999s-19.833 -23 -26.5 -29l-27 18c16 24 29.833 51.167 41.5 81.5s20.834 60.833 27.501 91.5h76z" />
    <glyph glyph-name="lcaron" unicode="&#x13e;" horiz-adv-x="270" 
d="M133 119c-2 -11.333 -3 -20.6689 -3 -28.002c0 -12.667 2.16699 -21.834 6.5 -27.501s10.166 -8.5 17.499 -8.5c13.333 0 24.5 0.833008 33.5 2.5s19.833 4.83398 32.5 9.50098v-57c-6 -3.33301 -13 -6.16602 -21 -8.49902s-16.167 -4.16602 -24.5 -5.49902
s-16.666 -2.5 -24.999 -3.5s-15.833 -1.5 -22.5 -1.5c-23.333 0 -42 5.33301 -56 16s-21 30.334 -21 59.001c0 13.333 2 29.666 6 48.999l124 585h75zM405 699.997c-5.33301 -19.333 -13.168 -39.1689 -23.501 -59.502s-21.5 -39.166 -33.5 -56.499
s-23.5 -32.666 -34.5 -45.999s-19.833 -23 -26.5 -29l-27 18c16 24 29.833 51.167 41.5 81.5s20.834 60.833 27.501 91.5h76z" />
    <glyph glyph-name="Lslash" unicode="&#x141;" horiz-adv-x="493" 
d="M36 287l77 54l76 359h80l-63 -293l120 84l-17 -80l-119 -83l-54 -254h314l-15 -74h-314h-80l56 264l-77 -53z" />
    <glyph glyph-name="lslash" unicode="&#x142;" horiz-adv-x="270" 
d="M19 285l86 59.9971l75 355h75l-62 -293l116 82l-17 -80l-115 -80l-44 -210c-2 -11.333 -3 -20.666 -3 -27.999c0 -12.667 2.16699 -21.834 6.5 -27.501s10.166 -8.5 17.499 -8.5c13.333 0 24.5 0.833008 33.5 2.5s19.833 4.83398 32.5 9.50098v-57
c-6 -3.33301 -13 -6.16602 -21 -8.49902s-16.167 -4.16602 -24.5 -5.49902s-16.666 -2.5 -24.999 -3.5s-15.833 -1.5 -22.5 -1.5c-23.333 0 -42 5.33301 -56 16s-21 30.334 -21 59.001c0 13.333 2 29.666 6 48.999l32 153l-85 -59z" />
    <glyph glyph-name="Nacute" unicode="&#x143;" horiz-adv-x="642" 
d="M261 458l-34 103h-3l-12 -103l-97 -458h-75l151 711h40l218 -468l33 -98h4l9 98l98 457h75l-151 -711h-37zM524 870h116l-5 -21l-175 -97h-73z" />
    <glyph glyph-name="nacute" unicode="&#x144;" horiz-adv-x="522" 
d="M321 0l67.002 316c2.66699 12 5 23.833 7 35.5s3 22.167 3 31.5c0 19.333 -4.5 35 -13.5 47s-25.833 18 -50.5 18c-17.333 0 -34.333 -4 -51 -12s-32.334 -18.167 -47.001 -30.5s-27.834 -26 -39.501 -41s-21.5 -29.833 -29.5 -44.5l-66 -320h-75l106 500h52l-4 -86h4
c8.66699 10.667 19 21.834 31 33.501s25.5 22.167 40.5 31.5s31.833 17.166 50.5 23.499s39.334 9.5 62.001 9.5c33.333 0 59.666 -8 78.999 -24s29 -44 29 -84c0 -20 -3 -44 -9 -72l-71 -332h-75zM400.002 720h84l-5 -21l-123 -128h-44z" />
    <glyph glyph-name="Ncommaaccent" unicode="&#x145;" horiz-adv-x="642" 
d="M261 458l-34 103h-3l-12 -103l-97 -458h-75l151 711h40l218 -468l33 -98h4l9 98l98 457h75l-151 -711h-37zM205 -105c0 15.333 5.99902 27.4971 17.999 36.4971s24.667 13.5 38 13.5c17.333 0 29.666 -5.33301 36.999 -16s11 -24 11 -40
c0 -19.333 -4 -36.666 -12 -51.999s-17.5 -28.666 -28.5 -39.999s-22.167 -20.666 -33.5 -27.999s-20.666 -12 -27.999 -14l-18 32c13.333 7.33301 25.333 16.333 36 27s17.334 24 20.001 40c-13.333 0 -23.333 3.66699 -30 11s-10 17.333 -10 30z" />
    <glyph glyph-name="ncommaaccent" unicode="&#x146;" horiz-adv-x="522" 
d="M321 0l67.002 316c2.66699 12 5 23.833 7 35.5s3 22.167 3 31.5c0 19.333 -4.5 35 -13.5 47s-25.833 18 -50.5 18c-17.333 0 -34.333 -4 -51 -12s-32.334 -18.167 -47.001 -30.5s-27.834 -26 -39.501 -41s-21.5 -29.833 -29.5 -44.5l-66 -320h-75l106 500h52l-4 -86h4
c8.66699 10.667 19 21.834 31 33.501s25.5 22.167 40.5 31.5s31.833 17.166 50.5 23.499s39.334 9.5 62.001 9.5c33.333 0 59.666 -8 78.999 -24s29 -44 29 -84c0 -20 -3 -44 -9 -72l-71 -332h-75zM145.002 -105c0 15.333 5.99902 27.4971 17.999 36.4971
s24.667 13.5 38 13.5c17.333 0 29.666 -5.33301 36.999 -16s11 -24 11 -40c0 -19.333 -4 -36.666 -12 -51.999s-17.5 -28.666 -28.5 -39.999s-22.167 -20.666 -33.5 -27.999s-20.666 -12 -27.999 -14l-18 32c13.333 7.33301 25.333 16.333 36 27s17.334 24 20.001 40
c-13.333 0 -23.333 3.66699 -30 11s-10 17.333 -10 30z" />
    <glyph glyph-name="Ncaron" unicode="&#x147;" horiz-adv-x="642" 
d="M261 458l-34 103h-3l-12 -103l-97 -458h-75l151 711h40l218 -468l33 -98h4l9 98l98 457h75l-151 -711h-37zM459 746h-47l-97 103l3 21h67l46 -50l9 -34l24 33l71 51h76l-4 -22z" />
    <glyph glyph-name="ncaron" unicode="&#x148;" horiz-adv-x="522" 
d="M321 0l67.002 316c2.66699 12 5 23.833 7 35.5s3 22.167 3 31.5c0 19.333 -4.5 35 -13.5 47s-25.833 18 -50.5 18c-17.333 0 -34.333 -4 -51 -12s-32.334 -18.167 -47.001 -30.5s-27.834 -26 -39.501 -41s-21.5 -29.833 -29.5 -44.5l-66 -320h-75l106 500h52l-4 -86h4
c8.66699 10.667 19 21.834 31 33.501s25.5 22.167 40.5 31.5s31.833 17.166 50.5 23.499s39.334 9.5 62.001 9.5c33.333 0 59.666 -8 78.999 -24s29 -44 29 -84c0 -20 -3 -44 -9 -72l-71 -332h-75zM351.002 550h-35l-71 182h72l23 -66l7 -58l34 58l56 66h70z" />
    <glyph glyph-name="Omacron" unicode="&#x14c;" horiz-adv-x="651" 
d="M71 256c0 61.333 8.33301 119.668 25 175.001s40.5 103.833 71.5 145.5s68.333 74.667 112 99s92.167 36.5 145.5 36.5c32 0 61.667 -4.83301 89 -14.5s50.833 -25 70.5 -46s35 -48.167 46 -81.5s16.5 -74 16.5 -122c0 -62.667 -8.33301 -121.834 -25 -177.501
s-40 -104.5 -70 -146.5s-65.833 -75.167 -107.5 -99.5s-87.5 -36.5 -137.5 -36.5c-78.667 0 -137.667 22.833 -177 68.5s-59 112.167 -59 199.5zM155 257.002c0 -62.667 12.998 -111.167 38.998 -145.5s64.333 -51.5 115 -51.5c37.333 0 71.5 10.333 102.5 31
s57.833 48.667 80.5 84s40.167 76.333 52.5 123s18.5 96 18.5 148c0 38.667 -4.33301 70.667 -13 96s-20.167 45.166 -34.5 59.499s-30.666 24.333 -48.999 30s-36.833 8.5 -55.5 8.5c-38 0 -72.667 -10.5 -104 -31.5s-58.166 -49.167 -80.499 -84.5
s-39.833 -76.166 -52.5 -122.499s-19 -94.5 -19 -144.5zM310.998 843.002h300l-13 -62h-301z" />
    <glyph glyph-name="omacron" unicode="&#x14d;" horiz-adv-x="498" 
d="M50 156c0 52.667 6.83398 100.834 20.501 144.501s32.5 81.167 56.5 112.5s51.833 55.666 83.5 72.999s65.5 26 101.5 26c28 0 51.833 -4.5 71.5 -13.5s35.667 -21.333 48 -37s21.166 -33.667 26.499 -54s8 -41.5 8 -63.5c0 -50 -6.5 -96.667 -19.5 -140
s-31 -81 -54 -113s-49.833 -57.167 -80.5 -75.5s-64 -27.5 -100 -27.5c-30 0 -55.167 4.83301 -75.5 14.5s-37 22.5 -50 38.5s-22.333 34 -28 54s-8.5 40.333 -8.5 61zM130.001 174c0 -39.333 7.33301 -69.5 22 -90.5s38 -31.5 70 -31.5c22 0 42.833 7.83301 62.5 23.5
s37 36.834 52 63.501s27 57.167 36 91.5s13.5 70.166 13.5 107.499c0 34 -6.16699 60.833 -18.5 80.5s-35.833 29.5 -70.5 29.5c-22 0 -43 -7.5 -63 -22.5s-37.833 -35.167 -53.5 -60.5s-28 -54.5 -37 -87.5s-13.5 -67.5 -13.5 -103.5zM202.001 643h281l-13 -62h-282z" />
    <glyph glyph-name="Ohungarumlaut" unicode="&#x150;" horiz-adv-x="651" 
d="M71 256c0 61.333 8.33301 119.668 25 175.001s40.5 103.833 71.5 145.5s68.333 74.667 112 99s92.167 36.5 145.5 36.5c32 0 61.667 -4.83301 89 -14.5s50.833 -25 70.5 -46s35 -48.167 46 -81.5s16.5 -74 16.5 -122c0 -62.667 -8.33301 -121.834 -25 -177.501
s-40 -104.5 -70 -146.5s-65.833 -75.167 -107.5 -99.5s-87.5 -36.5 -137.5 -36.5c-78.667 0 -137.667 22.833 -177 68.5s-59 112.167 -59 199.5zM155 257.002c0 -62.667 12.998 -111.167 38.998 -145.5s64.333 -51.5 115 -51.5c37.333 0 71.5 10.333 102.5 31
s57.833 48.667 80.5 84s40.167 76.333 52.5 123s18.5 96 18.5 148c0 38.667 -4.33301 70.667 -13 96s-20.167 45.166 -34.5 59.499s-30.666 24.333 -48.999 30s-36.833 8.5 -55.5 8.5c-38 0 -72.667 -10.5 -104 -31.5s-58.166 -49.167 -80.499 -84.5
s-39.833 -76.166 -52.5 -122.499s-19 -94.5 -19 -144.5zM424.998 850.002h88l-3 -16l-115 -93h-54zM578.998 850.002h93l-3 -16l-156 -93h-54z" />
    <glyph glyph-name="ohungarumlaut" unicode="&#x151;" horiz-adv-x="498" 
d="M50 156c0 52.667 6.83398 100.834 20.501 144.501s32.5 81.167 56.5 112.5s51.833 55.666 83.5 72.999s65.5 26 101.5 26c28 0 51.833 -4.5 71.5 -13.5s35.667 -21.333 48 -37s21.166 -33.667 26.499 -54s8 -41.5 8 -63.5c0 -50 -6.5 -96.667 -19.5 -140
s-31 -81 -54 -113s-49.833 -57.167 -80.5 -75.5s-64 -27.5 -100 -27.5c-30 0 -55.167 4.83301 -75.5 14.5s-37 22.5 -50 38.5s-22.333 34 -28 54s-8.5 40.333 -8.5 61zM130.001 174c0 -39.333 7.33301 -69.5 22 -90.5s38 -31.5 70 -31.5c22 0 42.833 7.83301 62.5 23.5
s37 36.834 52 63.501s27 57.167 36 91.5s13.5 70.166 13.5 107.499c0 34 -6.16699 60.833 -18.5 80.5s-35.833 29.5 -70.5 29.5c-22 0 -43 -7.5 -63 -22.5s-37.833 -35.167 -53.5 -60.5s-28 -54.5 -37 -87.5s-13.5 -67.5 -13.5 -103.5zM299.001 700h74l-3 -16l-91 -113h-40z
M438.001 700h81l-3 -16l-131 -113h-44z" />
    <glyph glyph-name="OE" unicode="&#x152;" horiz-adv-x="888" 
d="M549 618c-15.333 7.33301 -32.334 12.833 -51.001 16.5s-43.667 5.5 -75 5.5c-43.333 0 -81.666 -10.5 -114.999 -31.5s-61.333 -49.167 -84 -84.5s-39.667 -76 -51 -122s-17 -94.333 -17 -145c0 -20 2 -41.5 6 -64.5s11.667 -44.333 23 -64s27.333 -36 48 -49
s47.667 -19.5 81 -19.5c9.33301 0 18.333 0.166992 27 0.5s17.667 1 27 2s19.333 2.66699 30 5s23 5.5 37 9.5zM418.999 0c-17.333 -4 -33.6709 -7 -49.0039 -9s-35.333 -3 -60 -3c-31.333 0 -61.333 4.33301 -90 13s-54 23.334 -76 44.001s-39.5 48.167 -52.5 82.5
s-19.5 77.166 -19.5 128.499c0 64 8.33301 123.833 25 179.5s40.667 104 72 145s69.333 73.167 114 96.5s95.334 35 152.001 35c14.667 0 27.334 -0.166992 38.001 -0.5s20.834 -1 30.501 -2s19.334 -2.33301 29.001 -4s21.167 -3.5 34.5 -5.5h362l-16 -74h-282l-49 -229
h258l-15 -74h-259l-52 -249h287l-15 -74h-367z" />
    <glyph glyph-name="oe" unicode="&#x153;" horiz-adv-x="784" 
d="M130 174c0 -39.333 7.33398 -69.5 22.001 -90.5s38 -31.5 70 -31.5c22 0 43 7.83301 63 23.5s37.5 36.834 52.5 63.501s27 57.167 36 91.5s13.5 70.166 13.5 107.499c0 34 -6.33301 60.833 -19 80.5s-36.334 29.5 -71.001 29.5c-22 0 -43 -7.5 -63 -22.5
s-37.833 -35.167 -53.5 -60.5s-28 -54.5 -37 -87.5s-13.5 -67.5 -13.5 -103.5zM387.001 95c-19.333 -32 -44.8311 -57.835 -76.498 -77.502s-64.5 -29.5 -98.5 -29.5c-30 0 -55.167 4.83301 -75.5 14.5s-37 22.5 -50 38.5s-22.333 34 -28 54s-8.5 40.333 -8.5 61
c0 52.667 6.83301 100.834 20.5 144.501s32.5 81.167 56.5 112.5s51.833 55.666 83.5 72.999s65.5 26 101.5 26c42 0 73.833 -10.167 95.5 -30.5s36.167 -46.833 43.5 -79.5c22.667 35.333 50.334 62.5 83.001 81.5s67 28.5 103 28.5c24 0 44.833 -3.33301 62.5 -10
s32.167 -15.5 43.5 -26.5s19.666 -23.667 24.999 -38s8 -29.5 8 -45.5c0 -47.333 -23 -84.5 -69 -111.5s-113 -40.5 -201 -40.5c-8 0 -16.333 0.166992 -25 0.5s-17.667 0.833008 -27 1.5c-2.66699 -12.667 -4.5 -24.667 -5.5 -36s-1.5 -21.333 -1.5 -30
c0 -36.667 8.16699 -66.5 24.5 -89.5s42.166 -34.5 77.499 -34.5c29.333 0 56.166 4.83301 80.499 14.5s43.166 19.834 56.499 30.501l24 -48c-23.333 -20 -50.833 -35.167 -82.5 -45.5s-63.5 -15.5 -95.5 -15.5c-19.333 0 -37 2.83301 -53 8.5s-30.167 13.334 -42.5 23.001
s-22.666 21 -30.999 34s-14.5 26.833 -18.5 41.5zM625.003 447.998c-36.667 0 -68.332 -12.501 -94.999 -37.501s-47.334 -62.5 -62.001 -112.5h16c21.333 0 44.5 0.666992 69.5 2s48.333 4.83301 70 10.5s39.667 14.667 54 27s21.5 29.5 21.5 51.5
c0 6.66699 -1.16699 13.5 -3.5 20.5s-6.16602 13.333 -11.499 19s-12.833 10.334 -22.5 14.001s-21.834 5.5 -36.501 5.5z" />
    <glyph glyph-name="Racute" unicode="&#x154;" horiz-adv-x="568" 
d="M187 693c28 5.33301 54.999 9.16699 80.999 11.5s52 3.5 78 3.5c25.333 0 50 -3.16699 74 -9.5s45.167 -16.333 63.5 -30s33 -31.5 44 -53.5s16.5 -48.667 16.5 -80c0 -58.667 -17.167 -107.5 -51.5 -146.5s-84.166 -64.167 -149.499 -75.5l36 -36l108 -277h-87l-120 302
l-94 15l-66 -317h-80zM340.999 636.001c-16 0 -32.001 -0.498047 -48.001 -1.49805s-29.333 -2.5 -40 -4.5l-55 -258h69c24 0 47.5 2.33301 70.5 7s43.667 13 62 25s33 28.333 44 49s16.5 46.667 16.5 78c0 12 -2.33301 24.167 -7 36.5s-11.667 23.666 -21 33.999
s-21.666 18.666 -36.999 24.999s-33.333 9.5 -54 9.5zM440.998 870.003h116l-5 -21l-175 -97h-73z" />
    <glyph glyph-name="racute" unicode="&#x155;" horiz-adv-x="327" 
d="M362 434c-6 1.33301 -12.166 2.33301 -18.499 3s-12.166 1 -17.499 1c-34 0 -63.333 -10.667 -88 -32s-44 -47.333 -58 -78l-69 -328h-75l106 500h52v-86h4c8 12.667 16.667 24.5 26 35.5s19.666 20.833 30.999 29.5s23.666 15.5 36.999 20.5s28 7.5 44 7.5
c14.667 0 30 -2.33301 46 -7zM301.001 720h84l-5 -21l-123 -128h-44z" />
    <glyph glyph-name="Rcommaaccent" unicode="&#x156;" horiz-adv-x="568" 
d="M187 693c28 5.33301 54.999 9.16699 80.999 11.5s52 3.5 78 3.5c25.333 0 50 -3.16699 74 -9.5s45.167 -16.333 63.5 -30s33 -31.5 44 -53.5s16.5 -48.667 16.5 -80c0 -58.667 -17.167 -107.5 -51.5 -146.5s-84.166 -64.167 -149.499 -75.5l36 -36l108 -277h-87l-120 302
l-94 15l-66 -317h-80zM340.999 636.001c-16 0 -32.001 -0.498047 -48.001 -1.49805s-29.333 -2.5 -40 -4.5l-55 -258h69c24 0 47.5 2.33301 70.5 7s43.667 13 62 25s33 28.333 44 49s16.5 46.667 16.5 78c0 12 -2.33301 24.167 -7 36.5s-11.667 23.666 -21 33.999
s-21.666 18.666 -36.999 24.999s-33.333 9.5 -54 9.5zM165.998 -104.997c0 15.333 5.99902 27.4971 17.999 36.4971s24.667 13.5 38 13.5c17.333 0 29.666 -5.33301 36.999 -16s11 -24 11 -40c0 -19.333 -4 -36.666 -12 -51.999s-17.5 -28.666 -28.5 -39.999
s-22.167 -20.666 -33.5 -27.999s-20.666 -12 -27.999 -14l-18 32c13.333 7.33301 25.333 16.333 36 27s17.334 24 20.001 40c-13.333 0 -23.333 3.66699 -30 11s-10 17.333 -10 30z" />
    <glyph glyph-name="rcommaaccent" unicode="&#x157;" horiz-adv-x="327" 
d="M362 434c-6 1.33301 -12.166 2.33301 -18.499 3s-12.166 1 -17.499 1c-34 0 -63.333 -10.667 -88 -32s-44 -47.333 -58 -78l-69 -328h-75l106 500h52v-86h4c8 12.667 16.667 24.5 26 35.5s19.666 20.833 30.999 29.5s23.666 15.5 36.999 20.5s28 7.5 44 7.5
c14.667 0 30 -2.33301 46 -7zM21.001 -105c0 15.333 5.99902 27.4971 17.999 36.4971s24.667 13.5 38 13.5c17.333 0 29.666 -5.33301 36.999 -16s11 -24 11 -40c0 -19.333 -4 -36.666 -12 -51.999s-17.5 -28.666 -28.5 -39.999s-22.167 -20.666 -33.5 -27.999
s-20.666 -12 -27.999 -14l-18 32c13.333 7.33301 25.333 16.333 36 27s17.334 24 20.001 40c-13.333 0 -23.333 3.66699 -30 11s-10 17.333 -10 30z" />
    <glyph glyph-name="Rcaron" unicode="&#x158;" horiz-adv-x="568" 
d="M187 693c28 5.33301 54.999 9.16699 80.999 11.5s52 3.5 78 3.5c25.333 0 50 -3.16699 74 -9.5s45.167 -16.333 63.5 -30s33 -31.5 44 -53.5s16.5 -48.667 16.5 -80c0 -58.667 -17.167 -107.5 -51.5 -146.5s-84.166 -64.167 -149.499 -75.5l36 -36l108 -277h-87l-120 302
l-94 15l-66 -317h-80zM340.999 636.001c-16 0 -32.001 -0.498047 -48.001 -1.49805s-29.333 -2.5 -40 -4.5l-55 -258h69c24 0 47.5 2.33301 70.5 7s43.667 13 62 25s33 28.333 44 49s16.5 46.667 16.5 78c0 12 -2.33301 24.167 -7 36.5s-11.667 23.666 -21 33.999
s-21.666 18.666 -36.999 24.999s-33.333 9.5 -54 9.5zM376.998 746.003h-47l-97 103l3 21h67l46 -50l9 -34l24 33l71 51h76l-4 -22z" />
    <glyph glyph-name="rcaron" unicode="&#x159;" horiz-adv-x="327" 
d="M362 434c-6 1.33301 -12.166 2.33301 -18.499 3s-12.166 1 -17.499 1c-34 0 -63.333 -10.667 -88 -32s-44 -47.333 -58 -78l-69 -328h-75l106 500h52v-86h4c8 12.667 16.667 24.5 26 35.5s19.666 20.833 30.999 29.5s23.666 15.5 36.999 20.5s28 7.5 44 7.5
c14.667 0 30 -2.33301 46 -7zM274.001 550h-35l-71 182h72l23 -66l7 -58l34 58l56 66h70z" />
    <glyph glyph-name="Sacute" unicode="&#x15a;" horiz-adv-x="505" 
d="M388 180c0 24 -6.16895 44.334 -18.502 61.001s-27.833 31.834 -46.5 45.501s-38.834 26.834 -60.501 39.501s-41.834 27.334 -60.501 44.001s-34.167 36.334 -46.5 59.001s-18.5 50.667 -18.5 84c0 35.333 6.5 65.666 19.5 90.999s30.667 46 53 62
s48.666 27.667 78.999 35s62.5 11 96.5 11c38.667 0 73.334 -3 104.001 -9s54.667 -13.667 72 -23l-40 -71c-13.333 7.33301 -33.166 14.333 -59.499 21s-56.833 10 -91.5 10c-44 0 -79.833 -10 -107.5 -30s-41.5 -49 -41.5 -87c0 -24.667 6.16699 -45.5 18.5 -62.5
s27.833 -32.333 46.5 -46s38.834 -26.834 60.501 -39.501s41.834 -27.167 60.501 -43.5s34.167 -35.833 46.5 -58.5s18.5 -50.334 18.5 -83.001c0 -64.667 -23.333 -114.5 -70 -149.5s-113.667 -52.5 -201 -52.5c-44.667 0 -82.5 3.83301 -113.5 11.5
s-54.5 16.167 -70.5 25.5l41 73c15.333 -8.66699 36.166 -17.167 62.499 -25.5s57.5 -12.5 93.5 -12.5c20.667 0 41.334 1.83301 62.001 5.5s39.334 10.167 56.001 19.5s30.167 21.666 40.5 36.999s15.5 34.666 15.5 57.999zM465.998 870.001h116l-5 -21l-175 -97h-73z" />
    <glyph glyph-name="sacute" unicode="&#x15b;" horiz-adv-x="398" 
d="M259 141c0 17.333 -4.33301 32.001 -13 44.001s-19.667 22.833 -33 32.5s-27.666 19.167 -42.999 28.5s-29.666 19.833 -42.999 31.5s-24.333 25.334 -33 41.001s-13 35.167 -13 58.5c0 18.667 4.5 36.167 13.5 52.5s21.333 30.666 37 42.999s34.334 22 56.001 29
s45.167 10.5 70.5 10.5c35.333 0 62.666 -2.33301 81.999 -7s36.666 -11.334 51.999 -20.001l-25 -60c-26.667 15.333 -63 23 -109 23c-28 0 -51.167 -5.83301 -69.5 -17.5s-27.5 -29.5 -27.5 -53.5c0 -14 4.33301 -26.167 13 -36.5s19.667 -20.166 33 -29.499
s27.666 -18.833 42.999 -28.5s29.666 -20.667 42.999 -33s24.333 -26.833 33 -43.5s13 -36.334 13 -59.001c0 -52 -17.5 -91.5 -52.5 -118.5s-81.833 -40.5 -140.5 -40.5c-30 0 -57.5 3 -82.5 9s-45.167 13.667 -60.5 23l28 63c13.333 -8.66699 30.833 -16 52.5 -22
s44.167 -9 67.5 -9c32.667 0 58.834 7.16699 78.501 21.5s29.5 36.833 29.5 67.5zM328 720.001h84l-5 -21l-123 -128h-44z" />
    <glyph glyph-name="Scircumflex" unicode="&#x15c;" horiz-adv-x="505" 
d="M391 180c0 24 -6.16895 44.334 -18.502 61.001s-27.833 31.834 -46.5 45.501s-38.834 26.834 -60.501 39.501s-41.834 27.334 -60.501 44.001s-34.167 36.334 -46.5 59.001s-18.5 50.667 -18.5 84c0 35.333 6.5 65.666 19.5 90.999s30.667 46 53 62
s48.666 27.667 78.999 35s62.5 11 96.5 11c38.667 0 73.334 -3 104.001 -9s54.667 -13.667 72 -23l-40 -71c-13.333 7.33301 -33.166 14.333 -59.499 21s-56.833 10 -91.5 10c-44 0 -79.833 -10 -107.5 -30s-41.5 -49 -41.5 -87c0 -24.667 6.16699 -45.5 18.5 -62.5
s27.833 -32.333 46.5 -46s38.834 -26.834 60.501 -39.501s41.834 -27.167 60.501 -43.5s34.167 -35.833 46.5 -58.5s18.5 -50.334 18.5 -83.001c0 -64.667 -23.333 -114.5 -70 -149.5s-113.667 -52.5 -201 -52.5c-44.667 0 -82.5 3.83301 -113.5 11.5
s-54.5 16.167 -70.5 25.5l41 73c15.333 -8.66699 36.166 -17.167 62.499 -25.5s57.5 -12.5 93.5 -12.5c20.667 0 41.334 1.83301 62.001 5.5s39.334 10.167 56.001 19.5s30.167 21.666 40.5 36.999s15.5 34.666 15.5 57.999zM392.998 870.001h48l99 -102l-4 -21h-68l-46 49
l-10 35l-25 -34l-71 -50h-75l5 22z" />
    <glyph glyph-name="scircumflex" unicode="&#x15d;" horiz-adv-x="398" 
d="M259 141c0 17.333 -4.33301 32.001 -13 44.001s-19.667 22.833 -33 32.5s-27.666 19.167 -42.999 28.5s-29.666 19.833 -42.999 31.5s-24.333 25.334 -33 41.001s-13 35.167 -13 58.5c0 18.667 4.5 36.167 13.5 52.5s21.333 30.666 37 42.999s34.334 22 56.001 29
s45.167 10.5 70.5 10.5c35.333 0 62.666 -2.33301 81.999 -7s36.666 -11.334 51.999 -20.001l-25 -60c-26.667 15.333 -63 23 -109 23c-28 0 -51.167 -5.83301 -69.5 -17.5s-27.5 -29.5 -27.5 -53.5c0 -14 4.33301 -26.167 13 -36.5s19.667 -20.166 33 -29.499
s27.666 -18.833 42.999 -28.5s29.666 -20.667 42.999 -33s24.333 -26.833 33 -43.5s13 -36.334 13 -59.001c0 -52 -17.5 -91.5 -52.5 -118.5s-81.833 -40.5 -140.5 -40.5c-30 0 -57.5 3 -82.5 9s-45.167 13.667 -60.5 23l28 63c13.333 -8.66699 30.833 -16 52.5 -22
s44.167 -9 67.5 -9c32.667 0 58.834 7.16699 78.501 21.5s29.5 36.833 29.5 67.5zM298 732.001h30l66 -182h-63l-24 66l-6 58l-34 -58l-57 -66h-68z" />
    <glyph glyph-name="Scedilla" unicode="&#x15e;" horiz-adv-x="505" 
d="M391 180c0 24 -6.16992 44.332 -18.5029 60.999s-27.833 31.834 -46.5 45.501s-38.834 26.834 -60.501 39.501s-41.834 27.334 -60.501 44.001s-34.167 36.334 -46.5 59.001s-18.5 50.667 -18.5 84c0 35.333 6.5 65.666 19.5 90.999s30.667 46 53 62
s48.666 27.667 78.999 35s62.5 11 96.5 11c38.667 0 73.334 -3 104.001 -9s54.667 -13.667 72 -23l-40 -71c-13.333 7.33301 -33.166 14.333 -59.499 21s-56.833 10 -91.5 10c-44 0 -79.833 -10 -107.5 -30s-41.5 -49 -41.5 -87c0 -24.667 6.16699 -45.5 18.5 -62.5
s27.833 -32.333 46.5 -46s38.834 -26.834 60.501 -39.501s41.834 -27.167 60.501 -43.5s34.167 -35.833 46.5 -58.5s18.5 -50.334 18.5 -83.001c0 -59.333 -20 -106.333 -60 -141s-97.333 -54.667 -172 -60l-24 -32c18 -2 32.833 -8.83301 44.5 -20.5
s17.5 -28.167 17.5 -49.5c0 -28 -10.5 -51 -31.5 -69s-52.5 -27 -94.5 -27c-8 0 -16.5 0.5 -25.5 1.5s-18.167 2.16699 -27.5 3.5l17 39c3.33301 -0.666992 6.83301 -1 10.5 -1h10.5c14 0 25.667 1.33301 35 4s16.666 5.83398 21.999 9.50098s9 7.83398 11 12.501s3 9 3 13
c0 12.667 -7 22 -21 28s-32.667 9 -56 9l56 78c-41.333 1.33301 -76.166 5.5 -104.499 12.5s-50.166 15.167 -65.499 24.5l41 73c15.333 -8.66699 36.166 -17.167 62.499 -25.5s57.5 -12.5 93.5 -12.5c20.667 0 41.334 1.83301 62.001 5.5s39.334 10.167 56.001 19.5
s30.167 21.666 40.5 36.999s15.5 34.666 15.5 57.999z" />
    <glyph glyph-name="scedilla" unicode="&#x15f;" horiz-adv-x="398" 
d="M259 141c0 17.333 -4.33203 31.998 -12.999 43.998s-19.667 22.833 -33 32.5s-27.666 19.167 -42.999 28.5s-29.666 19.833 -42.999 31.5s-24.333 25.334 -33 41.001s-13 35.167 -13 58.5c0 18.667 4.5 36.167 13.5 52.5s21.333 30.666 37 42.999s34.334 22 56.001 29
s45.167 10.5 70.5 10.5c35.333 0 62.666 -2.33301 81.999 -7s36.666 -11.334 51.999 -20.001l-25 -60c-26.667 15.333 -63 23 -109 23c-28 0 -51.167 -5.83301 -69.5 -17.5s-27.5 -29.5 -27.5 -53.5c0 -14 4.33301 -26.167 13 -36.5s19.667 -20.166 33 -29.499
s27.666 -18.833 42.999 -28.5s29.666 -20.667 42.999 -33s24.333 -26.833 33 -43.5s13 -36.334 13 -59.001c0 -48 -15 -85.5 -45 -112.5s-70.333 -42.5 -121 -46.5l-24 -31c18 -2 32.833 -8.83301 44.5 -20.5s17.5 -28.167 17.5 -49.5c0 -28 -10.5 -51 -31.5 -69
s-52.5 -27 -94.5 -27c-8 0 -16.5 0.5 -25.5 1.5s-18.167 2.16699 -27.5 3.5l17 39c3.33301 -0.666992 6.83301 -1 10.5 -1h10.5c14 0 25.667 1.33301 35 4s16.666 5.83398 21.999 9.50098s9 7.83398 11 12.501s3 9 3 13c0 12.667 -7 22 -21 28s-32.667 9 -56 9l57 78
c-25.333 1.33301 -48 4.83301 -68 10.5s-36.667 12.834 -50 21.501l28 63c13.333 -8.66699 30.833 -16 52.5 -22s44.167 -9 67.5 -9c32.667 0 58.834 7.16699 78.501 21.5s29.5 36.833 29.5 67.5z" />
    <glyph glyph-name="Scaron" unicode="&#x160;" horiz-adv-x="505" 
d="M388 180c0 24 -6.16895 44.334 -18.502 61.001s-27.833 31.834 -46.5 45.501s-38.834 26.834 -60.501 39.501s-41.834 27.334 -60.501 44.001s-34.167 36.334 -46.5 59.001s-18.5 50.667 -18.5 84c0 35.333 6.5 65.666 19.5 90.999s30.667 46 53 62
s48.666 27.667 78.999 35s62.5 11 96.5 11c38.667 0 73.334 -3 104.001 -9s54.667 -13.667 72 -23l-40 -71c-13.333 7.33301 -33.166 14.333 -59.499 21s-56.833 10 -91.5 10c-44 0 -79.833 -10 -107.5 -30s-41.5 -49 -41.5 -87c0 -24.667 6.16699 -45.5 18.5 -62.5
s27.833 -32.333 46.5 -46s38.834 -26.834 60.501 -39.501s41.834 -27.167 60.501 -43.5s34.167 -35.833 46.5 -58.5s18.5 -50.334 18.5 -83.001c0 -64.667 -23.333 -114.5 -70 -149.5s-113.667 -52.5 -201 -52.5c-44.667 0 -82.5 3.83301 -113.5 11.5
s-54.5 16.167 -70.5 25.5l41 73c15.333 -8.66699 36.166 -17.167 62.499 -25.5s57.5 -12.5 93.5 -12.5c20.667 0 41.334 1.83301 62.001 5.5s39.334 10.167 56.001 19.5s30.167 21.666 40.5 36.999s15.5 34.666 15.5 57.999zM419.998 746.001h-47l-97 103l3 21h67l46 -50
l9 -34l24 33l71 51h76l-4 -22z" />
    <glyph glyph-name="scaron" unicode="&#x161;" horiz-adv-x="398" 
d="M259 141c0 17.333 -4.33301 32.001 -13 44.001s-19.667 22.833 -33 32.5s-27.666 19.167 -42.999 28.5s-29.666 19.833 -42.999 31.5s-24.333 25.334 -33 41.001s-13 35.167 -13 58.5c0 18.667 4.5 36.167 13.5 52.5s21.333 30.666 37 42.999s34.334 22 56.001 29
s45.167 10.5 70.5 10.5c35.333 0 62.666 -2.33301 81.999 -7s36.666 -11.334 51.999 -20.001l-25 -60c-26.667 15.333 -63 23 -109 23c-28 0 -51.167 -5.83301 -69.5 -17.5s-27.5 -29.5 -27.5 -53.5c0 -14 4.33301 -26.167 13 -36.5s19.667 -20.166 33 -29.499
s27.666 -18.833 42.999 -28.5s29.666 -20.667 42.999 -33s24.333 -26.833 33 -43.5s13 -36.334 13 -59.001c0 -52 -17.5 -91.5 -52.5 -118.5s-81.833 -40.5 -140.5 -40.5c-30 0 -57.5 3 -82.5 9s-45.167 13.667 -60.5 23l28 63c13.333 -8.66699 30.833 -16 52.5 -22
s44.167 -9 67.5 -9c32.667 0 58.834 7.16699 78.501 21.5s29.5 36.833 29.5 67.5zM283 550.001h-35l-71 182h72l23 -66l7 -58l34 58l56 66h70z" />
    <glyph glyph-name="Tcedilla" unicode="&#x162;" horiz-adv-x="528" 
d="M602 626l-206.999 -0.00195312l-132 -626h-11l-33 -43c18 -2 32.833 -8.83301 44.5 -20.5s17.5 -28.167 17.5 -49.5c0 -28 -10.5 -51 -31.5 -69s-52.5 -27 -94.5 -27c-8 0 -16.5 0.5 -25.5 1.5s-18.167 2.16699 -27.5 3.5l17 39c3.33301 -0.666992 6.83301 -1 10.5 -1
h10.5c14 0 25.667 1.33301 35 4s16.666 5.83398 21.999 9.50098s9 7.83398 11 12.501s3 9 3 13c0 24.667 -25.667 37 -77 37l65 90h-16l132 626h-205l15 74h492z" />
    <glyph glyph-name="tcedilla" unicode="&#x163;" horiz-adv-x="313" 
d="M71 500l74.002 -0.00195312l21 99l80 23l-26 -122h131l-15 -64h-130l-63 -302c-1.33301 -8 -2.5 -15.333 -3.5 -22s-1.5 -12.667 -1.5 -18c0 -16 3.66699 -27 11 -33s18.333 -9 33 -9c16 0 30.667 2 44 6s26.666 10 39.999 18v-61c-12 -7.33301 -27 -13.333 -45 -18
s-35.667 -7.66699 -53 -9l-24 -31c18 -2 32.833 -8.83301 44.5 -20.5s17.5 -28.167 17.5 -49.5c0 -28 -10.5 -51 -31.5 -69s-52.5 -27 -94.5 -27c-8 0 -16.5 0.5 -25.5 1.5s-18.167 2.16699 -27.5 3.5l17 39c3.33301 -0.666992 6.83301 -1 10.5 -1h10.5
c14 0 25.667 1.33301 35 4s16.666 5.83398 21.999 9.50098s9 7.83398 11 12.501s3 9 3 13c0 24.667 -25.667 37 -77 37l58 80c-39.333 9.33301 -59 36.333 -59 81c0 11.333 1.66699 25.333 5 42l68 323h-75z" />
    <glyph glyph-name="Tcaron" unicode="&#x164;" horiz-adv-x="528" 
d="M602 626h-207l-132 -626h-80l132 626h-205l15 74h492zM403 746h-47l-97 103l3 21h67l46 -50l9 -34l24 33l71 51h76l-4 -22z" />
    <glyph glyph-name="tcaron" unicode="&#x165;" horiz-adv-x="313" 
d="M71 500h74.001l21 99l80 23l-26 -122h131l-15 -64h-130l-63 -302c-1.33301 -8 -2.5 -15.333 -3.5 -22s-1.5 -12.667 -1.5 -18c0 -16 3.66699 -27 11 -33s18.333 -9 33 -9c16 0 30.667 2 44 6s26.666 10 39.999 18v-61c-14 -8 -32 -14.5 -54 -19.5s-43 -7.5 -63 -7.5
c-60.667 0 -91 27.667 -91 83c0 11.333 1.66699 25.333 5 42l68 323h-75zM403.001 714c-5.33301 -19.333 -13.168 -39.1689 -23.501 -59.502s-21.5 -39.166 -33.5 -56.499s-23.5 -32.666 -34.5 -45.999s-19.833 -23 -26.5 -29l-27 18c16 24 29.833 51.167 41.5 81.5
s20.834 60.833 27.501 91.5h76z" />
    <glyph glyph-name="Umacron" unicode="&#x16a;" horiz-adv-x="618" 
d="M573 700l76 0.000976562l-98 -467c-9.33301 -42.667 -21 -79.334 -35 -110.001s-31.5 -55.667 -52.5 -75s-46.167 -33.666 -75.5 -42.999s-63.333 -14 -102 -14c-36.667 0 -67.667 4.16699 -93 12.5s-45.833 20 -61.5 35s-27 33.333 -34 55s-10.5 45.5 -10.5 71.5
c0 27.333 3.66699 58.333 11 93l93 442h80l-93 -443c-7.33301 -29.333 -11 -56 -11 -80c0 -42 11 -71.167 33 -87.5s54.667 -24.5 98 -24.5c26 0 48.833 3.66699 68.5 11s36.667 18.666 51 33.999s26.333 35 36 59s18.167 53 25.5 87zM292 843.001h300l-13 -62h-301z" />
    <glyph glyph-name="umacron" unicode="&#x16b;" horiz-adv-x="511" 
d="M213 500l-70.001 -332.999c-4 -18 -6 -34.667 -6 -50c0 -18.667 3.66699 -34.167 11 -46.5s20.666 -18.5 39.999 -18.5c16 0 32.167 4 48.5 12s32 18.333 47 31s28.667 26.667 41 42s22.5 30.333 30.5 45l67 318h75l-63 -297
c-2.66699 -11.333 -5.33398 -25.166 -8.00098 -41.499s-5.16699 -33.5 -7.5 -51.5s-4.16602 -35.5 -5.49902 -52.5s-2 -31.833 -2 -44.5v-13h-59v95h-4c-10 -13.333 -21.5 -26.333 -34.5 -39s-27.333 -24 -43 -34s-32.5 -18.167 -50.5 -24.5s-37 -9.5 -57 -9.5
c-14.667 0 -28.167 1.66699 -40.5 5s-23.166 9.16602 -32.499 17.499s-16.666 19.333 -21.999 33s-8 31.167 -8 52.5c0 23.333 3.33301 49.666 10 78.999l68 325h75zM204.999 643.001h281l-13 -62h-282z" />
    <glyph glyph-name="Ubreve" unicode="&#x16c;" horiz-adv-x="618" 
d="M573 700l76 0.000976562l-98 -467c-9.33301 -42.667 -21 -79.334 -35 -110.001s-31.5 -55.667 -52.5 -75s-46.167 -33.666 -75.5 -42.999s-63.333 -14 -102 -14c-36.667 0 -67.667 4.16699 -93 12.5s-45.833 20 -61.5 35s-27 33.333 -34 55s-10.5 45.5 -10.5 71.5
c0 27.333 3.66699 58.333 11 93l93 442h80l-93 -443c-7.33301 -29.333 -11 -56 -11 -80c0 -42 11 -71.167 33 -87.5s54.667 -24.5 98 -24.5c26 0 48.833 3.66699 68.5 11s36.667 18.666 51 33.999s26.333 35 36 59s18.167 53 25.5 87zM318 871.001
c7.33301 -23.333 19.3369 -41.166 36.0039 -53.499s38 -18.5 64 -18.5c21.333 0 39.666 2 54.999 6s28.666 9.16699 39.999 15.5s21.333 13.833 30 22.5s16.667 18 24 28l41 -19c-16.667 -40 -41.334 -70.333 -74.001 -91s-72.334 -31 -119.001 -31
c-19.333 0 -37 3.16699 -53 9.5s-29.833 14.833 -41.5 25.5s-21 23.167 -28 37.5s-11.5 29.166 -13.5 44.499z" />
    <glyph glyph-name="ubreve" unicode="&#x16d;" horiz-adv-x="511" 
d="M213 500l-70.001 -332.999c-4 -18 -6 -34.667 -6 -50c0 -18.667 3.66699 -34.167 11 -46.5s20.666 -18.5 39.999 -18.5c16 0 32.167 4 48.5 12s32 18.333 47 31s28.667 26.667 41 42s22.5 30.333 30.5 45l67 318h75l-63 -297
c-2.66699 -11.333 -5.33398 -25.166 -8.00098 -41.499s-5.16699 -33.5 -7.5 -51.5s-4.16602 -35.5 -5.49902 -52.5s-2 -31.833 -2 -44.5v-13h-59v95h-4c-10 -13.333 -21.5 -26.333 -34.5 -39s-27.333 -24 -43 -34s-32.5 -18.167 -50.5 -24.5s-37 -9.5 -57 -9.5
c-14.667 0 -28.167 1.66699 -40.5 5s-23.166 9.16602 -32.499 17.499s-16.666 19.333 -21.999 33s-8 31.167 -8 52.5c0 23.333 3.33301 49.666 10 78.999l68 325h75zM259.999 720.001c6 -24 15.167 -42.833 27.5 -56.5s30.166 -20.5 53.499 -20.5
c25.333 0 48.833 6.83301 70.5 20.5s40.167 32.5 55.5 56.5l35 -18c-5.33301 -16 -13.5 -31.833 -24.5 -47.5s-24 -29.5 -39 -41.5s-31.667 -21.667 -50 -29s-36.833 -11 -55.5 -11c-34.667 0 -63.167 11.167 -85.5 33.5s-34.166 52.5 -35.499 90.5z" />
    <glyph glyph-name="Uring" unicode="&#x16e;" horiz-adv-x="618" 
d="M573 700l76 0.000976562l-98 -467c-9.33301 -42.667 -21 -79.334 -35 -110.001s-31.5 -55.667 -52.5 -75s-46.167 -33.666 -75.5 -42.999s-63.333 -14 -102 -14c-36.667 0 -67.667 4.16699 -93 12.5s-45.833 20 -61.5 35s-27 33.333 -34 55s-10.5 45.5 -10.5 71.5
c0 27.333 3.66699 58.333 11 93l93 442h80l-93 -443c-7.33301 -29.333 -11 -56 -11 -80c0 -42 11 -71.167 33 -87.5s54.667 -24.5 98 -24.5c26 0 48.833 3.66699 68.5 11s36.667 18.666 51 33.999s26.333 35 36 59s18.167 53 25.5 87zM330 768.001
c0 24.667 8.33203 45 24.999 61s43.334 24 80.001 24c33.333 0 59.333 -7.16699 78 -21.5s28 -35.5 28 -63.5c0 -24 -8.83301 -43.833 -26.5 -59.5s-44.167 -23.5 -79.5 -23.5c-34 0 -60 7.5 -78 22.5s-27 35.167 -27 60.5zM390.999 768.001
c0 -11.333 3.49805 -20.833 10.498 -28.5s18.167 -11.5 33.5 -11.5c14.667 0 25.834 3.66699 33.501 11s11.5 17 11.5 29c0 12.667 -3.66699 22.834 -11 30.501s-18.666 11.5 -33.999 11.5c-14.667 0 -25.667 -3.83301 -33 -11.5s-11 -17.834 -11 -30.501z" />
    <glyph glyph-name="uring" unicode="&#x16f;" horiz-adv-x="511" 
d="M213 500l-70.001 -332.999c-4 -18 -6 -34.667 -6 -50c0 -18.667 3.66699 -34.167 11 -46.5s20.666 -18.5 39.999 -18.5c16 0 32.167 4 48.5 12s32 18.333 47 31s28.667 26.667 41 42s22.5 30.333 30.5 45l67 318h75l-63 -297
c-2.66699 -11.333 -5.33398 -25.166 -8.00098 -41.499s-5.16699 -33.5 -7.5 -51.5s-4.16602 -35.5 -5.49902 -52.5s-2 -31.833 -2 -44.5v-13h-59v95h-4c-10 -13.333 -21.5 -26.333 -34.5 -39s-27.333 -24 -43 -34s-32.5 -18.167 -50.5 -24.5s-37 -9.5 -57 -9.5
c-14.667 0 -28.167 1.66699 -40.5 5s-23.166 9.16602 -32.499 17.499s-16.666 19.333 -21.999 33s-8 31.167 -8 52.5c0 23.333 3.33301 49.666 10 78.999l68 325h75zM244.999 643.001c0 28 8.83301 50.166 26.5 66.499s41.167 24.5 70.5 24.5c28 0 51.333 -7.33301 70 -22
s28 -37.667 28 -69c0 -26 -9.33301 -47.5 -28 -64.5s-42 -25.5 -70 -25.5s-51.167 7.83301 -69.5 23.5s-27.5 37.834 -27.5 66.501zM298.999 643c0 -13.333 4.5 -23.668 13.5 -31.001s18.833 -11 29.5 -11c12.667 0 23.167 3.33301 31.5 10s12.5 17.334 12.5 32.001
s-4.5 25.5 -13.5 32.5s-19.167 10.5 -30.5 10.5s-21.333 -3.33301 -30 -10s-13 -17.667 -13 -33z" />
    <glyph glyph-name="Uhungarumlaut" unicode="&#x170;" horiz-adv-x="618" 
d="M573 700l76 0.000976562l-98 -467c-9.33301 -42.667 -21 -79.334 -35 -110.001s-31.5 -55.667 -52.5 -75s-46.167 -33.666 -75.5 -42.999s-63.333 -14 -102 -14c-36.667 0 -67.667 4.16699 -93 12.5s-45.833 20 -61.5 35s-27 33.333 -34 55s-10.5 45.5 -10.5 71.5
c0 27.333 3.66699 58.333 11 93l93 442h80l-93 -443c-7.33301 -29.333 -11 -56 -11 -80c0 -42 11 -71.167 33 -87.5s54.667 -24.5 98 -24.5c26 0 48.833 3.66699 68.5 11s36.667 18.666 51 33.999s26.333 35 36 59s18.167 53 25.5 87zM397 850.001h88l-3 -16l-115 -93h-54z
M551 850.001h93l-3 -16l-156 -93h-54z" />
    <glyph glyph-name="uhungarumlaut" unicode="&#x171;" horiz-adv-x="511" 
d="M213 500l-70.001 -332.999c-4 -18 -6 -34.667 -6 -50c0 -18.667 3.66699 -34.167 11 -46.5s20.666 -18.5 39.999 -18.5c16 0 32.167 4 48.5 12s32 18.333 47 31s28.667 26.667 41 42s22.5 30.333 30.5 45l67 318h75l-63 -297
c-2.66699 -11.333 -5.33398 -25.166 -8.00098 -41.499s-5.16699 -33.5 -7.5 -51.5s-4.16602 -35.5 -5.49902 -52.5s-2 -31.833 -2 -44.5v-13h-59v95h-4c-10 -13.333 -21.5 -26.333 -34.5 -39s-27.333 -24 -43 -34s-32.5 -18.167 -50.5 -24.5s-37 -9.5 -57 -9.5
c-14.667 0 -28.167 1.66699 -40.5 5s-23.166 9.16602 -32.499 17.499s-16.666 19.333 -21.999 33s-8 31.167 -8 52.5c0 23.333 3.33301 49.666 10 78.999l68 325h75zM302.999 700.001h74l-3 -16l-91 -113h-40zM441.999 700.001h81l-3 -16l-131 -113h-44z" />
    <glyph glyph-name="Uogonek" unicode="&#x172;" horiz-adv-x="618" 
d="M573 700h76l-98 -467c-13.333 -64.667 -32.833 -115.5 -58.5 -152.5s-60.5 -62.5 -104.5 -76.5c-22.667 -10.667 -41.667 -24.167 -57 -40.5s-23.333 -36.166 -24 -59.499c0 -11.333 2.83301 -20.833 8.5 -28.5s16.167 -11.5 31.5 -11.5c12.667 0 26.667 2.66699 42 8
l1 -44c-12 -8 -26 -13.833 -42 -17.5s-30.667 -5.5 -44 -5.5c-22 0 -40.5 6 -55.5 18s-22.833 30.333 -23.5 55c0 24.667 7.66699 46.667 23 66s34 35.333 56 48c-3.33301 0 -6.33301 -0.166992 -9 -0.5s-5.66699 -0.5 -9 -0.5c-36.667 0 -67.667 4.16699 -93 12.5
s-45.833 20 -61.5 35s-27 33.333 -34 55s-10.5 45.5 -10.5 71.5c0 27.333 3.66699 58.333 11 93l93 442h80l-93 -443c-7.33301 -29.333 -11 -56 -11 -80c0 -42 11 -71.167 33 -87.5s54.667 -24.5 98 -24.5c26 0 48.833 3.66699 68.5 11s36.667 18.666 51 33.999
s26.333 35 36 59s18.167 53 25.5 87z" />
    <glyph glyph-name="uogonek" unicode="&#x173;" horiz-adv-x="511" 
d="M213 500l-70 -333c-4 -18 -6 -34.667 -6 -50c0 -18.667 3.66699 -34.167 11 -46.5s20.666 -18.5 39.999 -18.5c16 0 32.167 4 48.5 12s32 18.333 47 31s28.667 26.667 41 42s22.5 30.333 30.5 45l67 318h75l-63 -297c-2.66699 -11.333 -5.33398 -25.166 -8.00098 -41.499
s-5.16699 -33.5 -7.5 -51.5s-4.16602 -35.5 -5.49902 -52.5s-2 -31.833 -2 -44.5v-13h-16c-9.33301 -4.66699 -18.666 -10.334 -27.999 -17.001s-17.833 -14.167 -25.5 -22.5s-14.334 -17.5 -20.001 -27.5s-8.5 -20.667 -8.5 -32s3.16699 -20.666 9.5 -27.999
s16.833 -11 31.5 -11c11.333 0 24.666 3.33301 39.999 10l1 -44c-11.333 -7.33301 -25.333 -13.166 -42 -17.499s-31.667 -6.16602 -45 -5.49902c-24 0 -42.5 5.5 -55.5 16.5s-20.167 27.5 -21.5 49.5c-0.666992 16.667 2.5 32 9.5 46s16.333 26.5 28 37.5
s24.5 20.667 38.5 29s29 15.166 45 20.499v91h-4c-10 -13.333 -21.5 -26.333 -34.5 -39s-27.333 -24 -43 -34s-32.5 -18.167 -50.5 -24.5s-37 -9.5 -57 -9.5c-14.667 0 -28.167 1.66699 -40.5 5s-23.166 9.16602 -32.499 17.499s-16.666 19.333 -21.999 33
s-8 31.167 -8 52.5c0 23.333 3.33301 49.666 10 78.999l68 325h75z" />
    <glyph glyph-name="Ydieresis" unicode="&#x178;" horiz-adv-x="531" 
d="M241 278l-133 422h87l89 -306l3 -61h1l30 63l217 304h90l-304 -421l-59 -279h-80zM252 794c0 13.333 4.66699 24.5 14 33.5s21.666 13.5 36.999 13.5s27.5 -4.5 36.5 -13.5s13.5 -20.167 13.5 -33.5s-4.5 -24.333 -13.5 -33s-21.167 -13 -36.5 -13
s-27.666 4.33301 -36.999 13s-14 19.667 -14 33zM435 794c0 13.333 4.5 24.5 13.5 33.5s21.167 13.5 36.5 13.5s27.666 -4.5 36.999 -13.5s14 -20.167 14 -33.5s-4.66699 -24.333 -14 -33s-21.666 -13 -36.999 -13s-27.5 4.33301 -36.5 13s-13.5 19.667 -13.5 33z" />
    <glyph glyph-name="Zacute" unicode="&#x179;" 
d="M14 75l435 511l49 40h-366l15 74h447l-15 -75l-438 -514l-47 -37h367l-15 -74h-447zM450 870h116l-5 -21l-175 -97h-73z" />
    <glyph glyph-name="zacute" unicode="&#x17a;" horiz-adv-x="429" 
d="M11 69l281 319l55 43h-258l15 69h337l-15 -69l-284 -322l-54 -40h261l-14 -69h-337zM335 720h84l-5 -21l-123 -128h-44z" />
    <glyph glyph-name="Zdotaccent" unicode="&#x17b;" 
d="M14 75l435 511l49 40h-366l15 74h447l-15 -75l-438 -514l-47 -37h367l-15 -74h-447zM330 796c0 15.333 5.66699 28 17 38s25.333 15 42 15c17.333 0 31.666 -5 42.999 -15s17 -22.667 17 -38c0 -14.667 -5.66699 -27 -17 -37s-25.666 -15 -42.999 -15
c-16.667 0 -30.667 5 -42 15s-17 22.333 -17 37z" />
    <glyph glyph-name="zdotaccent" unicode="&#x17c;" horiz-adv-x="429" 
d="M11 69l281 319l55 43h-258l15 69h337l-15 -69l-284 -322l-54 -40h261l-14 -69h-337zM231 653c0 15.333 5.16699 28.333 15.5 39s23.166 16 38.499 16s28.333 -5.33301 39 -16s16 -23.667 16 -39s-5.33301 -28.166 -16 -38.499s-23.667 -15.5 -39 -15.5
s-28.166 5.16699 -38.499 15.5s-15.5 23.166 -15.5 38.499z" />
    <glyph glyph-name="Zcaron" unicode="&#x17d;" 
d="M14 75l435 511l49 40h-366l15 74h447l-15 -75l-438 -514l-47 -37h367l-15 -74h-447zM386 746h-47l-97 103l3 21h67l46 -50l9 -34l24 33l71 51h76l-4 -22z" />
    <glyph glyph-name="zcaron" unicode="&#x17e;" horiz-adv-x="429" 
d="M11 69l281 319l55 43h-258l15 69h337l-15 -69l-284 -322l-54 -40h261l-14 -69h-337zM289 550h-35l-71 182h72l23 -66l7 -58l34 58l56 66h70z" />
    <glyph glyph-name="longs" unicode="&#x17f;" horiz-adv-x="274" 
d="M144 436l-76.002 0.000976562l13 64h77l6 28c6.66699 30.667 14.667 57.334 24 80.001s20.833 41.167 34.5 55.5s30 25 49 32s41.167 10.5 66.5 10.5c20.667 0 38.334 -1.33301 53.001 -4s29.667 -7.66699 45 -15l-30 -59c-13.333 6.66699 -26.333 10.667 -39 12
s-24.667 2 -36 2c-16.667 0 -30.5 -3.33301 -41.5 -10s-20.167 -16.334 -27.5 -29.001s-13.166 -27.667 -17.499 -45s-8.5 -36.666 -12.5 -57.999l-86 -500c-6 -36.667 -13 -68 -21 -94s-17.833 -47.5 -29.5 -64.5s-26.167 -29.5 -43.5 -37.5s-38.333 -12 -63 -12
c-20 0 -38.5 1.5 -55.5 4.5s-32.833 8.16699 -47.5 15.5l22 56c13.333 -4.66699 25.5 -7.83398 36.5 -9.50098s24.5 -2.5 40.5 -2.5c25.333 0 44.333 13.167 57 39.5s22.667 61.166 30 104.499z" />
    <glyph glyph-name="florin" unicode="&#x192;" 
d="M319 431l-73.001 -431.002c-8 -47.333 -15.667 -81.5 -23 -102.5s-17.166 -39.333 -29.499 -55s-27.333 -28 -45 -37s-39.167 -13.5 -64.5 -13.5c-19.333 0 -39.333 2.33301 -60 7s-39 10.334 -55 17.001l21 65c15.333 -6.66699 29.833 -11.667 43.5 -15s28.5 -5 44.5 -5
c25.333 0 44.5 11.333 57.5 34s23.833 57.667 32.5 105l68 431h-85v69h96l11 67c8 49.333 22.5 85.833 43.5 109.5s55.5 35.5 103.5 35.5c22 0 43.5 -2.33301 64.5 -7s39.833 -10.667 56.5 -18l-23 -64c-32 13.333 -62.667 20 -92 20c-24.667 0 -41.667 -7.66699 -51 -23
s-17 -41.666 -23 -78.999l-7 -41h120v-69h-131z" />
    <glyph glyph-name="uni01F4" unicode="&#x1f4;" horiz-adv-x="583" 
d="M375 349l116.002 0.00195312h68l-65 -308c-47.333 -35.333 -106 -53 -176 -53c-33.333 0 -64.833 6 -94.5 18s-55.834 29.833 -78.501 53.5s-40.667 53.167 -54 88.5s-20 76.666 -20 123.999c0 82 12 151 36 207s54.833 101.167 92.5 135.5s79.167 59.166 124.5 74.499
s89.333 23 132 23c38 0 69.5 -2.5 94.5 -7.5s45.167 -11.167 60.5 -18.5l-35 -73c-13.333 7.33301 -31.166 13.333 -53.499 18s-47.5 7 -75.5 7c-38.667 0 -75.5 -7.5 -110.5 -22.5s-66 -37.5 -93 -67.5s-48.5 -67.167 -64.5 -111.5s-24 -95.833 -24 -154.5
c0 -30 3.66699 -58.333 11 -85s18.5 -50 33.5 -70s33.667 -35.833 56 -47.5s48.833 -17.5 79.5 -17.5c21.333 0 39.666 2.16699 54.999 6.5s30.666 10.5 45.999 18.5l41 195l-112 20zM544.002 870.002h116l-5 -21l-175 -97h-73z" />
    <glyph glyph-name="uni01F5" unicode="&#x1f5;" horiz-adv-x="505" 
d="M385 -23c-14 -65.333 -38.167 -113.167 -72.5 -143.5s-79.833 -45.5 -136.5 -45.5c-43.333 0 -79 5.5 -107 16.5s-49.333 20.5 -64 28.5l33 56c5.33301 -2.66699 11.833 -6.16699 19.5 -10.5s17 -8.5 28 -12.5s24.333 -7.33301 40 -10s34.167 -4 55.5 -4
c33.333 0 61.333 12 84 36s39.667 61.667 51 113l18 84h-4c-9.33301 -12.667 -19.5 -24.667 -30.5 -36s-23.167 -21.5 -36.5 -30.5s-27.833 -16.167 -43.5 -21.5s-32.834 -8 -51.501 -8c-36 0 -65 13 -87 39s-33 63 -33 111c0 44.667 6.16699 89 18.5 133
s30.666 83.5 54.999 118.5s54.333 63.5 90 85.5s76.834 33 123.501 33c36 0 66.333 -3 91 -9s46.334 -13.333 65.001 -22zM196 52.999c16.667 0 33.166 4.33301 49.499 13s31.333 19.834 45 33.501s26 28.5 37 44.5s20.167 31 27.5 45l51 241c-10.667 6 -23.667 10 -39 12
s-31 3 -47 3c-27.333 0 -52.666 -8 -75.999 -24s-43.5 -37.5 -60.5 -64.5s-30.5 -58.167 -40.5 -93.5s-15 -72.333 -15 -111c0 -30.667 6.16699 -54.834 18.5 -72.501s28.833 -26.5 49.5 -26.5zM394.999 719.999h84l-5 -21l-123 -128h-44z" />
    <glyph glyph-name="Scommaaccent" unicode="&#x218;" horiz-adv-x="505" 
d="M391 180c0 24 -6.16895 44.334 -18.502 61.001s-27.833 31.834 -46.5 45.501s-38.834 26.834 -60.501 39.501s-41.834 27.334 -60.501 44.001s-34.167 36.334 -46.5 59.001s-18.5 50.667 -18.5 84c0 35.333 6.5 65.666 19.5 90.999s30.667 46 53 62
s48.666 27.667 78.999 35s62.5 11 96.5 11c38.667 0 73.334 -3 104.001 -9s54.667 -13.667 72 -23l-40 -71c-13.333 7.33301 -33.166 14.333 -59.499 21s-56.833 10 -91.5 10c-44 0 -79.833 -10 -107.5 -30s-41.5 -49 -41.5 -87c0 -24.667 6.16699 -45.5 18.5 -62.5
s27.833 -32.333 46.5 -46s38.834 -26.834 60.501 -39.501s41.834 -27.167 60.501 -43.5s34.167 -35.833 46.5 -58.5s18.5 -50.334 18.5 -83.001c0 -64.667 -23.333 -114.5 -70 -149.5s-113.667 -52.5 -201 -52.5c-44.667 0 -82.5 3.83301 -113.5 11.5
s-54.5 16.167 -70.5 25.5l41 73c15.333 -8.66699 36.166 -17.167 62.499 -25.5s57.5 -12.5 93.5 -12.5c20.667 0 41.334 1.83301 62.001 5.5s39.334 10.167 56.001 19.5s30.167 21.666 40.5 36.999s15.5 34.666 15.5 57.999zM136.998 -104.999
c0 15.333 5.99902 27.4971 17.999 36.4971s24.667 13.5 38 13.5c17.333 0 29.666 -5.33301 36.999 -16s11 -24 11 -40c0 -19.333 -4 -36.666 -12 -51.999s-17.5 -28.666 -28.5 -39.999s-22.167 -20.666 -33.5 -27.999s-20.666 -12 -27.999 -14l-18 32
c13.333 7.33301 25.333 16.333 36 27s17.334 24 20.001 40c-13.333 0 -23.333 3.66699 -30 11s-10 17.333 -10 30z" />
    <glyph glyph-name="scommaaccent" unicode="&#x219;" horiz-adv-x="398" 
d="M259 141c0 17.333 -4.33301 32.001 -13 44.001s-19.667 22.833 -33 32.5s-27.666 19.167 -42.999 28.5s-29.666 19.833 -42.999 31.5s-24.333 25.334 -33 41.001s-13 35.167 -13 58.5c0 18.667 4.5 36.167 13.5 52.5s21.333 30.666 37 42.999s34.334 22 56.001 29
s45.167 10.5 70.5 10.5c35.333 0 62.666 -2.33301 81.999 -7s36.666 -11.334 51.999 -20.001l-25 -60c-26.667 15.333 -63 23 -109 23c-28 0 -51.167 -5.83301 -69.5 -17.5s-27.5 -29.5 -27.5 -53.5c0 -14 4.33301 -26.167 13 -36.5s19.667 -20.166 33 -29.499
s27.666 -18.833 42.999 -28.5s29.666 -20.667 42.999 -33s24.333 -26.833 33 -43.5s13 -36.334 13 -59.001c0 -52 -17.5 -91.5 -52.5 -118.5s-81.833 -40.5 -140.5 -40.5c-30 0 -57.5 3 -82.5 9s-45.167 13.667 -60.5 23l28 63c13.333 -8.66699 30.833 -16 52.5 -22
s44.167 -9 67.5 -9c32.667 0 58.834 7.16699 78.501 21.5s29.5 36.833 29.5 67.5zM75 -104.999c0 15.333 5.99902 27.4971 17.999 36.4971s24.667 13.5 38 13.5c17.333 0 29.666 -5.33301 36.999 -16s11 -24 11 -40c0 -19.333 -4 -36.666 -12 -51.999
s-17.5 -28.666 -28.5 -39.999s-22.167 -20.666 -33.5 -27.999s-20.666 -12 -27.999 -14l-18 32c13.333 7.33301 25.333 16.333 36 27s17.334 24 20.001 40c-13.333 0 -23.333 3.66699 -30 11s-10 17.333 -10 30z" />
    <glyph glyph-name="Tcommaaccent" unicode="&#x21a;" horiz-adv-x="528" 
d="M602 626h-207l-132 -626h-80l132 626h-205l15 74h492zM146 -105c0 15.333 5.99902 27.4971 17.999 36.4971s24.667 13.5 38 13.5c17.333 0 29.666 -5.33301 36.999 -16s11 -24 11 -40c0 -19.333 -4 -36.666 -12 -51.999s-17.5 -28.666 -28.5 -39.999
s-22.167 -20.666 -33.5 -27.999s-20.666 -12 -27.999 -14l-18 32c13.333 7.33301 25.333 16.333 36 27s17.334 24 20.001 40c-13.333 0 -23.333 3.66699 -30 11s-10 17.333 -10 30z" />
    <glyph glyph-name="tcommaaccent" unicode="&#x21b;" horiz-adv-x="313" 
d="M71 500h74.001l21 99l80 23l-26 -122h131l-15 -64h-130l-63 -302c-1.33301 -8 -2.5 -15.333 -3.5 -22s-1.5 -12.667 -1.5 -18c0 -16 3.66699 -27 11 -33s18.333 -9 33 -9c16 0 30.667 2 44 6s26.666 10 39.999 18v-61c-14 -8 -32 -14.5 -54 -19.5s-43 -7.5 -63 -7.5
c-60.667 0 -91 27.667 -91 83c0 11.333 1.66699 25.333 5 42l68 323h-75zM59.001 -105c0 15.333 5.99902 27.4971 17.999 36.4971s24.667 13.5 38 13.5c17.333 0 29.666 -5.33301 36.999 -16s11 -24 11 -40c0 -19.333 -4 -36.666 -12 -51.999s-17.5 -28.666 -28.5 -39.999
s-22.167 -20.666 -33.5 -27.999s-20.666 -12 -27.999 -14l-18 32c13.333 7.33301 25.333 16.333 36 27s17.334 24 20.001 40c-13.333 0 -23.333 3.66699 -30 11s-10 17.333 -10 30z" />
    <glyph glyph-name="uni0237" unicode="&#x237;" horiz-adv-x="249" 
d="M148 500l75.0029 -0.000976562l-107 -501c-14.667 -79.333 -36.834 -133.666 -66.501 -162.999s-67.834 -44 -114.501 -44c-5.33301 0 -10.5 0.166992 -15.5 0.5s-10.167 0.833008 -15.5 1.5l15 65c20 0 36.5 2.83301 49.5 8.5s24 14.5 33 26.5s16.667 27 23 45
s12.166 38.667 17.499 62z" />
    <glyph glyph-name="afii57929" unicode="&#x2bc;" horiz-adv-x="185" 
d="M142 658c0 8 1.83594 15.167 5.50293 21.5s8.16699 11.5 13.5 15.5s11.166 7.16699 17.499 9.5s12.5 3.5 18.5 3.5c20 0 33.5 -5 40.5 -15s10.5 -24.333 10.5 -43c0 -22.667 -4.33301 -42.667 -13 -60s-19 -32.166 -31 -44.499s-24.333 -22.333 -37 -30
s-23 -12.834 -31 -15.501l-16 34c15.333 8 28.666 18.333 39.999 31s18.666 28 21.999 46c-26.667 1.33301 -40 17 -40 47z" />
    <glyph glyph-name="circumflex" unicode="&#x2c6;" horiz-adv-x="431" 
d="M356 732h30l66 -182h-63l-24 66l-6 58l-34 -58l-57 -66h-68z" />
    <glyph glyph-name="caron" unicode="&#x2c7;" horiz-adv-x="431" 
d="M316 550h-35l-71 182h72l23 -66l7 -58l34 58l56 66h70z" />
    <glyph glyph-name="breve" unicode="&#x2d8;" horiz-adv-x="285" 
d="M158 720c6 -24 15.167 -42.833 27.5 -56.5s30.166 -20.5 53.499 -20.5c25.333 0 48.833 6.83301 70.5 20.5s40.167 32.5 55.5 56.5l35 -18c-5.33301 -16 -13.5 -31.833 -24.5 -47.5s-24 -29.5 -39 -41.5s-31.667 -21.667 -50 -29s-36.833 -11 -55.5 -11
c-34.667 0 -63.167 11.167 -85.5 33.5s-34.166 52.5 -35.499 90.5z" />
    <glyph glyph-name="dotaccent" unicode="&#x2d9;" horiz-adv-x="266" 
d="M191 653c0 15.333 5.16699 28.333 15.5 39s23.166 16 38.499 16s28.333 -5.33301 39 -16s16 -23.667 16 -39s-5.33301 -28.166 -16 -38.499s-23.667 -15.5 -39 -15.5s-28.166 5.16699 -38.499 15.5s-15.5 23.166 -15.5 38.499z" />
    <glyph glyph-name="ring" unicode="&#x2da;" horiz-adv-x="401" 
d="M220 643c0 28 8.83301 50.166 26.5 66.499s41.167 24.5 70.5 24.5c28 0 51.333 -7.33301 70 -22s28 -37.667 28 -69c0 -26 -9.33301 -47.5 -28 -64.5s-42 -25.5 -70 -25.5s-51.167 7.83301 -69.5 23.5s-27.5 37.834 -27.5 66.501zM274 642.999
c0 -13.333 4.5 -23.668 13.5 -31.001s18.833 -11 29.5 -11c12.667 0 23.167 3.33301 31.5 10s12.5 17.334 12.5 32.001s-4.5 25.5 -13.5 32.5s-19.167 10.5 -30.5 10.5s-21.333 -3.33301 -30 -10s-13 -17.667 -13 -33z" />
    <glyph glyph-name="ogonek" unicode="&#x2db;" horiz-adv-x="382" 
d="M257 10c-12 -5.33301 -23.667 -11.332 -35 -17.999s-21.666 -14.167 -30.999 -22.5s-16.833 -18 -22.5 -29s-8.5 -23.167 -8.5 -36.5c0 -11.333 3.16699 -20.833 9.5 -28.5s17.166 -11.5 32.499 -11.5c12.667 0 26.667 2.66699 42 8l1 -43
c-12 -8.66699 -26 -14.834 -42 -18.501s-30.667 -5.5 -44 -5.5c-22.667 0 -41.5 6 -56.5 18s-22.5 30.333 -22.5 55c0 16.667 3.66699 32.167 11 46.5s16.833 27 28.5 38s25 20.5 40 28.5s30.5 14.333 46.5 19h51z" />
    <glyph glyph-name="tilde" unicode="&#x2dc;" horiz-adv-x="349" 
d="M150 656c21.333 22 39.832 37.166 55.499 45.499s29.5 12.5 41.5 12.5c10 0 19 -2.16699 27 -6.5s15.833 -9 23.5 -14s15.334 -9.5 23.001 -13.5s16.167 -6 25.5 -6c15.333 0 33.333 8 54 24l15 -43c-19.333 -19.333 -36 -32.666 -50 -39.999s-26.667 -11 -38 -11
c-10 0 -19 2 -27 6s-15.833 8.5 -23.5 13.5s-15.5 9.5 -23.5 13.5s-17 6 -27 6c-8.66699 0 -18 -2.16699 -28 -6.5s-21.667 -11.833 -35 -22.5z" />
    <glyph glyph-name="hungarumlaut" unicode="&#x2dd;" horiz-adv-x="475" 
d="M260 700h74l-3 -16l-91 -113h-40zM399 700h81l-3 -16l-131 -113h-44z" />
    <glyph glyph-name="acutecomb" unicode="&#x301;" horiz-adv-x="2" 
d="M-66 720h84l-5 -21l-123 -128h-44z" />
    <glyph glyph-name="uni0394" unicode="&#x394;" horiz-adv-x="569" 
d="M12 0v37l254 674h34l256 -674v-37h-544zM104 72h355l-155 403l-24 105h-1l-28 -107z" />
    <glyph glyph-name="uni0394" unicode="&#x2206;" horiz-adv-x="569" 
d="M12 0v37l254 674h34l256 -674v-37h-544zM104 72h355l-155 403l-24 105h-1l-28 -107z" />
    </font>
</defs>
</svg>
